<svg width="66" height="42" viewBox="0 0 66 42" fill="none" xmlns="http://www.w3.org/2000/svg">
<path d="M64.6265 38.7956H48.5024V35.4835C48.5024 34.4341 48.7183 33.4088 49.1326 32.4603C49.4139 32.8678 49.5422 33.3618 49.5422 34.2119C49.5422 36.5673 52.0569 37.4948 53.543 37.6716C53.5931 37.6775 53.6436 37.6806 53.6941 37.6806C53.8691 37.6806 54.7651 37.5583 55.6463 37.1702C57.5603 36.3271 57.8462 34.9548 57.8462 34.2119C57.8462 32.6281 58.2855 32.2768 59.347 31.4281C59.7396 31.1142 60.1844 30.7585 60.6475 30.2954C61.1399 29.8032 61.8309 28.7601 62.1483 25.3993C62.2242 24.5963 62.2623 23.836 62.2815 23.252C62.9955 23.0632 63.8965 22.676 64.6381 21.8833C65.5731 20.8838 65.9967 19.5314 65.8972 17.8643C65.8735 17.4686 65.684 17.1012 65.3565 16.8782C65.0288 16.655 64.6322 16.5915 64.2557 16.7143C63.8714 16.8241 63.4825 16.8129 63.0995 16.681C63.0841 16.6756 63.0684 16.6716 63.0531 16.6664C63.3383 15.8437 63.4345 14.9732 63.3242 14.1015C63.1426 12.6669 62.3991 11.3258 61.3834 10.6015C61.0024 10.3297 60.5031 10.2879 60.082 10.4921C59.6608 10.6966 59.3849 11.1147 59.3625 11.5822C59.3217 12.4386 59.0259 13.0725 58.64 13.5402L58.1317 11.9661C55.8511 4.90273 49.3322 0.157227 41.9097 0.157227H22.1132H19.4855H13.2594C7.29913 0.157227 2.45011 5.00624 2.45011 10.9665V21.8046C1.24697 22.3526 0.399414 23.6491 0.399414 25.1578C0.399414 25.9988 0.677583 27.358 1.0759 28.4629C1.73178 30.2825 2.62464 31.205 3.72951 31.205C4.83438 31.205 5.72736 30.2825 6.38312 28.4629C6.78143 27.358 7.0596 25.9989 7.0596 25.1578C7.0596 23.6491 6.21204 22.3526 5.00891 21.8045V10.9664C5.00891 7.10454 7.67633 3.85518 11.2654 2.96092C10.8387 3.29181 10.4291 3.65008 10.0391 4.03508C8.5903 5.46572 7.5027 7.19039 6.83031 9.06631C6.81342 9.10316 6.79794 9.14103 6.78438 9.18006C5.1485 13.8913 6.22292 19.0479 9.58244 22.6935C9.58359 22.6948 9.58462 22.6959 9.58577 22.6972C9.63298 22.7484 9.67892 22.8004 9.72703 22.8509C9.73842 22.8629 9.75096 22.8734 9.76286 22.8848C10.1956 23.3381 10.6613 23.7638 11.1596 24.1569C12.3897 25.1272 13.0986 26.5824 13.1043 28.1493L13.143 38.7958H1.67881C0.97213 38.7958 0.399414 39.3687 0.399414 40.0752C0.399414 40.7819 0.972258 41.3546 1.67881 41.3546H25.1852C25.8919 41.3546 26.4646 40.7818 26.4646 40.0752C26.4646 39.3685 25.8918 38.7958 25.1852 38.7958H23.9026V35.4837C23.9026 33.9739 24.348 32.5139 25.1907 31.2615C25.7953 30.3631 26.2435 29.3877 26.5336 28.3546H35.8084C36.0984 29.3877 36.5468 30.363 37.1512 31.2615C37.9939 32.5141 38.4393 33.9742 38.4393 35.4838V38.7958H33.9627C33.256 38.7958 32.6833 39.3687 32.6833 40.0752C32.6833 40.7819 33.2561 41.3546 33.9627 41.3546H39.7174C39.7178 41.3546 39.7182 41.3546 39.7187 41.3546H43.4693H43.4721H47.2226C47.223 41.3546 47.2234 41.3546 47.2239 41.3546H64.6265C65.3332 41.3546 65.9059 40.7818 65.9059 40.0752C65.9059 39.3685 65.333 38.7956 64.6265 38.7956ZM3.72951 28.2033C3.34923 27.3909 2.95821 25.9459 2.95821 25.1578C2.95821 24.5757 3.31136 24.0841 3.72951 24.0841C4.14766 24.0841 4.50068 24.5758 4.50068 25.1578C4.50068 25.9461 4.10978 27.391 3.72951 28.2033ZM55.2871 34.2121C55.2871 34.6329 54.3236 34.9915 53.694 35.1068C53.0643 34.9915 52.1008 34.6328 52.1008 34.2121C52.1008 34.0273 52.0951 33.8508 52.0847 33.6813H55.3031C55.2927 33.8508 55.2871 34.0273 55.2871 34.2121ZM60.8085 14.9104C60.793 15.402 60.6561 15.9976 60.2444 16.614C60.0375 16.4383 59.8238 16.272 59.6047 16.1143C60.0377 15.7873 60.4525 15.3896 60.8085 14.9104ZM38.0845 2.71577C36.6072 5.08954 33.9877 6.59094 31.1052 6.59094C28.2228 6.59094 25.6033 5.08954 24.1259 2.71577H38.0845ZM12.7036 20.6896H11.2259C9.68045 18.8882 8.75113 16.6133 8.61704 14.2063C8.55767 13.1411 8.65619 12.0841 8.89994 11.0666L11.2337 11.4945C13.7518 11.9561 15.7537 13.9579 16.2152 16.476C16.4069 17.5212 16.1266 18.5889 15.4463 19.4051C14.7659 20.2215 13.7664 20.6896 12.7036 20.6896ZM45.9435 35.4835V38.7956H44.7519V35.4835C44.7519 35.4532 44.7494 35.4236 44.7474 35.3938C44.73 33.4053 44.1362 31.4842 43.025 29.8328C42.4492 28.9771 42.0603 28.0294 41.8686 27.0161L40.8562 21.6634C40.7249 20.969 40.0555 20.5131 39.3614 20.6441C38.667 20.7754 38.2107 21.4447 38.3421 22.139L39.3545 27.4917C39.6109 28.8478 40.1315 30.116 40.902 31.2613C41.7447 32.5139 42.1903 33.9739 42.1903 35.4835V38.7956H40.9986V35.4835C40.9986 33.4632 40.4025 31.5093 39.2746 29.8328C38.6988 28.9771 38.3098 28.0294 38.1182 27.0161L37.1058 21.6634C36.9745 20.969 36.3048 20.5131 35.6109 20.6441C34.9165 20.7754 34.4603 21.4447 34.5917 22.139L35.2834 25.7956H27.0597L27.7513 22.139C27.8826 21.4446 27.4262 20.7754 26.7321 20.6441C26.0379 20.5126 25.3685 20.9691 25.2372 21.6634L24.2248 27.0161C24.033 28.0295 23.6439 28.9773 23.0684 29.8328C21.9406 31.5091 21.3444 33.4632 21.3444 35.4835V38.7956H19.8355V35.4835C19.8355 33.9738 20.2811 32.5139 21.1238 31.2612C21.8943 30.116 22.4149 28.8478 22.6714 27.4917L23.6837 22.139C23.815 21.4446 23.3586 20.7754 22.6644 20.6441C21.9703 20.5131 21.3008 20.9691 21.1696 21.6634L20.1572 27.0161C19.9655 28.0294 19.5764 28.9771 19.0008 29.8328C17.873 31.5091 17.2767 33.4631 17.2767 35.4834V38.7954H15.7024L15.6638 28.1397C15.657 26.2784 14.9869 24.5236 13.7931 23.1499C15.1994 22.8973 16.4806 22.1614 17.4125 21.043C18.5803 19.6416 19.0616 17.8088 18.7326 16.0144C18.0805 12.4573 15.2527 9.6293 11.6955 8.97725L9.80227 8.63037C10.3241 7.61366 11.0075 6.675 11.8374 5.85559C13.8878 3.83074 16.6041 2.71564 19.4858 2.71564H21.2416C22.9507 6.59925 26.8046 9.1496 31.1057 9.1496C35.4069 9.1496 39.2609 6.59925 40.9698 2.71564H41.9099C48.2181 2.71564 53.7587 6.74883 55.6968 12.752L56.2755 14.5443C55.4387 14.3235 54.5716 14.208 53.6942 14.208C52.6407 14.208 51.6012 14.3728 50.612 14.6891C49.8962 14.4668 48.1939 13.7146 48.0917 11.5666C48.0694 11.099 47.7934 10.6809 47.3723 10.4765C46.9512 10.272 46.4521 10.3138 46.0708 10.5857C45.0554 11.31 44.3116 12.651 44.13 14.0856C44.0196 14.9574 44.1159 15.828 44.4012 16.6507C44.0486 16.7549 43.6917 16.7586 43.339 16.659C42.9662 16.5463 42.5621 16.6094 42.2413 16.8311C41.9177 17.0548 41.7149 17.4148 41.6914 17.8074C41.5918 19.4746 42.0155 20.8268 42.9504 21.8265C43.6232 22.5459 44.4267 22.9305 45.1034 23.1369C45.1213 23.734 45.1593 24.5422 45.2401 25.3995C45.5576 28.7603 46.2485 29.8032 46.7408 30.2956C46.8806 30.4354 47.0184 30.5644 47.1539 30.6865C46.3604 32.1574 45.9435 33.797 45.9435 35.4835ZM47.8262 16.0822C47.6149 16.2324 47.4101 16.3926 47.2101 16.5596C47.1988 16.5565 47.1877 16.5528 47.1764 16.5497C46.7896 15.9508 46.6602 15.3736 46.6452 14.8951C46.995 15.3658 47.4016 15.7584 47.8262 16.0822ZM46.5386 20.8163C46.5282 20.8162 45.4728 20.7774 44.819 20.0784C44.6141 19.8594 44.463 19.5862 44.3658 19.2609C44.6884 19.2237 45.0085 19.1513 45.3215 19.0434C45.5401 18.9682 45.7598 18.94 45.9751 18.945C46.1229 18.9431 46.536 19.0231 46.6113 19.051C47.3482 19.2735 47.9453 19.7784 48.1175 19.9345C48.3339 20.2259 48.4424 20.481 48.4906 20.6185C48.6057 21.2071 49.1236 21.6513 49.7457 21.6513H49.772C50.4786 21.6513 51.0514 21.0785 51.0514 20.3719C51.0514 20.1666 51.0017 19.9731 50.9157 19.801C50.7965 19.4518 50.5714 18.9416 50.1558 18.3875C50.1526 18.3832 50.1493 18.3788 50.1458 18.3745L50.0893 18.301L50.088 18.302C50.045 18.2497 49.9963 18.1962 49.9429 18.142C49.9598 18.1572 49.9758 18.1724 49.9909 18.1878C49.9722 18.1688 49.9531 18.1504 49.9337 18.1328C49.8617 18.0602 49.7794 17.9865 49.6938 17.9131C50.8875 17.1693 52.2729 16.7669 53.694 16.7669C55.1759 16.7669 56.6196 17.204 57.8469 18.0102C57.7774 18.0714 57.7108 18.1324 57.651 18.1928C57.633 18.2092 57.6153 18.2262 57.5981 18.2437C57.6128 18.2287 57.6283 18.214 57.6448 18.1992C57.5917 18.253 57.5433 18.3064 57.5004 18.3583L57.4991 18.3573L57.4426 18.4308C57.4391 18.4354 57.4357 18.4399 57.4322 18.4445C57.0335 18.9762 56.8102 19.4673 56.6874 19.8148C56.6269 19.9396 56.5857 20.0752 56.5686 20.2185C56.5606 20.2537 56.5551 20.2813 56.5519 20.2991L56.562 20.3009C56.5607 20.3246 56.5584 20.3479 56.5584 20.3718C56.5584 21.0785 57.1313 21.6512 57.8378 21.6512H57.8641C58.4872 21.6512 59.0055 21.2056 59.1195 20.6159C59.1758 20.4708 59.2822 20.2449 59.4705 19.9913C59.7367 19.7498 61.0212 18.6718 62.2663 19.1002C62.5794 19.2081 62.8994 19.2806 63.2222 19.3176C63.1271 19.6367 62.9799 19.9056 62.7812 20.1223C62.1262 20.8364 61.0483 20.8731 61.0493 20.8733V20.8748C61.0398 20.8745 61.0305 20.8734 61.0209 20.8734C61.0184 20.8734 61.0158 20.8734 61.0134 20.8734C60.3068 20.8774 59.7374 21.4535 59.7413 22.1599C59.7566 24.9634 59.3258 27.9787 58.8378 28.4862C58.475 28.8489 58.1058 29.1442 57.7487 29.4297C57.1452 29.9122 56.5317 30.4029 56.0679 31.1225H51.3197C50.856 30.4029 50.2424 29.9122 49.6389 29.4297C49.2818 29.1441 48.9124 28.8488 48.5501 28.4866C48.0937 28.0122 47.688 25.3489 47.6491 22.7149C47.7493 22.5341 47.8071 22.3264 47.8087 22.1051C47.8138 21.3982 47.2452 20.8214 46.5386 20.8163Z" fill="#ABABAB"/>
</svg>
