<svg width="66" height="55" viewBox="0 0 66 55" fill="none" xmlns="http://www.w3.org/2000/svg">
<path d="M65.1349 9.87353L56.3059 1.08713C55.8069 0.590421 54.9999 0.590421 54.5009 1.08713L46.5647 8.98502L38.6286 1.08713C38.1296 0.590421 37.3226 0.590421 36.8235 1.08713L27.9945 9.87353C27.7532 10.1137 27.6176 10.4401 27.6176 10.7805V20.5051H11.7526C11.3561 20.5051 10.9822 20.6889 10.7398 21.0026L0.416998 34.3707C0.389616 34.4063 0.36441 34.4428 0.34125 34.4801C0.130128 34.7084 0 35.0127 0 35.348V53.5177C0 54.2244 0.572973 54.7973 1.27953 54.7973H64.2323C64.9389 54.7973 65.5118 54.2244 65.5118 53.5177V10.7805C65.5118 10.4401 65.3762 10.1137 65.1349 9.87353ZM30.1764 17.9459H37.6378C38.3444 17.9459 38.9174 17.3731 38.9174 16.6664C38.9174 15.9597 38.3444 15.3869 37.6378 15.3869H30.1764V11.3122L37.7257 3.79935L45.2751 11.3122V20.5051H30.1764V17.9459ZM35.0598 52.2382H2.55906V49.2952H22.9408C23.6473 49.2952 24.2203 48.7223 24.2203 48.0156C24.2203 47.3089 23.6473 46.7361 22.9408 46.7361H2.55906V44.305H7.86743C8.57399 44.305 9.14696 43.7322 9.14696 43.0255C9.14696 42.3188 8.57399 41.7459 7.86743 41.7459H2.55906V36.6277H35.0598V52.2382ZM3.88375 34.0684L12.3812 23.0642H44.2243L35.7116 34.0684H3.88375ZM45.4003 45.3092L43.7435 48.4092V42.2093L45.4003 45.3092ZM44.5987 38.3801H49.1038L46.8513 42.5947L44.5987 38.3801ZM46.5744 52.2382H44.5989L46.8513 48.0237L49.1038 52.2382H46.5744ZM49.959 48.4092L48.3022 45.3092L49.959 42.2091V48.4092ZM56.0446 52.2382H52.518V37.1006C52.518 36.3939 51.945 35.8211 51.2384 35.8211H42.4638C41.7573 35.8211 41.1843 36.3939 41.1843 37.1006V52.2382H37.6189V35.7851L46.8283 23.8804L56.0446 35.8382V52.2382ZM62.9528 14.4912H58.7745C58.0679 14.4912 57.495 15.0641 57.495 15.7707C57.495 16.4774 58.0679 17.0503 58.7745 17.0503H62.9528V20.761H55.7814C55.0749 20.761 54.5019 21.3339 54.5019 22.0406C54.5019 22.7472 55.0749 23.3201 55.7814 23.3201H62.9528V52.2381H58.6038V35.4024C58.6038 35.1199 58.5103 34.8452 58.3378 34.6214L47.9451 21.1372C47.9318 21.1201 47.9172 21.1047 47.9034 21.0883C47.8879 21.0645 47.871 21.0421 47.854 21.0195V11.3124L55.4033 3.79948L62.9528 11.3122V14.4912Z" fill="#ABABAB"/>
</svg>
