<svg width="65" height="66" viewBox="0 0 65 66" fill="none" xmlns="http://www.w3.org/2000/svg">
<g clip-path="url(#clip0_22_2501)">
<path d="M22.2741 31.4763C18.5052 31.4763 15.439 34.5758 15.439 38.3858C15.439 42.1957 18.5052 45.2952 22.2741 45.2952C26.0431 45.2952 29.1093 42.1957 29.1093 38.3858C29.1093 34.5758 26.0431 31.4763 22.2741 31.4763ZM22.2741 42.7362C19.9011 42.7362 17.9705 40.7846 17.9705 38.3858C17.9705 35.9869 19.9012 34.0354 22.2741 34.0354C24.6472 34.0354 26.5777 35.9869 26.5777 38.3858C26.5777 40.7846 24.6472 42.7362 22.2741 42.7362Z" fill="#ABABAB"/>
<path d="M63.8794 22.0761L49.613 18.0177V13.3073C49.613 12.6007 49.0463 12.0278 48.3473 12.0278H47.841V6.90688C47.841 5.49607 46.7054 4.34821 45.3098 4.34821H44.9851C44.286 4.34821 43.7194 4.92105 43.7194 5.62774C43.7194 6.33442 44.286 6.90727 44.9851 6.90727L45.3094 6.90688V12.0278H44.8031C44.104 12.0278 43.5373 12.6007 43.5373 13.3073V16.2893L39.7659 15.2164L36.0255 0.951957C35.8783 0.390884 35.3762 0.000244141 34.802 0.000244141H10.3742C9.67508 0.000244141 9.1084 0.573089 9.1084 1.27977V28.8421C9.1084 29.3863 9.44889 29.871 9.95722 30.0502C10.4656 30.2292 11.0303 30.0642 11.3653 29.6381C14.0262 26.2528 18.0017 24.3113 22.2724 24.3113C29.9498 24.3113 36.1959 30.6252 36.1959 38.3861C36.1959 39.0928 36.7626 39.6656 37.4616 39.6656H45.6259C46.1296 39.6656 46.5854 39.3637 46.7864 38.8966L49.43 32.7562H63.5365C64.2356 32.7562 64.8023 32.1833 64.8023 31.4766V23.3077C64.8023 22.7346 64.4252 22.2314 63.8794 22.0761ZM49.613 20.6761L60.5924 23.7995H49.613V20.6761ZM46.0689 14.5869H47.0815V23.7995H46.0689V14.5869ZM37.0489 14.8428H30.4246L35.661 9.54949L37.0489 14.8428ZM22.4834 2.5593H33.828L34.9107 6.68872L27.3371 14.3447C27.1938 14.4895 27.0935 14.6608 27.0332 14.8428H24.7356L28.661 10.8747C29.1553 10.375 29.1553 9.56485 28.661 9.06506C28.1667 8.56541 27.3652 8.56541 26.8708 9.06506L22.4834 13.5002V2.5593ZM11.6399 2.5593H19.9519V14.8428H11.6399V2.5593ZM62.2707 30.1971H48.6004C48.0966 30.1971 47.6408 30.4991 47.4398 30.9661L44.7963 37.1066H38.6792C38.0307 28.5301 30.9199 21.7522 22.2724 21.7522C18.3216 21.7522 14.585 23.1575 11.6399 25.6868V17.4018H38.181C38.2463 17.4334 38.3135 17.4617 38.3845 17.4819L43.5373 18.9478V25.079C43.5373 25.7857 44.104 26.3585 44.8031 26.3585H48.3473H62.2286C62.2429 26.3585 62.2567 26.3569 62.2707 26.3564V30.1971Z" fill="#ABABAB"/>
<path d="M55.6923 38.6418C53.5985 38.6418 51.895 40.3638 51.895 42.4804C51.895 44.597 53.5985 46.319 55.6923 46.319C57.7862 46.319 59.4896 44.597 59.4896 42.4804C59.4896 40.3638 57.7862 38.6418 55.6923 38.6418ZM55.6923 43.76C54.9944 43.76 54.4266 43.186 54.4266 42.4804C54.4266 41.7749 54.9944 41.2009 55.6923 41.2009C56.3903 41.2009 56.9581 41.7749 56.9581 42.4804C56.9581 43.186 56.3903 43.76 55.6923 43.76Z" fill="#ABABAB"/>
<path d="M63.5365 49.134H61.9848C62.5281 48.6084 63.0104 48.0181 63.4094 47.3762C63.7129 46.8879 63.6549 46.2574 63.2742 45.8346C63.3179 45.734 63.3595 45.6328 63.3992 45.5308C63.9645 45.5042 64.4468 45.0998 64.5738 44.5374C64.7254 43.8655 64.8023 43.1736 64.8023 42.4805C64.8023 41.7873 64.7254 41.0954 64.5738 40.4235C64.4468 39.8611 63.9645 39.4567 63.3992 39.4299C63.3595 39.328 63.3179 39.2267 63.2742 39.1262C63.655 38.7033 63.7129 38.0729 63.4094 37.5846C62.6829 36.416 61.6878 35.41 60.5318 34.6757C60.0489 34.369 59.425 34.4277 59.0068 34.8124C58.9073 34.7682 58.8072 34.7261 58.7063 34.6861C58.68 34.1148 58.2798 33.627 57.7235 33.4987C56.3943 33.1921 54.9831 33.1921 53.6539 33.4987C53.0976 33.627 52.6975 34.1146 52.671 34.6861C52.5701 34.7261 52.47 34.7682 52.3705 34.8124C51.9522 34.4275 51.3284 34.3689 50.8455 34.6757C49.6895 35.4102 48.6943 36.416 47.9679 37.5846C47.6644 38.0729 47.7225 38.7034 48.1031 39.1262C48.0594 39.2267 48.0178 39.328 47.9782 39.4299C47.413 39.4565 46.9305 39.8611 46.8035 40.4235C46.6521 41.0954 46.5752 41.7873 46.5752 42.4805C46.5752 43.1736 46.652 43.8655 46.8037 44.5374C46.9306 45.0998 47.413 45.5042 47.9783 45.531C48.0179 45.633 48.0596 45.7342 48.1032 45.8347C47.7225 46.2576 47.6645 46.888 47.968 47.3763C48.3671 48.0181 48.8495 48.6085 49.3927 49.1341H30.0309C31.3761 48.1387 32.5391 46.8823 33.4248 45.4573C33.739 44.9519 33.6657 44.2939 33.2481 43.8717L32.9899 43.6107C33.1864 43.2004 33.3592 42.7805 33.5074 42.3525H33.872C34.4627 42.3525 34.9747 41.9396 35.1062 41.3577C35.3254 40.3874 35.4364 39.3876 35.4364 38.386C35.4364 37.3843 35.3254 36.3845 35.1063 35.4143C34.9749 34.8323 34.4628 34.4194 33.8722 34.4194H33.5075C33.3593 33.9916 33.1864 33.5715 32.9901 33.1613L33.2483 32.9004C33.6659 32.4783 33.7391 31.8202 33.425 31.3148C32.3754 29.6264 30.9379 28.1733 29.2677 27.1123C28.7674 26.7946 28.1167 26.8688 27.6991 27.2909L27.4409 27.5519C27.0351 27.3534 26.6197 27.1787 26.1963 27.0289V26.6602C26.1963 26.0632 25.7878 25.5456 25.2122 25.4127C23.2924 24.9699 21.2524 24.9699 19.3327 25.4127C18.757 25.5455 18.3485 26.0632 18.3485 26.6602V27.0289C17.9251 27.1787 17.5097 27.3534 17.1039 27.5519L16.8457 27.2909C16.4281 26.8688 15.7771 26.7947 15.2771 27.1123C13.6069 28.1733 12.1694 29.6264 11.1198 31.3148C10.8055 31.8202 10.879 32.4783 11.2965 32.9004L11.5548 33.1613C11.3584 33.5715 11.1855 33.9916 11.0373 34.4194H10.6726C10.082 34.4194 9.57002 34.8323 9.43851 35.4143C9.21953 36.3845 9.1084 37.3843 9.1084 38.386C9.1084 39.3876 9.21941 40.3874 9.43851 41.3577C9.5699 41.9396 10.082 42.3525 10.6726 42.3525H11.0373C11.1855 42.7804 11.3584 43.2004 11.5548 43.6107L11.2965 43.8716C10.879 44.2937 10.8057 44.9517 11.1198 45.4571C12.0056 46.882 13.1686 48.1385 14.5137 49.134H13.1165C12.4174 49.134 11.8507 49.7068 11.8507 50.4135C11.8507 51.1202 12.4174 51.6931 13.1165 51.6931H63.5365C64.2356 51.6931 64.8023 51.1202 64.8023 50.4135C64.8023 49.7068 64.2356 49.134 63.5365 49.134ZM28.7409 46.9152L28.5669 46.7392C28.1585 46.3265 27.5252 46.2455 27.028 46.5424C26.2684 46.9962 25.4566 47.3372 24.6151 47.5561C24.0557 47.7017 23.6649 48.2115 23.6649 48.7953V49.0424C22.7439 49.1642 21.8012 49.1642 20.8802 49.0424V48.7953C20.8802 48.2115 20.4893 47.7017 19.93 47.5561C19.0885 47.3372 18.2765 46.9962 17.517 46.5424C17.0197 46.2455 16.3866 46.3265 15.9781 46.7392L15.8042 46.9152C15.0669 46.3418 14.4024 45.6701 13.8352 44.9247L14.0092 44.7489C14.4173 44.336 14.4974 43.696 14.2036 43.1933C13.7548 42.4254 13.4175 41.6047 13.2009 40.7541C13.0568 40.1887 12.5526 39.7936 11.975 39.7936H11.7306C11.6703 39.328 11.6399 38.8573 11.6399 38.386C11.6399 37.9146 11.6703 37.444 11.7306 36.9785H11.975C12.5526 36.9785 13.0568 36.5834 13.2009 36.0179C13.4175 35.1673 13.7548 34.3465 14.2036 33.5788C14.4974 33.076 14.4173 32.436 14.009 32.0231L13.8349 31.8473C14.4021 31.102 15.0668 30.4302 15.8041 29.8569L15.978 30.0327C16.3864 30.4456 17.0196 30.5266 17.5168 30.2296C18.2765 29.7759 19.0884 29.4349 19.9298 29.216C20.4892 29.0704 20.8801 28.5606 20.8801 27.9767V27.7297C21.801 27.6079 22.7438 27.6079 23.6648 27.7297V27.9767C23.6648 28.5606 24.0556 29.0704 24.615 29.216C25.4564 29.4349 26.2683 29.7759 27.028 30.2296C27.5252 30.5266 28.1585 30.4456 28.5668 30.0327L28.7407 29.8569C29.4781 30.4302 30.1427 31.102 30.7099 31.8473L30.5359 32.0231C30.1274 32.436 30.0474 33.076 30.3412 33.5788C30.79 34.3466 31.1273 35.1673 31.3439 36.0179C31.488 36.5834 31.9922 36.9785 32.5698 36.9785H32.8142C32.8745 37.444 32.9049 37.9146 32.9049 38.386C32.9049 38.8573 32.8745 39.328 32.8142 39.7934H32.5698C31.9922 39.7934 31.488 40.1886 31.3439 40.754C31.1273 41.6046 30.79 42.4253 30.3412 43.1933C30.0474 43.696 30.1275 44.3359 30.536 44.7488L30.7099 44.9246C30.1427 45.6699 29.4782 46.3418 28.7409 46.9152ZM61.2548 43.9337C61.122 44.4552 60.9151 44.9584 60.6398 45.4295C60.3855 45.8646 60.4112 46.4026 60.6876 46.8072C60.4669 47.0672 60.2261 47.3104 59.9691 47.5336C59.5688 47.2541 59.0367 47.228 58.6062 47.4852C58.1401 47.7636 57.6423 47.9728 57.1265 48.1069C56.6427 48.2328 56.285 48.6311 56.1972 49.1143C55.8592 49.1404 55.5185 49.1404 55.1805 49.1143C55.0927 48.6313 54.7348 48.2328 54.2512 48.1069C53.7354 47.9727 53.2376 47.7635 52.7715 47.4852C52.341 47.228 51.8089 47.2541 51.4087 47.5336C51.1514 47.3104 50.9108 47.0671 50.6901 46.8072C50.9665 46.4026 50.9922 45.8646 50.7379 45.4295C50.4625 44.9584 50.2555 44.4552 50.1229 43.9337C49.9983 43.4447 49.6043 43.0831 49.1263 42.9943C49.1133 42.8235 49.1067 42.652 49.1067 42.4805C49.1067 42.3089 49.1132 42.1374 49.1261 41.9666C49.6039 41.8778 49.9981 41.5161 50.1226 41.0272C50.2554 40.5058 50.4624 40.0025 50.7377 39.5314C50.992 39.0964 50.9663 38.5583 50.6898 38.1537C50.9106 37.8937 51.1513 37.6505 51.4084 37.4273C51.8086 37.7068 52.3408 37.7328 52.7713 37.4757C53.2373 37.1973 53.7351 36.9881 54.2509 36.854C54.7347 36.7281 55.0924 36.3298 55.1803 35.8466C55.5182 35.8205 55.859 35.8205 56.1969 35.8466C56.2848 36.3296 56.6426 36.7281 57.1263 36.854C57.6421 36.9882 58.1399 37.1974 58.6059 37.4757C59.0364 37.7328 59.5686 37.7068 59.9688 37.4273C60.226 37.6505 60.4666 37.8939 60.6874 38.1537C60.4109 38.5583 60.3852 39.0964 60.6395 39.5314C60.915 40.0025 61.1219 40.5058 61.2546 41.0272C61.3791 41.5162 61.7732 41.8778 62.2511 41.9666C62.264 42.1374 62.2705 42.3089 62.2705 42.4805C62.2705 42.652 62.2643 42.8235 62.2514 42.9943C61.7735 43.0831 61.3794 43.4448 61.2548 43.9337Z" fill="#ABABAB"/>
<path d="M63.5401 56.0435H46.5788C45.8797 56.0435 45.313 56.6163 45.313 57.323C45.313 58.0297 45.8797 58.6025 46.5788 58.6025H63.5401C64.2392 58.6025 64.8058 58.0297 64.8058 57.323C64.8058 56.6163 64.2392 56.0435 63.5401 56.0435Z" fill="#ABABAB"/>
<path d="M42.2104 56.0435H42.194C41.4949 56.0435 40.9282 56.6163 40.9282 57.323C40.9282 58.0297 41.4949 58.6025 42.194 58.6025H42.2104C42.9095 58.6025 43.4762 58.0297 43.4762 57.323C43.4762 56.6163 42.9095 56.0435 42.2104 56.0435Z" fill="#ABABAB"/>
<path d="M37.891 56.0435H1.2604C0.561314 56.0435 -0.00537109 56.6163 -0.00537109 57.323C-0.00537109 58.0297 0.561314 58.6025 1.2604 58.6025H37.891C38.5901 58.6025 39.1568 58.0297 39.1568 57.323C39.1568 56.6163 38.5901 56.0435 37.891 56.0435Z" fill="#ABABAB"/>
<path d="M13.6649 62.9529H1.2604C0.561314 62.9529 -0.00537109 63.5257 -0.00537109 64.2324C-0.00537109 64.9391 0.561314 65.5119 1.2604 65.5119H13.6649C14.364 65.5119 14.9307 64.9391 14.9307 64.2324C14.9307 63.5257 14.364 62.9529 13.6649 62.9529Z" fill="#ABABAB"/>
<path d="M18.0527 62.9529H18.0363C17.3372 62.9529 16.7705 63.5257 16.7705 64.2324C16.7705 64.9391 17.3372 65.5119 18.0363 65.5119H18.0527C18.7518 65.5119 19.3185 64.9391 19.3185 64.2324C19.3185 63.5257 18.7518 62.9529 18.0527 62.9529Z" fill="#ABABAB"/>
<path d="M63.5425 62.9529H22.3551C21.656 62.9529 21.0894 63.5257 21.0894 64.2324C21.0894 64.9391 21.656 65.5119 22.3551 65.5119H63.5425C64.2416 65.5119 64.8083 64.9391 64.8083 64.2324C64.8083 63.5257 64.2416 62.9529 63.5425 62.9529Z" fill="#ABABAB"/>
<path d="M4.43254 49.134H1.2604C0.561314 49.134 -0.00537109 49.7069 -0.00537109 50.4136C-0.00537109 51.1202 0.561314 51.6931 1.2604 51.6931H4.43254C5.13163 51.6931 5.69831 51.1202 5.69831 50.4136C5.69831 49.7069 5.13163 49.134 4.43254 49.134Z" fill="#ABABAB"/>
<path d="M8.82568 49.134H8.80923C8.11014 49.134 7.54346 49.7069 7.54346 50.4136C7.54346 51.1202 8.11014 51.6931 8.80923 51.6931H8.82568C9.52477 51.6931 10.0915 51.1202 10.0915 50.4136C10.0915 49.7069 9.52477 49.134 8.82568 49.134Z" fill="#ABABAB"/>
<path d="M4.43254 42.2244H1.2604C0.561314 42.2244 -0.00537109 42.7972 -0.00537109 43.5039C-0.00537109 44.2106 0.561314 44.7834 1.2604 44.7834H4.43254C5.13163 44.7834 5.69831 44.2106 5.69831 43.5039C5.69831 42.7972 5.13163 42.2244 4.43254 42.2244Z" fill="#ABABAB"/>
<path d="M8.82568 42.2244H8.80923C8.11014 42.2244 7.54346 42.7972 7.54346 43.5039C7.54346 44.2106 8.11014 44.7834 8.80923 44.7834H8.82568C9.52477 44.7834 10.0915 44.2106 10.0915 43.5039C10.0915 42.7972 9.52477 42.2244 8.82568 42.2244Z" fill="#ABABAB"/>
<path d="M31.575 6.12621C31.0807 5.62655 30.2792 5.62655 29.7848 6.12621L29.7731 6.13811C29.2788 6.63776 29.2788 7.44796 29.7731 7.94774C30.0203 8.19751 30.3443 8.32252 30.6682 8.32252C30.9921 8.32252 31.3162 8.19763 31.5632 7.94774L31.575 7.93584C32.0693 7.43619 32.0693 6.62599 31.575 6.12621Z" fill="#ABABAB"/>
</g>
<defs>
<clipPath id="clip0_22_2501">
<rect width="64.8074" height="65.5118" fill="white"/>
</clipPath>
</defs>
</svg>
