<svg width="67" height="66" viewBox="0 0 67 66" fill="none" xmlns="http://www.w3.org/2000/svg">
<g clip-path="url(#clip0_22_2550)">
<path d="M9.47668 57.9751L9.4649 57.9661C8.90396 57.5366 8.10093 57.6428 7.67101 58.2039C7.24134 58.7648 7.3478 59.568 7.90861 59.9978L7.92039 60.0067C8.15249 60.1846 8.42605 60.2706 8.69757 60.2706C9.08207 60.2706 9.46234 60.0978 9.71416 59.769C10.1441 59.2079 10.0376 58.4049 9.47668 57.9751Z" fill="#ABABAB"/>
<path d="M9.47668 47.4829L9.4649 47.474C8.90396 47.0444 8.10093 47.1506 7.67101 47.7117C7.24134 48.2726 7.3478 49.0758 7.90861 49.5056L7.92039 49.5145C8.15249 49.6924 8.42605 49.7784 8.69757 49.7784C9.08207 49.7784 9.46234 49.6056 9.71416 49.2768C10.1441 48.7157 10.0376 47.9127 9.47668 47.4829Z" fill="#ABABAB"/>
<path d="M9.47668 36.991L9.4649 36.982C8.90396 36.5525 8.10093 36.6587 7.67101 37.2198C7.24134 37.7807 7.3478 38.5839 7.90861 39.0136L7.92039 39.0226C8.15249 39.2005 8.42605 39.2864 8.69757 39.2864C9.08207 39.2864 9.46234 39.1137 9.71416 38.7849C10.1441 38.2238 10.0376 37.4208 9.47668 36.991Z" fill="#ABABAB"/>
<path d="M58.5985 57.9712L58.5866 57.9622C58.0234 57.5354 57.2209 57.6459 56.794 58.2092C56.3672 58.7723 56.4777 59.575 57.041 60.0018L57.0529 60.0108C57.2841 60.1859 57.5555 60.2706 57.8247 60.2706C58.2115 60.2706 58.5938 60.096 58.8455 59.7639C59.2723 59.2007 59.1617 58.3981 58.5985 57.9712Z" fill="#ABABAB"/>
<path d="M58.5985 47.479L58.5866 47.4701C58.0233 47.0432 57.2208 47.1538 56.7939 47.717C56.3672 48.28 56.4778 49.0826 57.0409 49.5095L57.0528 49.5185C57.284 49.6936 57.5554 49.7783 57.8246 49.7783C58.2114 49.7783 58.5937 49.6037 58.8454 49.2716C59.2723 48.7085 59.1617 47.9059 58.5985 47.479Z" fill="#ABABAB"/>
<path d="M58.5985 36.9871L58.5866 36.9781C58.0234 36.5513 57.2208 36.6618 56.794 37.2251C56.3671 37.7883 56.4778 38.5907 57.0409 39.0176L57.0528 39.0265C57.2841 39.2017 57.5554 39.2864 57.8247 39.2864C58.2115 39.2864 58.5938 39.1117 58.8455 38.7797C59.2723 38.2166 59.1618 37.4139 58.5985 36.9871Z" fill="#ABABAB"/>
<path d="M47.7756 41.9685H47.759C47.0525 41.9685 46.4795 42.5414 46.4795 43.248C46.4795 43.9547 47.0523 44.5276 47.759 44.5276H47.7756C48.4822 44.5276 49.0552 43.9547 49.0552 43.248C49.0552 42.5414 48.4822 41.9685 47.7756 41.9685Z" fill="#ABABAB"/>
<path d="M18.7571 52.4609H18.7405C18.0339 52.4609 17.4609 53.0338 17.4609 53.7405C17.4609 54.4471 18.0339 55.02 18.7405 55.02H18.7571C19.4637 55.02 20.0366 54.4471 20.0366 53.7405C20.0366 53.0338 19.4638 52.4609 18.7571 52.4609Z" fill="#ABABAB"/>
<path d="M10.8385 23.6955C10.6005 23.4575 10.2703 23.3206 9.93383 23.3206C9.59731 23.3206 9.26719 23.4575 9.0292 23.6955C8.79133 23.9335 8.6543 24.2636 8.6543 24.6014C8.6543 24.9379 8.79121 25.2667 9.0292 25.5047C9.26719 25.744 9.59616 25.8796 9.93383 25.8796C10.2703 25.8796 10.6005 25.744 10.8385 25.5047C11.0763 25.2667 11.2134 24.9379 11.2134 24.6014C11.2134 24.2636 11.0764 23.9347 10.8385 23.6955Z" fill="#ABABAB"/>
<path d="M64.7323 31.4766H59.4179C61.7047 30.1613 63.249 27.6949 63.249 24.8729C63.249 21.9433 61.5868 19.3355 59.0547 18.0665C59.4915 17.0954 59.7181 16.0407 59.7181 14.9511C59.7181 10.7525 56.3023 7.33655 52.1035 7.33655C50.7797 7.33655 49.5084 7.6705 48.3753 8.30963C46.8888 7.26195 45.1111 6.69397 43.2759 6.69397C43.1514 6.69397 43.0279 6.69832 42.9046 6.70344C41.5528 2.76275 37.7833 0.00638588 33.5378 0.00638588C29.7095 0.00638588 26.2453 2.22368 24.6131 5.62121C24.3069 5.59281 23.9993 5.57847 23.692 5.57847C19.6685 5.57847 16.095 8.00817 14.5693 11.6312C14.2986 11.5485 14.0231 11.4763 13.7435 11.4138C13.8901 9.7784 14.4089 8.52472 15.2939 7.68176C16.0648 6.94744 16.8392 6.79531 16.8718 6.78916L16.854 6.79211L16.8538 6.7907C17.1243 6.75091 17.3803 6.62615 17.5747 6.4309C17.8125 6.1929 17.9496 5.86407 17.9496 5.52755C17.9496 5.18975 17.8127 4.86092 17.5747 4.62164C17.3367 4.38365 17.0066 4.24674 16.67 4.24674C16.5983 4.24674 16.527 4.25429 16.4566 4.26632L16.4562 4.26414C15.6964 4.38378 14.6573 4.80961 13.699 5.67482V1.27977C13.699 0.573089 13.126 0.000244141 12.4194 0.000244141H9.34858C8.64202 0.000244141 8.06905 0.573089 8.06905 1.27977V6.06406C6.59708 4.26005 5.00803 3.20546 4.88482 3.12498C4.2938 2.73946 3.50331 2.90605 3.11676 3.49617C2.73009 4.08642 2.89528 4.87909 3.48463 5.26691C3.52698 5.29468 7.39819 7.887 7.97334 11.6162C3.64354 12.9168 0.5 16.7223 0.5 21.2038C0.5 23.0658 1.56188 27.5367 2.60406 31.4766H1.77953C1.07297 31.4766 0.5 32.0495 0.5 32.7562V64.2326C0.5 64.9392 1.07297 65.5121 1.77953 65.5121H64.7323C65.4389 65.5121 66.0118 64.9392 66.0118 64.2326V32.7562C66.0118 32.0495 65.4389 31.4766 64.7323 31.4766ZM23.692 8.13753C24.1842 8.13753 24.6771 8.18679 25.1573 8.28404C25.7822 8.41045 26.4047 8.05795 26.6173 7.45682C27.6529 4.53118 30.4339 2.56544 33.5378 2.56544C36.5626 2.56544 39.262 4.45134 40.3577 7.18991C36.9016 8.39919 34.4149 11.691 34.4149 15.5547C34.4149 16.2614 34.9879 16.8342 35.6944 16.8342C36.401 16.8342 36.974 16.2614 36.974 15.5547C36.974 12.0799 39.801 9.25302 43.2758 9.25302C44.8167 9.25302 46.3007 9.8164 47.4541 10.8395C47.9089 11.2429 48.5852 11.2705 49.0714 10.9055C49.9513 10.2448 50.9998 9.8956 52.1032 9.8956C54.8908 9.8956 57.1588 12.1636 57.1588 14.9511C57.1588 16.0471 56.814 17.0898 56.1613 17.9662C55.9061 18.309 55.8388 18.7567 55.9823 19.1594C56.1257 19.5621 56.4604 19.8666 56.875 19.9711C59.1211 20.5374 60.6898 22.5531 60.6898 24.8729C60.6898 27.6604 58.4218 29.9284 55.6342 29.9284C55.3166 29.9284 54.9942 29.8974 54.6757 29.8364C54.0555 29.7172 53.4415 30.0688 53.2294 30.6635C53.1292 30.9446 53.0024 31.2168 52.8533 31.4766H51.238L56.4776 23.9658C56.6745 23.6835 56.7493 23.3337 56.6852 22.9955C56.6211 22.6574 56.4234 22.3592 56.137 22.1686L52.4065 19.686C52.1159 19.4926 51.7587 19.4262 51.4182 19.5026C51.0776 19.5788 50.7828 19.7908 50.6024 20.0897L48.7369 23.1785L50.2639 15.4541C50.4001 14.7646 49.9548 14.0942 49.2664 13.9527L46.0106 13.2832C45.6743 13.2138 45.3239 13.2829 45.0388 13.4746C44.7538 13.6662 44.5577 13.9645 44.4949 14.3022L44.0771 16.5458H41.0911C40.3846 16.5458 39.8116 17.1187 39.8116 17.8253V25.1883C38.9612 20.8342 35.1192 17.5375 30.52 17.5375C28.4476 17.5375 26.4792 18.195 24.8278 19.4391C23.466 20.4649 22.3964 21.8611 21.7528 23.4308C21.9158 22.4699 21.9962 21.7329 21.9962 21.2039C21.9962 19.4688 21.525 17.8347 20.6962 16.408C21.3685 14.5789 23.1162 13.3364 25.093 13.3364C25.4072 13.3364 25.7219 13.368 26.0288 13.4302C26.6541 13.5574 27.2775 13.2038 27.4897 12.6021C27.7643 11.8244 28.2421 11.1287 28.8716 10.5903C29.4085 10.1309 29.4715 9.32314 29.0121 8.78612C28.5529 8.24911 27.7452 8.18628 27.208 8.6455C26.505 9.24688 25.9246 9.97596 25.4969 10.7886C25.3624 10.781 25.2276 10.7773 25.0932 10.7773C22.5464 10.7773 20.2458 12.1106 18.9479 14.1901C18.3401 13.605 17.6578 13.0887 16.9146 12.6549C18.038 9.95229 20.6968 8.13753 23.692 8.13753ZM47.2824 30.5368L52.1018 22.557L53.6305 23.5744L48.118 31.4766H47.0966L47.2824 30.5368ZM45.6818 25.4369V21.884C45.6886 21.8571 45.696 21.8305 45.7011 21.8029L46.772 16.0522L47.507 16.2034L45.6818 25.4369ZM42.3614 29.257C42.3669 29.2085 42.3706 29.1594 42.3706 29.1095V19.1048H43.1229V31.4766H42.7191C42.7225 31.3965 42.7244 31.3163 42.7244 31.2358C42.7244 30.5384 42.5949 29.8715 42.3614 29.257ZM24.811 23.2877C24.7732 23.2877 24.7359 23.2901 24.6981 23.2905C25.949 21.3481 28.1411 20.0964 30.5199 20.0964C33.9007 20.0964 36.7202 22.5379 37.3129 25.7499C35.5424 25.7624 33.9735 26.6533 33.0026 28.0164C31.3621 25.1922 28.3058 23.2877 24.811 23.2877ZM31.5998 31.4766H18.2236H18.0224C18.6244 28.2763 21.4386 25.8467 24.8112 25.8467C28.1837 25.8467 30.9978 28.2763 31.5998 31.4766ZM37.3504 28.308C38.9026 28.308 40.1654 29.6214 40.1654 31.2358C40.1654 31.3166 40.1615 31.3968 40.1553 31.4766H34.5454C34.5392 31.3968 34.5353 31.3166 34.5353 31.2358C34.5354 29.6214 35.7982 28.308 37.3504 28.308ZM10.6281 2.5593H11.1399V11.1394C10.9683 11.1411 10.7976 11.1457 10.6281 11.1548V2.5593ZM3.13544 20.1925C3.21529 20.2081 3.29769 20.2168 3.38201 20.2168H9.70774C10.4143 20.2168 10.9873 19.6439 10.9873 18.9373C10.9873 18.2306 10.4143 17.6577 9.70774 17.6577H4.03227C5.41544 15.3015 8.13072 13.6959 11.248 13.6959C15.7635 13.6959 19.437 17.0639 19.437 21.2038C19.437 21.5376 19.3837 22.1536 19.1803 23.2877H14.0982C13.3916 23.2877 12.8187 23.8605 12.8187 24.5672C12.8187 25.2739 13.3916 25.8467 14.0982 25.8467H18.347C16.7945 27.3001 15.7314 29.2682 15.4315 31.4766H5.2523C3.85441 26.258 3.05906 22.5394 3.05906 21.2038C3.05906 20.8608 3.08657 20.5236 3.13544 20.1925ZM63.4528 41.9688H52.1929C51.4864 41.9688 50.9134 42.5416 50.9134 43.2483C50.9134 43.955 51.4864 44.5278 52.1929 44.5278H63.4528V52.4609H23.0972C22.3907 52.4609 21.8177 53.0337 21.8177 53.7404C21.8177 54.4471 22.3907 55.02 23.0972 55.02H63.4528V62.953H3.05906V55.02H14.3189C15.0255 55.02 15.5984 54.4471 15.5984 53.7404C15.5984 53.0337 15.0255 52.4609 14.3189 52.4609H3.05906V44.5278H43.4146C44.1212 44.5278 44.6941 43.955 44.6941 43.2483C44.6941 42.5416 44.1212 41.9688 43.4146 41.9688H3.05906V34.0357H4.27243H63.4528V41.9688Z" fill="#ABABAB"/>
<path d="M31.9038 6.90942H31.8869C31.1804 6.90942 30.6074 7.48227 30.6074 8.18895C30.6074 8.89564 31.1804 9.46848 31.8869 9.46848H31.9038C32.6104 9.46848 33.1834 8.89564 33.1834 8.18895C33.1834 7.48227 32.6104 6.90942 31.9038 6.90942Z" fill="#ABABAB"/>
</g>
<defs>
<clipPath id="clip0_22_2550">
<rect width="65.5118" height="65.5118" fill="white" transform="translate(0.5)"/>
</clipPath>
</defs>
</svg>
