<svg width="426" height="183" viewBox="0 0 426 183" fill="none" xmlns="http://www.w3.org/2000/svg">
<rect width="426" height="153" rx="5" fill="#449856"/>
<path d="M33.824 89.52H28.96L28.064 92H26.528L30.56 80.912H32.24L36.256 92H34.72L33.824 89.52ZM33.408 88.336L31.392 82.704L29.376 88.336H33.408ZM39.7893 84.432V89.6C39.7893 90.0267 39.8799 90.3307 40.0613 90.512C40.2426 90.6827 40.5573 90.768 41.0052 90.768H42.0773V92H40.7653C39.9546 92 39.3466 91.8133 38.9413 91.44C38.5359 91.0667 38.3333 90.4533 38.3333 89.6V84.432H37.1973V83.232H38.3333V81.024H39.7893V83.232H42.0773V84.432H39.7893ZM49.883 84.432V89.6C49.883 90.0267 49.9737 90.3307 50.155 90.512C50.3363 90.6827 50.651 90.768 51.099 90.768H52.171V92H50.859C50.0483 92 49.4403 91.8133 49.035 91.44C48.6297 91.0667 48.427 90.4533 48.427 89.6V84.432H47.291V83.232H48.427V81.024H49.883V83.232H52.171V84.432H49.883ZM58.2871 83.072C58.9485 83.072 59.5458 83.216 60.0791 83.504C60.6125 83.7813 61.0285 84.2027 61.3271 84.768C61.6365 85.3333 61.7911 86.0213 61.7911 86.832V92H60.3511V87.04C60.3511 86.1653 60.1325 85.4987 59.6951 85.04C59.2578 84.5707 58.6605 84.336 57.9031 84.336C57.1351 84.336 56.5218 84.576 56.0631 85.056C55.6151 85.536 55.3911 86.2347 55.3911 87.152V92H53.9351V80.16H55.3911V84.48C55.6791 84.032 56.0738 83.6853 56.5751 83.44C57.0871 83.1947 57.6578 83.072 58.2871 83.072ZM72.1695 87.28C72.1695 87.5573 72.1535 87.8507 72.1215 88.16H65.1135C65.1668 89.024 65.4602 89.7013 65.9935 90.192C66.5375 90.672 67.1935 90.912 67.9615 90.912C68.5908 90.912 69.1135 90.768 69.5295 90.48C69.9562 90.1813 70.2548 89.7867 70.4255 89.296H71.9935C71.7588 90.1387 71.2895 90.8267 70.5855 91.36C69.8815 91.8827 69.0068 92.144 67.9615 92.144C67.1295 92.144 66.3828 91.9573 65.7215 91.584C65.0708 91.2107 64.5588 90.6827 64.1855 90C63.8122 89.3067 63.6255 88.5067 63.6255 87.6C63.6255 86.6933 63.8068 85.8987 64.1695 85.216C64.5322 84.5333 65.0388 84.0107 65.6895 83.648C66.3508 83.2747 67.1082 83.088 67.9615 83.088C68.7935 83.088 69.5295 83.2693 70.1695 83.632C70.8095 83.9947 71.3002 84.496 71.6415 85.136C71.9935 85.7653 72.1695 86.48 72.1695 87.28ZM70.6655 86.976C70.6655 86.4213 70.5428 85.9467 70.2975 85.552C70.0522 85.1467 69.7162 84.8427 69.2895 84.64C68.8735 84.4267 68.4095 84.32 67.8975 84.32C67.1615 84.32 66.5322 84.5547 66.0095 85.024C65.4975 85.4933 65.2042 86.144 65.1295 86.976H70.6655ZM81.461 92.144C80.789 92.144 80.1863 92.032 79.653 91.808C79.1197 91.5733 78.6983 91.2533 78.389 90.848C78.0797 90.432 77.909 89.9573 77.877 89.424H79.381C79.4237 89.8613 79.6263 90.2187 79.989 90.496C80.3623 90.7733 80.8477 90.912 81.445 90.912C81.9997 90.912 82.437 90.7893 82.757 90.544C83.077 90.2987 83.237 89.9893 83.237 89.616C83.237 89.232 83.0663 88.9493 82.725 88.768C82.3837 88.576 81.8557 88.3893 81.141 88.208C80.4903 88.0373 79.957 87.8667 79.541 87.696C79.1357 87.5147 78.7837 87.2533 78.485 86.912C78.197 86.56 78.053 86.1013 78.053 85.536C78.053 85.088 78.1863 84.6773 78.453 84.304C78.7197 83.9307 79.0983 83.6373 79.589 83.424C80.0797 83.2 80.6397 83.088 81.269 83.088C82.2397 83.088 83.0237 83.3333 83.621 83.824C84.2183 84.3147 84.5383 84.9867 84.581 85.84H83.125C83.093 85.3813 82.9063 85.0133 82.565 84.736C82.2343 84.4587 81.7863 84.32 81.221 84.32C80.6983 84.32 80.2823 84.432 79.973 84.656C79.6637 84.88 79.509 85.1733 79.509 85.536C79.509 85.824 79.5997 86.064 79.781 86.256C79.973 86.4373 80.2077 86.5867 80.485 86.704C80.773 86.8107 81.1677 86.9333 81.669 87.072C82.2983 87.2427 82.8103 87.4133 83.205 87.584C83.5997 87.744 83.9357 87.9893 84.213 88.32C84.501 88.6507 84.6503 89.0827 84.661 89.616C84.661 90.096 84.5277 90.528 84.261 90.912C83.9943 91.296 83.6157 91.6 83.125 91.824C82.645 92.0373 82.0903 92.144 81.461 92.144ZM86.1724 87.584C86.1724 86.688 86.3537 85.904 86.7164 85.232C87.079 84.5493 87.575 84.0213 88.2044 83.648C88.8444 83.2747 89.5537 83.088 90.3324 83.088C91.1004 83.088 91.767 83.2533 92.3324 83.584C92.8977 83.9147 93.319 84.3307 93.5964 84.832V83.232H95.0684V92H93.5964V90.368C93.3084 90.88 92.8764 91.3067 92.3004 91.648C91.735 91.9787 91.0737 92.144 90.3164 92.144C89.5377 92.144 88.8337 91.952 88.2044 91.568C87.575 91.184 87.079 90.6453 86.7164 89.952C86.3537 89.2587 86.1724 88.4693 86.1724 87.584ZM93.5964 87.6C93.5964 86.9387 93.463 86.3627 93.1964 85.872C92.9297 85.3813 92.567 85.008 92.1084 84.752C91.6604 84.4853 91.1644 84.352 90.6204 84.352C90.0764 84.352 89.5804 84.48 89.1324 84.736C88.6844 84.992 88.327 85.3653 88.0604 85.856C87.7937 86.3467 87.6604 86.9227 87.6604 87.584C87.6604 88.256 87.7937 88.8427 88.0604 89.344C88.327 89.8347 88.6844 90.2133 89.1324 90.48C89.5804 90.736 90.0764 90.864 90.6204 90.864C91.1644 90.864 91.6604 90.736 92.1084 90.48C92.567 90.2133 92.9297 89.8347 93.1964 89.344C93.463 88.8427 93.5964 88.2613 93.5964 87.6ZM108.073 83.072C108.756 83.072 109.364 83.216 109.897 83.504C110.43 83.7813 110.852 84.2027 111.161 84.768C111.47 85.3333 111.625 86.0213 111.625 86.832V92H110.185V87.04C110.185 86.1653 109.966 85.4987 109.529 85.04C109.102 84.5707 108.521 84.336 107.785 84.336C107.028 84.336 106.425 84.5813 105.977 85.072C105.529 85.552 105.305 86.2507 105.305 87.168V92H103.865V87.04C103.865 86.1653 103.646 85.4987 103.209 85.04C102.782 84.5707 102.201 84.336 101.465 84.336C100.708 84.336 100.105 84.5813 99.6569 85.072C99.2089 85.552 98.9849 86.2507 98.9849 87.168V92H97.5289V83.232H98.9849V84.496C99.2729 84.0373 99.6569 83.6853 100.137 83.44C100.628 83.1947 101.166 83.072 101.753 83.072C102.489 83.072 103.14 83.2373 103.705 83.568C104.27 83.8987 104.692 84.384 104.969 85.024C105.214 84.4053 105.62 83.9253 106.185 83.584C106.75 83.2427 107.38 83.072 108.073 83.072ZM122.013 87.28C122.013 87.5573 121.997 87.8507 121.965 88.16H114.957C115.011 89.024 115.304 89.7013 115.837 90.192C116.381 90.672 117.037 90.912 117.805 90.912C118.435 90.912 118.957 90.768 119.373 90.48C119.8 90.1813 120.099 89.7867 120.269 89.296H121.837C121.603 90.1387 121.133 90.8267 120.429 91.36C119.725 91.8827 118.851 92.144 117.805 92.144C116.973 92.144 116.227 91.9573 115.565 91.584C114.915 91.2107 114.403 90.6827 114.029 90C113.656 89.3067 113.469 88.5067 113.469 87.6C113.469 86.6933 113.651 85.8987 114.013 85.216C114.376 84.5333 114.883 84.0107 115.533 83.648C116.195 83.2747 116.952 83.088 117.805 83.088C118.637 83.088 119.373 83.2693 120.013 83.632C120.653 83.9947 121.144 84.496 121.485 85.136C121.837 85.7653 122.013 86.48 122.013 87.28ZM120.509 86.976C120.509 86.4213 120.387 85.9467 120.141 85.552C119.896 85.1467 119.56 84.8427 119.133 84.64C118.717 84.4267 118.253 84.32 117.741 84.32C117.005 84.32 116.376 84.5547 115.853 85.024C115.341 85.4933 115.048 86.144 114.973 86.976H120.509ZM129.977 84.432V89.6C129.977 90.0267 130.067 90.3307 130.249 90.512C130.43 90.6827 130.745 90.768 131.193 90.768H132.265V92H130.953C130.142 92 129.534 91.8133 129.129 91.44C128.723 91.0667 128.521 90.4533 128.521 89.6V84.432H127.385V83.232H128.521V81.024H129.977V83.232H132.265V84.432H129.977ZM134.781 81.808C134.504 81.808 134.269 81.712 134.077 81.52C133.885 81.328 133.789 81.0933 133.789 80.816C133.789 80.5387 133.885 80.304 134.077 80.112C134.269 79.92 134.504 79.824 134.781 79.824C135.048 79.824 135.272 79.92 135.453 80.112C135.645 80.304 135.741 80.5387 135.741 80.816C135.741 81.0933 135.645 81.328 135.453 81.52C135.272 81.712 135.048 81.808 134.781 81.808ZM135.485 83.232V92H134.029V83.232H135.485ZM148.51 83.072C149.193 83.072 149.801 83.216 150.334 83.504C150.868 83.7813 151.289 84.2027 151.598 84.768C151.908 85.3333 152.062 86.0213 152.062 86.832V92H150.622V87.04C150.622 86.1653 150.404 85.4987 149.966 85.04C149.54 84.5707 148.958 84.336 148.222 84.336C147.465 84.336 146.862 84.5813 146.414 85.072C145.966 85.552 145.742 86.2507 145.742 87.168V92H144.302V87.04C144.302 86.1653 144.084 85.4987 143.646 85.04C143.22 84.5707 142.638 84.336 141.902 84.336C141.145 84.336 140.542 84.5813 140.094 85.072C139.646 85.552 139.422 86.2507 139.422 87.168V92H137.966V83.232H139.422V84.496C139.71 84.0373 140.094 83.6853 140.574 83.44C141.065 83.1947 141.604 83.072 142.19 83.072C142.926 83.072 143.577 83.2373 144.142 83.568C144.708 83.8987 145.129 84.384 145.406 85.024C145.652 84.4053 146.057 83.9253 146.622 83.584C147.188 83.2427 147.817 83.072 148.51 83.072ZM162.451 87.28C162.451 87.5573 162.435 87.8507 162.403 88.16H155.395C155.448 89.024 155.741 89.7013 156.275 90.192C156.819 90.672 157.475 90.912 158.243 90.912C158.872 90.912 159.395 90.768 159.811 90.48C160.237 90.1813 160.536 89.7867 160.707 89.296H162.275C162.04 90.1387 161.571 90.8267 160.867 91.36C160.163 91.8827 159.288 92.144 158.243 92.144C157.411 92.144 156.664 91.9573 156.003 91.584C155.352 91.2107 154.84 90.6827 154.467 90C154.093 89.3067 153.907 88.5067 153.907 87.6C153.907 86.6933 154.088 85.8987 154.451 85.216C154.813 84.5333 155.32 84.0107 155.971 83.648C156.632 83.2747 157.389 83.088 158.243 83.088C159.075 83.088 159.811 83.2693 160.451 83.632C161.091 83.9947 161.581 84.496 161.923 85.136C162.275 85.7653 162.451 86.48 162.451 87.28ZM160.947 86.976C160.947 86.4213 160.824 85.9467 160.579 85.552C160.333 85.1467 159.997 84.8427 159.571 84.64C159.155 84.4267 158.691 84.32 158.179 84.32C157.443 84.32 156.813 84.5547 156.291 85.024C155.779 85.4933 155.485 86.144 155.411 86.976H160.947ZM165.877 89.984L164.085 94.288H163.109L164.277 89.984H165.877ZM175.634 92.144C174.813 92.144 174.066 91.9573 173.394 91.584C172.733 91.2107 172.21 90.6827 171.826 90C171.453 89.3067 171.266 88.5067 171.266 87.6C171.266 86.704 171.458 85.9147 171.842 85.232C172.237 84.5387 172.77 84.0107 173.442 83.648C174.114 83.2747 174.866 83.088 175.698 83.088C176.53 83.088 177.282 83.2747 177.954 83.648C178.626 84.0107 179.154 84.5333 179.538 85.216C179.933 85.8987 180.13 86.6933 180.13 87.6C180.13 88.5067 179.927 89.3067 179.522 90C179.127 90.6827 178.589 91.2107 177.906 91.584C177.223 91.9573 176.466 92.144 175.634 92.144ZM175.634 90.864C176.157 90.864 176.647 90.7413 177.106 90.496C177.565 90.2507 177.933 89.8827 178.21 89.392C178.498 88.9013 178.642 88.304 178.642 87.6C178.642 86.896 178.503 86.2987 178.226 85.808C177.949 85.3173 177.586 84.9547 177.138 84.72C176.69 84.4747 176.205 84.352 175.682 84.352C175.149 84.352 174.658 84.4747 174.21 84.72C173.773 84.9547 173.421 85.3173 173.154 85.808C172.887 86.2987 172.754 86.896 172.754 87.6C172.754 88.3147 172.882 88.9173 173.138 89.408C173.405 89.8987 173.757 90.2667 174.194 90.512C174.631 90.7467 175.111 90.864 175.634 90.864ZM189.821 83.232V92H188.365V90.704C188.087 91.152 187.698 91.504 187.197 91.76C186.706 92.0053 186.162 92.128 185.565 92.128C184.882 92.128 184.269 91.9893 183.725 91.712C183.181 91.424 182.749 90.9973 182.429 90.432C182.119 89.8667 181.965 89.1787 181.965 88.368V83.232H183.405V88.176C183.405 89.04 183.623 89.7067 184.061 90.176C184.498 90.6347 185.095 90.864 185.853 90.864C186.631 90.864 187.245 90.624 187.693 90.144C188.141 89.664 188.365 88.9653 188.365 88.048V83.232H189.821ZM193.735 84.656C193.991 84.1547 194.354 83.7653 194.823 83.488C195.303 83.2107 195.884 83.072 196.567 83.072V84.576H196.183C194.551 84.576 193.735 85.4613 193.735 87.232V92H192.279V83.232H193.735V84.656ZM201.969 87.6C201.969 86.6933 202.151 85.904 202.513 85.232C202.876 84.5493 203.377 84.0213 204.017 83.648C204.668 83.2747 205.409 83.088 206.241 83.088C207.319 83.088 208.204 83.3493 208.897 83.872C209.601 84.3947 210.065 85.12 210.289 86.048H208.721C208.572 85.5147 208.279 85.0933 207.841 84.784C207.415 84.4747 206.881 84.32 206.241 84.32C205.409 84.32 204.737 84.608 204.225 85.184C203.713 85.7493 203.457 86.5547 203.457 87.6C203.457 88.656 203.713 89.472 204.225 90.048C204.737 90.624 205.409 90.912 206.241 90.912C206.881 90.912 207.415 90.7627 207.841 90.464C208.268 90.1653 208.561 89.7387 208.721 89.184H210.289C210.055 90.08 209.585 90.8 208.881 91.344C208.177 91.8773 207.297 92.144 206.241 92.144C205.409 92.144 204.668 91.9573 204.017 91.584C203.377 91.2107 202.876 90.6827 202.513 90C202.151 89.3173 201.969 88.5173 201.969 87.6ZM216.056 92.144C215.235 92.144 214.488 91.9573 213.816 91.584C213.155 91.2107 212.632 90.6827 212.248 90C211.875 89.3067 211.688 88.5067 211.688 87.6C211.688 86.704 211.88 85.9147 212.264 85.232C212.659 84.5387 213.192 84.0107 213.864 83.648C214.536 83.2747 215.288 83.088 216.12 83.088C216.952 83.088 217.704 83.2747 218.376 83.648C219.048 84.0107 219.576 84.5333 219.96 85.216C220.355 85.8987 220.552 86.6933 220.552 87.6C220.552 88.5067 220.349 89.3067 219.944 90C219.549 90.6827 219.011 91.2107 218.328 91.584C217.645 91.9573 216.888 92.144 216.056 92.144ZM216.056 90.864C216.579 90.864 217.069 90.7413 217.528 90.496C217.987 90.2507 218.355 89.8827 218.632 89.392C218.92 88.9013 219.064 88.304 219.064 87.6C219.064 86.896 218.925 86.2987 218.648 85.808C218.371 85.3173 218.008 84.9547 217.56 84.72C217.112 84.4747 216.627 84.352 216.104 84.352C215.571 84.352 215.08 84.4747 214.632 84.72C214.195 84.9547 213.843 85.3173 213.576 85.808C213.309 86.2987 213.176 86.896 213.176 87.6C213.176 88.3147 213.304 88.9173 213.56 89.408C213.827 89.8987 214.179 90.2667 214.616 90.512C215.053 90.7467 215.533 90.864 216.056 90.864ZM233.01 83.072C233.693 83.072 234.301 83.216 234.834 83.504C235.368 83.7813 235.789 84.2027 236.098 84.768C236.408 85.3333 236.562 86.0213 236.562 86.832V92H235.122V87.04C235.122 86.1653 234.904 85.4987 234.466 85.04C234.04 84.5707 233.458 84.336 232.722 84.336C231.965 84.336 231.362 84.5813 230.914 85.072C230.466 85.552 230.242 86.2507 230.242 87.168V92H228.802V87.04C228.802 86.1653 228.584 85.4987 228.146 85.04C227.72 84.5707 227.138 84.336 226.402 84.336C225.645 84.336 225.042 84.5813 224.594 85.072C224.146 85.552 223.922 86.2507 223.922 87.168V92H222.466V83.232H223.922V84.496C224.21 84.0373 224.594 83.6853 225.074 83.44C225.565 83.1947 226.104 83.072 226.69 83.072C227.426 83.072 228.077 83.2373 228.642 83.568C229.208 83.8987 229.629 84.384 229.906 85.024C230.152 84.4053 230.557 83.9253 231.122 83.584C231.688 83.2427 232.317 83.072 233.01 83.072ZM240.407 84.848C240.695 84.3467 241.121 83.9307 241.687 83.6C242.263 83.2587 242.929 83.088 243.687 83.088C244.465 83.088 245.169 83.2747 245.799 83.648C246.439 84.0213 246.94 84.5493 247.303 85.232C247.665 85.904 247.847 86.688 247.847 87.584C247.847 88.4693 247.665 89.2587 247.303 89.952C246.94 90.6453 246.439 91.184 245.799 91.568C245.169 91.952 244.465 92.144 243.687 92.144C242.94 92.144 242.279 91.9787 241.703 91.648C241.137 91.3067 240.705 90.8853 240.407 90.384V96.16H238.951V83.232H240.407V84.848ZM246.359 87.584C246.359 86.9227 246.225 86.3467 245.959 85.856C245.692 85.3653 245.329 84.992 244.871 84.736C244.423 84.48 243.927 84.352 243.383 84.352C242.849 84.352 242.353 84.4853 241.895 84.752C241.447 85.008 241.084 85.3867 240.807 85.888C240.54 86.3787 240.407 86.9493 240.407 87.6C240.407 88.2613 240.54 88.8427 240.807 89.344C241.084 89.8347 241.447 90.2133 241.895 90.48C242.353 90.736 242.849 90.864 243.383 90.864C243.927 90.864 244.423 90.736 244.871 90.48C245.329 90.2133 245.692 89.8347 245.959 89.344C246.225 88.8427 246.359 88.256 246.359 87.584ZM249.219 87.584C249.219 86.688 249.401 85.904 249.763 85.232C250.126 84.5493 250.622 84.0213 251.251 83.648C251.891 83.2747 252.601 83.088 253.379 83.088C254.147 83.088 254.814 83.2533 255.379 83.584C255.945 83.9147 256.366 84.3307 256.643 84.832V83.232H258.115V92H256.643V90.368C256.355 90.88 255.923 91.3067 255.347 91.648C254.782 91.9787 254.121 92.144 253.363 92.144C252.585 92.144 251.881 91.952 251.251 91.568C250.622 91.184 250.126 90.6453 249.763 89.952C249.401 89.2587 249.219 88.4693 249.219 87.584ZM256.643 87.6C256.643 86.9387 256.51 86.3627 256.243 85.872C255.977 85.3813 255.614 85.008 255.155 84.752C254.707 84.4853 254.211 84.352 253.667 84.352C253.123 84.352 252.627 84.48 252.179 84.736C251.731 84.992 251.374 85.3653 251.107 85.856C250.841 86.3467 250.707 86.9227 250.707 87.584C250.707 88.256 250.841 88.8427 251.107 89.344C251.374 89.8347 251.731 90.2133 252.179 90.48C252.627 90.736 253.123 90.864 253.667 90.864C254.211 90.864 254.707 90.736 255.155 90.48C255.614 90.2133 255.977 89.8347 256.243 89.344C256.51 88.8427 256.643 88.2613 256.643 87.6ZM264.848 83.072C265.914 83.072 266.778 83.3973 267.44 84.048C268.101 84.688 268.432 85.616 268.432 86.832V92H266.992V87.04C266.992 86.1653 266.773 85.4987 266.336 85.04C265.898 84.5707 265.301 84.336 264.544 84.336C263.776 84.336 263.162 84.576 262.704 85.056C262.256 85.536 262.032 86.2347 262.032 87.152V92H260.576V83.232H262.032V84.48C262.32 84.032 262.709 83.6853 263.2 83.44C263.701 83.1947 264.25 83.072 264.848 83.072ZM278.362 83.232L273.082 96.128H271.578L273.306 91.904L269.77 83.232H271.386L274.138 90.336L276.858 83.232H278.362ZM285.547 84.848C285.835 84.3467 286.262 83.9307 286.827 83.6C287.403 83.2587 288.07 83.088 288.827 83.088C289.606 83.088 290.31 83.2747 290.939 83.648C291.579 84.0213 292.081 84.5493 292.443 85.232C292.806 85.904 292.987 86.688 292.987 87.584C292.987 88.4693 292.806 89.2587 292.443 89.952C292.081 90.6453 291.579 91.184 290.939 91.568C290.31 91.952 289.606 92.144 288.827 92.144C288.081 92.144 287.419 91.9787 286.843 91.648C286.278 91.3067 285.846 90.8853 285.547 90.384V96.16H284.091V83.232H285.547V84.848ZM291.499 87.584C291.499 86.9227 291.366 86.3467 291.099 85.856C290.833 85.3653 290.47 84.992 290.011 84.736C289.563 84.48 289.067 84.352 288.523 84.352C287.99 84.352 287.494 84.4853 287.035 84.752C286.587 85.008 286.225 85.3867 285.947 85.888C285.681 86.3787 285.547 86.9493 285.547 87.6C285.547 88.2613 285.681 88.8427 285.947 89.344C286.225 89.8347 286.587 90.2133 287.035 90.48C287.494 90.736 287.99 90.864 288.523 90.864C289.067 90.864 289.563 90.736 290.011 90.48C290.47 90.2133 290.833 89.8347 291.099 89.344C291.366 88.8427 291.499 88.256 291.499 87.584ZM294.36 87.584C294.36 86.688 294.541 85.904 294.904 85.232C295.267 84.5493 295.763 84.0213 296.392 83.648C297.032 83.2747 297.741 83.088 298.52 83.088C299.288 83.088 299.955 83.2533 300.52 83.584C301.085 83.9147 301.507 84.3307 301.784 84.832V83.232H303.256V92H301.784V90.368C301.496 90.88 301.064 91.3067 300.488 91.648C299.923 91.9787 299.261 92.144 298.504 92.144C297.725 92.144 297.021 91.952 296.392 91.568C295.763 91.184 295.267 90.6453 294.904 89.952C294.541 89.2587 294.36 88.4693 294.36 87.584ZM301.784 87.6C301.784 86.9387 301.651 86.3627 301.384 85.872C301.117 85.3813 300.755 85.008 300.296 84.752C299.848 84.4853 299.352 84.352 298.808 84.352C298.264 84.352 297.768 84.48 297.32 84.736C296.872 84.992 296.515 85.3653 296.248 85.856C295.981 86.3467 295.848 86.9227 295.848 87.584C295.848 88.256 295.981 88.8427 296.248 89.344C296.515 89.8347 296.872 90.2133 297.32 90.48C297.768 90.736 298.264 90.864 298.808 90.864C299.352 90.864 299.848 90.736 300.296 90.48C300.755 90.2133 301.117 89.8347 301.384 89.344C301.651 88.8427 301.784 88.2613 301.784 87.6ZM307.172 84.656C307.428 84.1547 307.791 83.7653 308.26 83.488C308.74 83.2107 309.322 83.072 310.004 83.072V84.576H309.62C307.988 84.576 307.172 85.4613 307.172 87.232V92H305.716V83.232H307.172V84.656ZM313.461 84.432V89.6C313.461 90.0267 313.552 90.3307 313.733 90.512C313.914 90.6827 314.229 90.768 314.677 90.768H315.749V92H314.437C313.626 92 313.018 91.8133 312.613 91.44C312.208 91.0667 312.005 90.4533 312.005 89.6V84.432H310.869V83.232H312.005V81.024H313.461V83.232H315.749V84.432H313.461ZM318.265 81.808C317.988 81.808 317.753 81.712 317.561 81.52C317.369 81.328 317.273 81.0933 317.273 80.816C317.273 80.5387 317.369 80.304 317.561 80.112C317.753 79.92 317.988 79.824 318.265 79.824C318.532 79.824 318.756 79.92 318.937 80.112C319.129 80.304 319.225 80.5387 319.225 80.816C319.225 81.0933 319.129 81.328 318.937 81.52C318.756 81.712 318.532 81.808 318.265 81.808ZM318.969 83.232V92H317.513V83.232H318.969ZM320.907 87.6C320.907 86.6933 321.088 85.904 321.451 85.232C321.813 84.5493 322.315 84.0213 322.955 83.648C323.605 83.2747 324.347 83.088 325.179 83.088C326.256 83.088 327.141 83.3493 327.835 83.872C328.539 84.3947 329.003 85.12 329.227 86.048H327.659C327.509 85.5147 327.216 85.0933 326.779 84.784C326.352 84.4747 325.819 84.32 325.179 84.32C324.347 84.32 323.675 84.608 323.163 85.184C322.651 85.7493 322.395 86.5547 322.395 87.6C322.395 88.656 322.651 89.472 323.163 90.048C323.675 90.624 324.347 90.912 325.179 90.912C325.819 90.912 326.352 90.7627 326.779 90.464C327.205 90.1653 327.499 89.7387 327.659 89.184H329.227C328.992 90.08 328.523 90.8 327.819 91.344C327.115 91.8773 326.235 92.144 325.179 92.144C324.347 92.144 323.605 91.9573 322.955 91.584C322.315 91.2107 321.813 90.6827 321.451 90C321.088 89.3173 320.907 88.5173 320.907 87.6ZM331.922 81.808C331.644 81.808 331.41 81.712 331.218 81.52C331.026 81.328 330.93 81.0933 330.93 80.816C330.93 80.5387 331.026 80.304 331.218 80.112C331.41 79.92 331.644 79.824 331.922 79.824C332.188 79.824 332.412 79.92 332.594 80.112C332.786 80.304 332.882 80.5387 332.882 80.816C332.882 81.0933 332.786 81.328 332.594 81.52C332.412 81.712 332.188 81.808 331.922 81.808ZM332.626 83.232V92H331.17V83.232H332.626ZM336.563 84.848C336.851 84.3467 337.278 83.9307 337.843 83.6C338.419 83.2587 339.086 83.088 339.843 83.088C340.622 83.088 341.326 83.2747 341.955 83.648C342.595 84.0213 343.096 84.5493 343.459 85.232C343.822 85.904 344.003 86.688 344.003 87.584C344.003 88.4693 343.822 89.2587 343.459 89.952C343.096 90.6453 342.595 91.184 341.955 91.568C341.326 91.952 340.622 92.144 339.843 92.144C339.096 92.144 338.435 91.9787 337.859 91.648C337.294 91.3067 336.862 90.8853 336.563 90.384V96.16H335.107V83.232H336.563V84.848ZM342.515 87.584C342.515 86.9227 342.382 86.3467 342.115 85.856C341.848 85.3653 341.486 84.992 341.027 84.736C340.579 84.48 340.083 84.352 339.539 84.352C339.006 84.352 338.51 84.4853 338.051 84.752C337.603 85.008 337.24 85.3867 336.963 85.888C336.696 86.3787 336.563 86.9493 336.563 87.6C336.563 88.2613 336.696 88.8427 336.963 89.344C337.24 89.8347 337.603 90.2133 338.051 90.48C338.51 90.736 339.006 90.864 339.539 90.864C340.083 90.864 340.579 90.736 341.027 90.48C341.486 90.2133 341.848 89.8347 342.115 89.344C342.382 88.8427 342.515 88.256 342.515 87.584ZM345.376 87.584C345.376 86.688 345.557 85.904 345.92 85.232C346.282 84.5493 346.778 84.0213 347.408 83.648C348.048 83.2747 348.757 83.088 349.536 83.088C350.304 83.088 350.97 83.2533 351.536 83.584C352.101 83.9147 352.522 84.3307 352.8 84.832V83.232H354.272V92H352.8V90.368C352.512 90.88 352.08 91.3067 351.504 91.648C350.938 91.9787 350.277 92.144 349.52 92.144C348.741 92.144 348.037 91.952 347.408 91.568C346.778 91.184 346.282 90.6453 345.92 89.952C345.557 89.2587 345.376 88.4693 345.376 87.584ZM352.8 87.6C352.8 86.9387 352.666 86.3627 352.4 85.872C352.133 85.3813 351.77 85.008 351.312 84.752C350.864 84.4853 350.368 84.352 349.824 84.352C349.28 84.352 348.784 84.48 348.336 84.736C347.888 84.992 347.53 85.3653 347.264 85.856C346.997 86.3467 346.864 86.9227 346.864 87.584C346.864 88.256 346.997 88.8427 347.264 89.344C347.53 89.8347 347.888 90.2133 348.336 90.48C348.784 90.736 349.28 90.864 349.824 90.864C350.368 90.864 350.864 90.736 351.312 90.48C351.77 90.2133 352.133 89.8347 352.4 89.344C352.666 88.8427 352.8 88.2613 352.8 87.6ZM358.508 84.432V89.6C358.508 90.0267 358.599 90.3307 358.78 90.512C358.961 90.6827 359.276 90.768 359.724 90.768H360.796V92H359.484C358.673 92 358.065 91.8133 357.66 91.44C357.255 91.0667 357.052 90.4533 357.052 89.6V84.432H355.916V83.232H357.052V81.024H358.508V83.232H360.796V84.432H358.508ZM370.56 87.28C370.56 87.5573 370.544 87.8507 370.512 88.16H363.504C363.557 89.024 363.851 89.7013 364.384 90.192C364.928 90.672 365.584 90.912 366.352 90.912C366.981 90.912 367.504 90.768 367.92 90.48C368.347 90.1813 368.645 89.7867 368.816 89.296H370.384C370.149 90.1387 369.68 90.8267 368.976 91.36C368.272 91.8827 367.397 92.144 366.352 92.144C365.52 92.144 364.773 91.9573 364.112 91.584C363.461 91.2107 362.949 90.6827 362.576 90C362.203 89.3067 362.016 88.5067 362.016 87.6C362.016 86.6933 362.197 85.8987 362.56 85.216C362.923 84.5333 363.429 84.0107 364.08 83.648C364.741 83.2747 365.499 83.088 366.352 83.088C367.184 83.088 367.92 83.2693 368.56 83.632C369.2 83.9947 369.691 84.496 370.032 85.136C370.384 85.7653 370.56 86.48 370.56 87.28ZM369.056 86.976C369.056 86.4213 368.933 85.9467 368.688 85.552C368.443 85.1467 368.107 84.8427 367.68 84.64C367.264 84.4267 366.8 84.32 366.288 84.32C365.552 84.32 364.923 84.5547 364.4 85.024C363.888 85.4933 363.595 86.144 363.52 86.976H369.056ZM375.586 92.144C374.914 92.144 374.311 92.032 373.778 91.808C373.245 91.5733 372.823 91.2533 372.514 90.848C372.205 90.432 372.034 89.9573 372.002 89.424H373.506C373.549 89.8613 373.751 90.2187 374.114 90.496C374.487 90.7733 374.973 90.912 375.57 90.912C376.125 90.912 376.562 90.7893 376.882 90.544C377.202 90.2987 377.362 89.9893 377.362 89.616C377.362 89.232 377.191 88.9493 376.85 88.768C376.509 88.576 375.981 88.3893 375.266 88.208C374.615 88.0373 374.082 87.8667 373.666 87.696C373.261 87.5147 372.909 87.2533 372.61 86.912C372.322 86.56 372.178 86.1013 372.178 85.536C372.178 85.088 372.311 84.6773 372.578 84.304C372.845 83.9307 373.223 83.6373 373.714 83.424C374.205 83.2 374.765 83.088 375.394 83.088C376.365 83.088 377.149 83.3333 377.746 83.824C378.343 84.3147 378.663 84.9867 378.706 85.84H377.25C377.218 85.3813 377.031 85.0133 376.69 84.736C376.359 84.4587 375.911 84.32 375.346 84.32C374.823 84.32 374.407 84.432 374.098 84.656C373.789 84.88 373.634 85.1733 373.634 85.536C373.634 85.824 373.725 86.064 373.906 86.256C374.098 86.4373 374.333 86.5867 374.61 86.704C374.898 86.8107 375.293 86.9333 375.794 87.072C376.423 87.2427 376.935 87.4133 377.33 87.584C377.725 87.744 378.061 87.9893 378.338 88.32C378.626 88.6507 378.775 89.0827 378.786 89.616C378.786 90.096 378.653 90.528 378.386 90.912C378.119 91.296 377.741 91.6 377.25 91.824C376.77 92.0373 376.215 92.144 375.586 92.144ZM27.984 105.808C27.7067 105.808 27.472 105.712 27.28 105.52C27.088 105.328 26.992 105.093 26.992 104.816C26.992 104.539 27.088 104.304 27.28 104.112C27.472 103.92 27.7067 103.824 27.984 103.824C28.2507 103.824 28.4747 103.92 28.656 104.112C28.848 104.304 28.944 104.539 28.944 104.816C28.944 105.093 28.848 105.328 28.656 105.52C28.4747 105.712 28.2507 105.808 27.984 105.808ZM28.688 107.232V116H27.232V107.232H28.688ZM35.4415 107.072C36.5082 107.072 37.3722 107.397 38.0335 108.048C38.6948 108.688 39.0255 109.616 39.0255 110.832V116H37.5855V111.04C37.5855 110.165 37.3668 109.499 36.9295 109.04C36.4922 108.571 35.8948 108.336 35.1375 108.336C34.3695 108.336 33.7562 108.576 33.2975 109.056C32.8495 109.536 32.6255 110.235 32.6255 111.152V116H31.1695V107.232H32.6255V108.48C32.9135 108.032 33.3028 107.685 33.7935 107.44C34.2948 107.195 34.8442 107.072 35.4415 107.072ZM48.7735 116.144C48.1015 116.144 47.4988 116.032 46.9655 115.808C46.4322 115.573 46.0108 115.253 45.7015 114.848C45.3922 114.432 45.2215 113.957 45.1895 113.424H46.6935C46.7362 113.861 46.9388 114.219 47.3015 114.496C47.6748 114.773 48.1602 114.912 48.7575 114.912C49.3122 114.912 49.7495 114.789 50.0695 114.544C50.3895 114.299 50.5495 113.989 50.5495 113.616C50.5495 113.232 50.3788 112.949 50.0375 112.768C49.6962 112.576 49.1682 112.389 48.4535 112.208C47.8028 112.037 47.2695 111.867 46.8535 111.696C46.4482 111.515 46.0962 111.253 45.7975 110.912C45.5095 110.56 45.3655 110.101 45.3655 109.536C45.3655 109.088 45.4988 108.677 45.7655 108.304C46.0322 107.931 46.4108 107.637 46.9015 107.424C47.3922 107.2 47.9522 107.088 48.5815 107.088C49.5522 107.088 50.3362 107.333 50.9335 107.824C51.5308 108.315 51.8508 108.987 51.8935 109.84H50.4375C50.4055 109.381 50.2188 109.013 49.8775 108.736C49.5468 108.459 49.0988 108.32 48.5335 108.32C48.0108 108.32 47.5948 108.432 47.2855 108.656C46.9762 108.88 46.8215 109.173 46.8215 109.536C46.8215 109.824 46.9122 110.064 47.0935 110.256C47.2855 110.437 47.5202 110.587 47.7975 110.704C48.0855 110.811 48.4802 110.933 48.9815 111.072C49.6108 111.243 50.1228 111.413 50.5175 111.584C50.9122 111.744 51.2482 111.989 51.5255 112.32C51.8135 112.651 51.9628 113.083 51.9735 113.616C51.9735 114.096 51.8402 114.528 51.5735 114.912C51.3068 115.296 50.9282 115.6 50.4375 115.824C49.9575 116.037 49.4028 116.144 48.7735 116.144ZM57.8529 116.144C57.0315 116.144 56.2849 115.957 55.6129 115.584C54.9515 115.211 54.4289 114.683 54.0449 114C53.6715 113.307 53.4849 112.507 53.4849 111.6C53.4849 110.704 53.6769 109.915 54.0609 109.232C54.4555 108.539 54.9889 108.011 55.6609 107.648C56.3329 107.275 57.0849 107.088 57.9169 107.088C58.7489 107.088 59.5009 107.275 60.1729 107.648C60.8449 108.011 61.3729 108.533 61.7569 109.216C62.1515 109.899 62.3489 110.693 62.3489 111.6C62.3489 112.507 62.1462 113.307 61.7409 114C61.3462 114.683 60.8075 115.211 60.1249 115.584C59.4422 115.957 58.6849 116.144 57.8529 116.144ZM57.8529 114.864C58.3755 114.864 58.8662 114.741 59.3249 114.496C59.7835 114.251 60.1515 113.883 60.4289 113.392C60.7169 112.901 60.8609 112.304 60.8609 111.6C60.8609 110.896 60.7222 110.299 60.4449 109.808C60.1675 109.317 59.8049 108.955 59.3569 108.72C58.9089 108.475 58.4235 108.352 57.9009 108.352C57.3675 108.352 56.8769 108.475 56.4289 108.72C55.9915 108.955 55.6395 109.317 55.3729 109.808C55.1062 110.299 54.9729 110.896 54.9729 111.6C54.9729 112.315 55.1009 112.917 55.3569 113.408C55.6235 113.899 55.9755 114.267 56.4129 114.512C56.8502 114.747 57.3302 114.864 57.8529 114.864ZM63.7193 111.6C63.7193 110.693 63.9006 109.904 64.2633 109.232C64.6259 108.549 65.1273 108.021 65.7673 107.648C66.4179 107.275 67.1593 107.088 67.9913 107.088C69.0686 107.088 69.9539 107.349 70.6473 107.872C71.3513 108.395 71.8153 109.12 72.0393 110.048H70.4713C70.3219 109.515 70.0286 109.093 69.5913 108.784C69.1646 108.475 68.6313 108.32 67.9913 108.32C67.1593 108.32 66.4873 108.608 65.9753 109.184C65.4633 109.749 65.2073 110.555 65.2073 111.6C65.2073 112.656 65.4633 113.472 65.9753 114.048C66.4873 114.624 67.1593 114.912 67.9913 114.912C68.6313 114.912 69.1646 114.763 69.5913 114.464C70.0179 114.165 70.3113 113.739 70.4713 113.184H72.0393C71.8046 114.08 71.3353 114.8 70.6313 115.344C69.9273 115.877 69.0473 116.144 67.9913 116.144C67.1593 116.144 66.4179 115.957 65.7673 115.584C65.1273 115.211 64.6259 114.683 64.2633 114C63.9006 113.317 63.7193 112.517 63.7193 111.6ZM74.734 105.808C74.4567 105.808 74.222 105.712 74.03 105.52C73.838 105.328 73.742 105.093 73.742 104.816C73.742 104.539 73.838 104.304 74.03 104.112C74.222 103.92 74.4567 103.824 74.734 103.824C75.0007 103.824 75.2247 103.92 75.406 104.112C75.598 104.304 75.694 104.539 75.694 104.816C75.694 105.093 75.598 105.328 75.406 105.52C75.2247 105.712 75.0007 105.808 74.734 105.808ZM75.438 107.232V116H73.982V107.232H75.438ZM77.3755 111.584C77.3755 110.688 77.5568 109.904 77.9195 109.232C78.2822 108.549 78.7782 108.021 79.4075 107.648C80.0475 107.275 80.7568 107.088 81.5355 107.088C82.3035 107.088 82.9702 107.253 83.5355 107.584C84.1008 107.915 84.5222 108.331 84.7995 108.832V107.232H86.2715V116H84.7995V114.368C84.5115 114.88 84.0795 115.307 83.5035 115.648C82.9382 115.979 82.2768 116.144 81.5195 116.144C80.7408 116.144 80.0368 115.952 79.4075 115.568C78.7782 115.184 78.2822 114.645 77.9195 113.952C77.5568 113.259 77.3755 112.469 77.3755 111.584ZM84.7995 111.6C84.7995 110.939 84.6662 110.363 84.3995 109.872C84.1328 109.381 83.7702 109.008 83.3115 108.752C82.8635 108.485 82.3675 108.352 81.8235 108.352C81.2795 108.352 80.7835 108.48 80.3355 108.736C79.8875 108.992 79.5302 109.365 79.2635 109.856C78.9968 110.347 78.8635 110.923 78.8635 111.584C78.8635 112.256 78.9968 112.843 79.2635 113.344C79.5302 113.835 79.8875 114.213 80.3355 114.48C80.7835 114.736 81.2795 114.864 81.8235 114.864C82.3675 114.864 82.8635 114.736 83.3115 114.48C83.7702 114.213 84.1328 113.835 84.3995 113.344C84.6662 112.843 84.7995 112.261 84.7995 111.6ZM90.188 104.16V116H88.732V104.16H90.188ZM98.3911 108.656C98.6471 108.155 99.0098 107.765 99.4791 107.488C99.9591 107.211 100.54 107.072 101.223 107.072V108.576H100.839C99.2071 108.576 98.3911 109.461 98.3911 111.232V116H96.9351V107.232H98.3911V108.656ZM110.904 111.28C110.904 111.557 110.888 111.851 110.856 112.16H103.848C103.901 113.024 104.195 113.701 104.728 114.192C105.272 114.672 105.928 114.912 106.696 114.912C107.325 114.912 107.848 114.768 108.264 114.48C108.691 114.181 108.989 113.787 109.16 113.296H110.728C110.493 114.139 110.024 114.827 109.32 115.36C108.616 115.883 107.741 116.144 106.696 116.144C105.864 116.144 105.117 115.957 104.456 115.584C103.805 115.211 103.293 114.683 102.92 114C102.547 113.307 102.36 112.507 102.36 111.6C102.36 110.693 102.541 109.899 102.904 109.216C103.267 108.533 103.773 108.011 104.424 107.648C105.085 107.275 105.843 107.088 106.696 107.088C107.528 107.088 108.264 107.269 108.904 107.632C109.544 107.995 110.035 108.496 110.376 109.136C110.728 109.765 110.904 110.48 110.904 111.28ZM109.4 110.976C109.4 110.421 109.277 109.947 109.032 109.552C108.787 109.147 108.451 108.843 108.024 108.64C107.608 108.427 107.144 108.32 106.632 108.32C105.896 108.32 105.267 108.555 104.744 109.024C104.232 109.493 103.939 110.144 103.864 110.976H109.4ZM115.93 116.144C115.258 116.144 114.655 116.032 114.122 115.808C113.588 115.573 113.167 115.253 112.858 114.848C112.548 114.432 112.378 113.957 112.346 113.424H113.85C113.892 113.861 114.095 114.219 114.458 114.496C114.831 114.773 115.316 114.912 115.914 114.912C116.468 114.912 116.906 114.789 117.226 114.544C117.546 114.299 117.706 113.989 117.706 113.616C117.706 113.232 117.535 112.949 117.194 112.768C116.852 112.576 116.324 112.389 115.61 112.208C114.959 112.037 114.426 111.867 114.01 111.696C113.604 111.515 113.252 111.253 112.954 110.912C112.666 110.56 112.522 110.101 112.522 109.536C112.522 109.088 112.655 108.677 112.922 108.304C113.188 107.931 113.567 107.637 114.058 107.424C114.548 107.2 115.108 107.088 115.738 107.088C116.708 107.088 117.492 107.333 118.09 107.824C118.687 108.315 119.007 108.987 119.05 109.84H117.594C117.562 109.381 117.375 109.013 117.034 108.736C116.703 108.459 116.255 108.32 115.69 108.32C115.167 108.32 114.751 108.432 114.442 108.656C114.132 108.88 113.978 109.173 113.978 109.536C113.978 109.824 114.068 110.064 114.25 110.256C114.442 110.437 114.676 110.587 114.954 110.704C115.242 110.811 115.636 110.933 116.138 111.072C116.767 111.243 117.279 111.413 117.674 111.584C118.068 111.744 118.404 111.989 118.682 112.32C118.97 112.651 119.119 113.083 119.13 113.616C119.13 114.096 118.996 114.528 118.73 114.912C118.463 115.296 118.084 115.6 117.594 115.824C117.114 116.037 116.559 116.144 115.93 116.144ZM122.641 108.848C122.929 108.347 123.356 107.931 123.921 107.6C124.497 107.259 125.164 107.088 125.921 107.088C126.7 107.088 127.404 107.275 128.033 107.648C128.673 108.021 129.174 108.549 129.537 109.232C129.9 109.904 130.081 110.688 130.081 111.584C130.081 112.469 129.9 113.259 129.537 113.952C129.174 114.645 128.673 115.184 128.033 115.568C127.404 115.952 126.7 116.144 125.921 116.144C125.174 116.144 124.513 115.979 123.937 115.648C123.372 115.307 122.94 114.885 122.641 114.384V120.16H121.185V107.232H122.641V108.848ZM128.593 111.584C128.593 110.923 128.46 110.347 128.193 109.856C127.926 109.365 127.564 108.992 127.105 108.736C126.657 108.48 126.161 108.352 125.617 108.352C125.084 108.352 124.588 108.485 124.129 108.752C123.681 109.008 123.318 109.387 123.041 109.888C122.774 110.379 122.641 110.949 122.641 111.6C122.641 112.261 122.774 112.843 123.041 113.344C123.318 113.835 123.681 114.213 124.129 114.48C124.588 114.736 125.084 114.864 125.617 114.864C126.161 114.864 126.657 114.736 127.105 114.48C127.564 114.213 127.926 113.835 128.193 113.344C128.46 112.843 128.593 112.256 128.593 111.584ZM135.822 116.144C135 116.144 134.254 115.957 133.582 115.584C132.92 115.211 132.398 114.683 132.014 114C131.64 113.307 131.454 112.507 131.454 111.6C131.454 110.704 131.646 109.915 132.03 109.232C132.424 108.539 132.958 108.011 133.63 107.648C134.302 107.275 135.054 107.088 135.886 107.088C136.718 107.088 137.47 107.275 138.142 107.648C138.814 108.011 139.342 108.533 139.726 109.216C140.12 109.899 140.318 110.693 140.318 111.6C140.318 112.507 140.115 113.307 139.71 114C139.315 114.683 138.776 115.211 138.094 115.584C137.411 115.957 136.654 116.144 135.822 116.144ZM135.822 114.864C136.344 114.864 136.835 114.741 137.294 114.496C137.752 114.251 138.12 113.883 138.398 113.392C138.686 112.901 138.83 112.304 138.83 111.6C138.83 110.896 138.691 110.299 138.414 109.808C138.136 109.317 137.774 108.955 137.326 108.72C136.878 108.475 136.392 108.352 135.87 108.352C135.336 108.352 134.846 108.475 134.398 108.72C133.96 108.955 133.608 109.317 133.342 109.808C133.075 110.299 132.942 110.896 132.942 111.6C132.942 112.315 133.07 112.917 133.326 113.408C133.592 113.899 133.944 114.267 134.382 114.512C134.819 114.747 135.299 114.864 135.822 114.864ZM146.504 107.072C147.571 107.072 148.435 107.397 149.096 108.048C149.757 108.688 150.088 109.616 150.088 110.832V116H148.648V111.04C148.648 110.165 148.429 109.499 147.992 109.04C147.555 108.571 146.957 108.336 146.2 108.336C145.432 108.336 144.819 108.576 144.36 109.056C143.912 109.536 143.688 110.235 143.688 111.152V116H142.232V107.232H143.688V108.48C143.976 108.032 144.365 107.685 144.856 107.44C145.357 107.195 145.907 107.072 146.504 107.072ZM155.57 116.144C154.898 116.144 154.296 116.032 153.762 115.808C153.229 115.573 152.808 115.253 152.498 114.848C152.189 114.432 152.018 113.957 151.986 113.424H153.49C153.533 113.861 153.736 114.219 154.098 114.496C154.472 114.773 154.957 114.912 155.554 114.912C156.109 114.912 156.546 114.789 156.866 114.544C157.186 114.299 157.346 113.989 157.346 113.616C157.346 113.232 157.176 112.949 156.834 112.768C156.493 112.576 155.965 112.389 155.25 112.208C154.6 112.037 154.066 111.867 153.65 111.696C153.245 111.515 152.893 111.253 152.594 110.912C152.306 110.56 152.162 110.101 152.162 109.536C152.162 109.088 152.296 108.677 152.562 108.304C152.829 107.931 153.208 107.637 153.698 107.424C154.189 107.2 154.749 107.088 155.378 107.088C156.349 107.088 157.133 107.333 157.73 107.824C158.328 108.315 158.648 108.987 158.69 109.84H157.234C157.202 109.381 157.016 109.013 156.674 108.736C156.344 108.459 155.896 108.32 155.33 108.32C154.808 108.32 154.392 108.432 154.082 108.656C153.773 108.88 153.618 109.173 153.618 109.536C153.618 109.824 153.709 110.064 153.89 110.256C154.082 110.437 154.317 110.587 154.594 110.704C154.882 110.811 155.277 110.933 155.778 111.072C156.408 111.243 156.92 111.413 157.314 111.584C157.709 111.744 158.045 111.989 158.322 112.32C158.61 112.651 158.76 113.083 158.77 113.616C158.77 114.096 158.637 114.528 158.37 114.912C158.104 115.296 157.725 115.6 157.234 115.824C156.754 116.037 156.2 116.144 155.57 116.144ZM161.578 105.808C161.3 105.808 161.066 105.712 160.874 105.52C160.682 105.328 160.586 105.093 160.586 104.816C160.586 104.539 160.682 104.304 160.874 104.112C161.066 103.92 161.3 103.824 161.578 103.824C161.844 103.824 162.068 103.92 162.25 104.112C162.442 104.304 162.538 104.539 162.538 104.816C162.538 105.093 162.442 105.328 162.25 105.52C162.068 105.712 161.844 105.808 161.578 105.808ZM162.282 107.232V116H160.826V107.232H162.282ZM166.219 108.864C166.518 108.341 166.955 107.915 167.531 107.584C168.107 107.253 168.763 107.088 169.499 107.088C170.289 107.088 170.998 107.275 171.627 107.648C172.257 108.021 172.753 108.549 173.115 109.232C173.478 109.904 173.659 110.688 173.659 111.584C173.659 112.469 173.478 113.259 173.115 113.952C172.753 114.645 172.251 115.184 171.611 115.568C170.982 115.952 170.278 116.144 169.499 116.144C168.742 116.144 168.075 115.979 167.499 115.648C166.934 115.317 166.507 114.896 166.219 114.384V116H164.763V104.16H166.219V108.864ZM172.171 111.584C172.171 110.923 172.038 110.347 171.771 109.856C171.505 109.365 171.142 108.992 170.683 108.736C170.235 108.48 169.739 108.352 169.195 108.352C168.662 108.352 168.166 108.485 167.707 108.752C167.259 109.008 166.897 109.387 166.619 109.888C166.353 110.379 166.219 110.949 166.219 111.6C166.219 112.261 166.353 112.843 166.619 113.344C166.897 113.835 167.259 114.213 167.707 114.48C168.166 114.736 168.662 114.864 169.195 114.864C169.739 114.864 170.235 114.736 170.683 114.48C171.142 114.213 171.505 113.835 171.771 113.344C172.038 112.843 172.171 112.256 172.171 111.584ZM176.328 105.808C176.05 105.808 175.816 105.712 175.624 105.52C175.432 105.328 175.336 105.093 175.336 104.816C175.336 104.539 175.432 104.304 175.624 104.112C175.816 103.92 176.05 103.824 176.328 103.824C176.594 103.824 176.818 103.92 177 104.112C177.192 104.304 177.288 104.539 177.288 104.816C177.288 105.093 177.192 105.328 177 105.52C176.818 105.712 176.594 105.808 176.328 105.808ZM177.032 107.232V116H175.576V107.232H177.032ZM180.969 104.16V116H179.513V104.16H180.969ZM184.203 105.808C183.925 105.808 183.691 105.712 183.499 105.52C183.307 105.328 183.211 105.093 183.211 104.816C183.211 104.539 183.307 104.304 183.499 104.112C183.691 103.92 183.925 103.824 184.203 103.824C184.469 103.824 184.693 103.92 184.875 104.112C185.067 104.304 185.163 104.539 185.163 104.816C185.163 105.093 185.067 105.328 184.875 105.52C184.693 105.712 184.469 105.808 184.203 105.808ZM184.907 107.232V116H183.451V107.232H184.907ZM189.164 108.432V113.6C189.164 114.027 189.255 114.331 189.436 114.512C189.618 114.683 189.932 114.768 190.38 114.768H191.452V116H190.14C189.33 116 188.722 115.813 188.316 115.44C187.911 115.067 187.708 114.453 187.708 113.6V108.432H186.572V107.232H187.708V105.024H189.164V107.232H191.452V108.432H189.164ZM200.768 107.232L195.488 120.128H193.984L195.712 115.904L192.176 107.232H193.792L196.544 114.336L199.264 107.232H200.768ZM207.954 108.848C208.242 108.347 208.668 107.931 209.234 107.6C209.81 107.259 210.476 107.088 211.234 107.088C212.012 107.088 212.716 107.275 213.346 107.648C213.986 108.021 214.487 108.549 214.85 109.232C215.212 109.904 215.394 110.688 215.394 111.584C215.394 112.469 215.212 113.259 214.85 113.952C214.487 114.645 213.986 115.184 213.346 115.568C212.716 115.952 212.012 116.144 211.234 116.144C210.487 116.144 209.826 115.979 209.25 115.648C208.684 115.307 208.252 114.885 207.954 114.384V120.16H206.498V107.232H207.954V108.848ZM213.906 111.584C213.906 110.923 213.772 110.347 213.506 109.856C213.239 109.365 212.876 108.992 212.418 108.736C211.97 108.48 211.474 108.352 210.93 108.352C210.396 108.352 209.9 108.485 209.442 108.752C208.994 109.008 208.631 109.387 208.354 109.888C208.087 110.379 207.954 110.949 207.954 111.6C207.954 112.261 208.087 112.843 208.354 113.344C208.631 113.835 208.994 114.213 209.442 114.48C209.9 114.736 210.396 114.864 210.93 114.864C211.474 114.864 211.97 114.736 212.418 114.48C212.876 114.213 213.239 113.835 213.506 113.344C213.772 112.843 213.906 112.256 213.906 111.584ZM218.766 108.656C219.022 108.155 219.385 107.765 219.854 107.488C220.334 107.211 220.915 107.072 221.598 107.072V108.576H221.214C219.582 108.576 218.766 109.461 218.766 111.232V116H217.31V107.232H218.766V108.656ZM227.103 116.144C226.282 116.144 225.535 115.957 224.863 115.584C224.202 115.211 223.679 114.683 223.295 114C222.922 113.307 222.735 112.507 222.735 111.6C222.735 110.704 222.927 109.915 223.311 109.232C223.706 108.539 224.239 108.011 224.911 107.648C225.583 107.275 226.335 107.088 227.167 107.088C227.999 107.088 228.751 107.275 229.423 107.648C230.095 108.011 230.623 108.533 231.007 109.216C231.402 109.899 231.599 110.693 231.599 111.6C231.599 112.507 231.396 113.307 230.991 114C230.596 114.683 230.058 115.211 229.375 115.584C228.692 115.957 227.935 116.144 227.103 116.144ZM227.103 114.864C227.626 114.864 228.116 114.741 228.575 114.496C229.034 114.251 229.402 113.883 229.679 113.392C229.967 112.901 230.111 112.304 230.111 111.6C230.111 110.896 229.972 110.299 229.695 109.808C229.418 109.317 229.055 108.955 228.607 108.72C228.159 108.475 227.674 108.352 227.151 108.352C226.618 108.352 226.127 108.475 225.679 108.72C225.242 108.955 224.89 109.317 224.623 109.808C224.356 110.299 224.223 110.896 224.223 111.6C224.223 112.315 224.351 112.917 224.607 113.408C224.874 113.899 225.226 114.267 225.663 114.512C226.1 114.747 226.58 114.864 227.103 114.864ZM237.129 107.088C237.887 107.088 238.548 107.253 239.113 107.584C239.689 107.915 240.116 108.331 240.393 108.832V107.232H241.865V116.192C241.865 116.992 241.695 117.701 241.353 118.32C241.012 118.949 240.521 119.44 239.881 119.792C239.252 120.144 238.516 120.32 237.673 120.32C236.521 120.32 235.561 120.048 234.793 119.504C234.025 118.96 233.572 118.219 233.433 117.28H234.873C235.033 117.813 235.364 118.24 235.865 118.56C236.367 118.891 236.969 119.056 237.673 119.056C238.473 119.056 239.124 118.805 239.625 118.304C240.137 117.803 240.393 117.099 240.393 116.192V114.352C240.105 114.864 239.679 115.291 239.113 115.632C238.548 115.973 237.887 116.144 237.129 116.144C236.351 116.144 235.641 115.952 235.001 115.568C234.372 115.184 233.876 114.645 233.513 113.952C233.151 113.259 232.969 112.469 232.969 111.584C232.969 110.688 233.151 109.904 233.513 109.232C233.876 108.549 234.372 108.021 235.001 107.648C235.641 107.275 236.351 107.088 237.129 107.088ZM240.393 111.6C240.393 110.939 240.26 110.363 239.993 109.872C239.727 109.381 239.364 109.008 238.905 108.752C238.457 108.485 237.961 108.352 237.417 108.352C236.873 108.352 236.377 108.48 235.929 108.736C235.481 108.992 235.124 109.365 234.857 109.856C234.591 110.347 234.457 110.923 234.457 111.584C234.457 112.256 234.591 112.843 234.857 113.344C235.124 113.835 235.481 114.213 235.929 114.48C236.377 114.736 236.873 114.864 237.417 114.864C237.961 114.864 238.457 114.736 238.905 114.48C239.364 114.213 239.727 113.835 239.993 113.344C240.26 112.843 240.393 112.261 240.393 111.6ZM245.782 108.656C246.038 108.155 246.4 107.765 246.87 107.488C247.35 107.211 247.931 107.072 248.614 107.072V108.576H248.23C246.598 108.576 245.782 109.461 245.782 111.232V116H244.326V107.232H245.782V108.656ZM249.751 111.584C249.751 110.688 249.932 109.904 250.295 109.232C250.657 108.549 251.153 108.021 251.783 107.648C252.423 107.275 253.132 107.088 253.911 107.088C254.679 107.088 255.345 107.253 255.911 107.584C256.476 107.915 256.897 108.331 257.175 108.832V107.232H258.647V116H257.175V114.368C256.887 114.88 256.455 115.307 255.879 115.648C255.313 115.979 254.652 116.144 253.895 116.144C253.116 116.144 252.412 115.952 251.783 115.568C251.153 115.184 250.657 114.645 250.295 113.952C249.932 113.259 249.751 112.469 249.751 111.584ZM257.175 111.6C257.175 110.939 257.041 110.363 256.775 109.872C256.508 109.381 256.145 109.008 255.687 108.752C255.239 108.485 254.743 108.352 254.199 108.352C253.655 108.352 253.159 108.48 252.711 108.736C252.263 108.992 251.905 109.365 251.639 109.856C251.372 110.347 251.239 110.923 251.239 111.584C251.239 112.256 251.372 112.843 251.639 113.344C251.905 113.835 252.263 114.213 252.711 114.48C253.159 114.736 253.655 114.864 254.199 114.864C254.743 114.864 255.239 114.736 255.687 114.48C256.145 114.213 256.508 113.835 256.775 113.344C257.041 112.843 257.175 112.261 257.175 111.6ZM271.651 107.072C272.334 107.072 272.942 107.216 273.475 107.504C274.008 107.781 274.43 108.203 274.739 108.768C275.048 109.333 275.203 110.021 275.203 110.832V116H273.763V111.04C273.763 110.165 273.544 109.499 273.107 109.04C272.68 108.571 272.099 108.336 271.363 108.336C270.606 108.336 270.003 108.581 269.555 109.072C269.107 109.552 268.883 110.251 268.883 111.168V116H267.443V111.04C267.443 110.165 267.224 109.499 266.787 109.04C266.36 108.571 265.779 108.336 265.043 108.336C264.286 108.336 263.683 108.581 263.235 109.072C262.787 109.552 262.563 110.251 262.563 111.168V116H261.107V107.232H262.563V108.496C262.851 108.037 263.235 107.685 263.715 107.44C264.206 107.195 264.744 107.072 265.331 107.072C266.067 107.072 266.718 107.237 267.283 107.568C267.848 107.899 268.27 108.384 268.547 109.024C268.792 108.405 269.198 107.925 269.763 107.584C270.328 107.243 270.958 107.072 271.651 107.072ZM280.695 116.144C280.023 116.144 279.421 116.032 278.887 115.808C278.354 115.573 277.933 115.253 277.623 114.848C277.314 114.432 277.143 113.957 277.111 113.424H278.615C278.658 113.861 278.861 114.219 279.223 114.496C279.597 114.773 280.082 114.912 280.679 114.912C281.234 114.912 281.671 114.789 281.991 114.544C282.311 114.299 282.471 113.989 282.471 113.616C282.471 113.232 282.301 112.949 281.959 112.768C281.618 112.576 281.09 112.389 280.375 112.208C279.725 112.037 279.191 111.867 278.775 111.696C278.37 111.515 278.018 111.253 277.719 110.912C277.431 110.56 277.287 110.101 277.287 109.536C277.287 109.088 277.421 108.677 277.687 108.304C277.954 107.931 278.333 107.637 278.823 107.424C279.314 107.2 279.874 107.088 280.503 107.088C281.474 107.088 282.258 107.333 282.855 107.824C283.453 108.315 283.773 108.987 283.815 109.84H282.359C282.327 109.381 282.141 109.013 281.799 108.736C281.469 108.459 281.021 108.32 280.455 108.32C279.933 108.32 279.517 108.432 279.207 108.656C278.898 108.88 278.743 109.173 278.743 109.536C278.743 109.824 278.834 110.064 279.015 110.256C279.207 110.437 279.442 110.587 279.719 110.704C280.007 110.811 280.402 110.933 280.903 111.072C281.533 111.243 282.045 111.413 282.439 111.584C282.834 111.744 283.17 111.989 283.447 112.32C283.735 112.651 283.885 113.083 283.895 113.616C283.895 114.096 283.762 114.528 283.495 114.912C283.229 115.296 282.85 115.6 282.359 115.824C281.879 116.037 281.325 116.144 280.695 116.144ZM286.415 116.096C286.137 116.096 285.903 116 285.711 115.808C285.519 115.616 285.423 115.381 285.423 115.104C285.423 114.827 285.519 114.592 285.711 114.4C285.903 114.208 286.137 114.112 286.415 114.112C286.681 114.112 286.905 114.208 287.087 114.4C287.279 114.592 287.375 114.827 287.375 115.104C287.375 115.381 287.279 115.616 287.087 115.808C286.905 116 286.681 116.096 286.415 116.096Z" fill="white"/>
<path d="M43.748 59.232C45.482 57.736 46.672 55.866 46.638 53.69C46.638 50.086 43.918 47.094 40.348 46.55C40.246 46.55 40.212 46.516 40.11 46.516C38.784 46.346 37.458 46.312 36.132 45.938C34.942 45.564 34.126 44.578 34.126 43.32C34.126 42.742 34.262 42.266 34.568 41.892C34.942 41.382 35.486 41.008 36.064 40.736C36.982 40.362 38.002 40.328 38.92 40.566C39.906 40.838 40.654 41.382 41.232 42.198C41.402 42.436 41.538 42.674 41.64 42.98C41.674 43.15 41.742 43.252 41.81 43.32C41.912 43.456 42.014 43.558 42.184 43.626C42.558 43.864 42.898 43.83 43.306 43.83L45.448 43.796C45.992 43.762 46.468 43.49 46.706 42.98C46.74 42.844 46.774 42.742 46.774 42.64C46.774 42.504 46.774 42.402 46.74 42.3L46.468 41.484C46.298 40.974 46.026 40.464 45.686 39.954C45.074 38.968 44.258 38.152 43.272 37.472C42.694 37.064 42.082 36.758 41.436 36.486C40.45 36.112 39.464 35.874 38.444 35.806C38.274 35.772 38.07 35.772 37.9 35.772C37.594 35.772 37.254 35.806 36.88 35.84C35.758 35.908 34.704 36.18 33.718 36.656C32.596 37.166 31.576 37.88 30.726 38.798L30.522 39.07C29.672 40.124 28.924 41.518 28.89 43.422C28.89 46.958 31.61 49.984 35.18 50.528C37.22 50.902 38.24 50.834 39.362 51.14C40.552 51.514 41.402 52.534 41.402 53.758C41.402 54.268 41.266 54.744 40.96 55.186C40.586 55.696 40.042 56.07 39.464 56.342C38.546 56.716 37.526 56.75 36.608 56.512C35.656 56.24 34.806 55.662 34.296 54.88C34.126 54.642 33.99 54.404 33.888 54.098C33.854 53.928 33.786 53.826 33.718 53.758C33.616 53.622 33.514 53.52 33.344 53.452C32.97 53.282 32.596 53.248 32.222 53.248L30.046 53.282C29.536 53.316 29.06 53.588 28.822 54.098C28.788 54.166 28.754 54.268 28.754 54.438C28.754 54.574 28.754 54.676 28.788 54.778L29.06 55.594C29.298 56.138 29.536 56.648 29.842 57.158C30.454 58.11 31.27 58.926 32.256 59.606C34.432 61.102 37.186 61.646 39.804 61.068C41.266 60.762 42.592 60.15 43.748 59.232ZM62.2052 36.86C61.9332 36.35 61.5252 36.078 60.9472 36.078H57.4792C56.9352 36.078 56.4252 36.35 56.1872 36.86L50.2372 59.708C50.2032 59.742 50.2032 59.844 50.2032 59.98C50.2032 60.524 50.6792 61 51.2232 61H53.5692C54.0792 61 54.6572 60.796 54.7932 60.286L55.3372 58.246C55.3372 58.212 55.3712 58.144 55.4732 58.042C55.5412 57.94 55.6772 57.872 55.9152 57.838H62.5112C62.7152 57.872 62.8512 57.94 62.9532 58.042C62.9872 58.076 63.0552 58.144 63.0892 58.246L63.6332 60.286C63.7692 60.796 64.3472 61 64.8572 61H67.1692C67.7472 61 68.2232 60.524 68.2232 59.98C68.2232 59.878 68.1892 59.81 68.1892 59.708L62.2052 36.86ZM56.9352 53.078C56.7312 53.078 56.6292 52.976 56.6292 52.738V52.67L58.6352 45.122C58.7372 44.884 58.9412 44.748 59.2132 44.748C59.4852 44.748 59.6892 44.884 59.7912 45.122L61.7972 52.67V52.738C61.7972 52.976 61.6952 53.078 61.4572 53.078H56.9352ZM84.5993 60.15C84.8373 60.66 85.3473 61 85.9253 61H88.2373C89.0193 61 89.6313 60.388 89.6313 59.606C89.6313 59.3 89.5293 58.994 89.3253 58.722L83.7833 48.964C83.7153 48.828 83.6813 48.692 83.6813 48.556C83.6813 48.386 83.7153 48.25 83.7833 48.114L89.3253 38.356C89.5293 38.084 89.6313 37.778 89.6313 37.472C89.6313 36.69 89.0193 36.078 88.2373 36.078H85.9253C85.3473 36.078 84.8373 36.418 84.5993 36.928L81.2673 42.81C81.1993 43.048 81.0293 43.15 80.7913 43.15C80.5533 43.15 80.3833 43.048 80.3153 42.81L76.9833 36.928C76.7453 36.418 76.2353 36.078 75.6573 36.078H73.2433C72.5293 36.112 71.9513 36.69 71.9513 37.472C71.9513 37.778 72.0533 38.084 72.2573 38.356L77.7993 48.114C77.9013 48.284 77.9353 48.454 77.9353 48.556C77.9353 48.658 77.9013 48.794 77.7993 48.964L72.2573 58.722C72.0533 58.994 71.9513 59.3 71.9513 59.606C71.9513 60.388 72.5633 61 73.3453 61H75.6573C76.2353 61 76.7453 60.66 76.9833 60.15L80.3153 54.268C80.3833 54.064 80.5533 53.962 80.7913 53.962C81.0293 53.962 81.1993 54.064 81.2673 54.268L84.5993 60.15ZM100.873 56.376C100.227 56.376 99.751 55.9 99.751 55.254V37.506C99.751 36.724 99.105 36.078 98.323 36.078H96.555C95.773 36.078 95.127 36.724 95.127 37.506V59.572C95.127 60.354 95.773 61 96.555 61H108.965C109.747 61 110.393 60.354 110.393 59.572V57.804C110.393 57.022 109.747 56.376 108.965 56.376H100.873ZM126.254 36.86C125.982 36.35 125.574 36.078 124.996 36.078H121.528C120.984 36.078 120.474 36.35 120.236 36.86L114.286 59.708C114.252 59.742 114.252 59.844 114.252 59.98C114.252 60.524 114.728 61 115.272 61H117.618C118.128 61 118.706 60.796 118.842 60.286L119.386 58.246C119.386 58.212 119.42 58.144 119.522 58.042C119.59 57.94 119.726 57.872 119.964 57.838H126.56C126.764 57.872 126.9 57.94 127.002 58.042C127.036 58.076 127.104 58.144 127.138 58.246L127.682 60.286C127.818 60.796 128.396 61 128.906 61H131.218C131.796 61 132.272 60.524 132.272 59.98C132.272 59.878 132.238 59.81 132.238 59.708L126.254 36.86ZM120.984 53.078C120.78 53.078 120.678 52.976 120.678 52.738V52.67L122.684 45.122C122.786 44.884 122.99 44.748 123.262 44.748C123.534 44.748 123.738 44.884 123.84 45.122L125.846 52.67V52.738C125.846 52.976 125.744 53.078 125.506 53.078H120.984ZM138.092 36.078C137.31 36.078 136.664 36.724 136.664 37.506V59.572C136.664 60.354 137.31 61 138.092 61H139.826C140.642 61 141.288 60.354 141.288 59.572V52.296C141.288 51.854 141.594 51.48 142.104 51.48C142.478 51.48 142.75 51.65 142.852 51.99L144.892 57.226C145.13 57.872 145.776 58.348 146.558 58.348C147.374 58.348 147.986 57.872 148.224 57.192L150.264 51.99C150.366 51.65 150.638 51.48 151.012 51.48C151.522 51.48 151.862 51.854 151.862 52.296V59.572C151.862 60.354 152.508 61 153.29 61H155.058C155.84 61 156.486 60.354 156.486 59.572V37.506C156.486 36.724 155.908 36.18 155.126 36.078H153.392C152.474 36.078 151.76 36.622 151.454 37.404L147.34 47.57C147.17 47.944 146.932 48.114 146.558 48.114C146.184 48.114 145.912 47.944 145.81 47.57L141.662 37.37C141.288 36.588 140.642 36.078 139.724 36.078H138.092ZM173.303 36.86C173.031 36.35 172.623 36.078 172.045 36.078H168.577C168.033 36.078 167.523 36.35 167.285 36.86L161.335 59.708C161.301 59.742 161.301 59.844 161.301 59.98C161.301 60.524 161.777 61 162.321 61H164.667C165.177 61 165.755 60.796 165.891 60.286L166.435 58.246C166.435 58.212 166.469 58.144 166.571 58.042C166.639 57.94 166.775 57.872 167.013 57.838H173.609C173.813 57.872 173.949 57.94 174.051 58.042C174.085 58.076 174.153 58.144 174.187 58.246L174.731 60.286C174.867 60.796 175.445 61 175.955 61H178.267C178.845 61 179.321 60.524 179.321 59.98C179.321 59.878 179.287 59.81 179.287 59.708L173.303 36.86ZM168.033 53.078C167.829 53.078 167.727 52.976 167.727 52.738V52.67L169.733 45.122C169.835 44.884 170.039 44.748 170.311 44.748C170.583 44.748 170.787 44.884 170.889 45.122L172.895 52.67V52.738C172.895 52.976 172.793 53.078 172.555 53.078H168.033ZM207.901 36.86C207.629 36.35 207.221 36.078 206.643 36.078H203.175C202.631 36.078 202.121 36.35 201.883 36.86L195.933 59.708C195.899 59.742 195.899 59.844 195.899 59.98C195.899 60.524 196.375 61 196.919 61H199.265C199.775 61 200.353 60.796 200.489 60.286L201.033 58.246C201.033 58.212 201.067 58.144 201.169 58.042C201.237 57.94 201.373 57.872 201.611 57.838H208.207C208.411 57.872 208.547 57.94 208.649 58.042C208.683 58.076 208.751 58.144 208.785 58.246L209.329 60.286C209.465 60.796 210.043 61 210.553 61H212.865C213.443 61 213.919 60.524 213.919 59.98C213.919 59.878 213.885 59.81 213.885 59.708L207.901 36.86ZM202.631 53.078C202.427 53.078 202.325 52.976 202.325 52.738V52.67L204.331 45.122C204.433 44.884 204.637 44.748 204.909 44.748C205.181 44.748 205.385 44.884 205.487 45.122L207.493 52.67V52.738C207.493 52.976 207.391 53.078 207.153 53.078H202.631ZM234.665 37.506C234.665 36.724 234.019 36.078 233.237 36.078H231.503C230.687 36.078 230.041 36.724 230.041 37.506V47.128C230.041 47.57 229.735 47.944 229.225 47.944C228.919 47.944 228.681 47.808 228.511 47.536L222.493 36.86C222.255 36.486 221.847 36.078 220.895 36.078H219.739C218.957 36.078 218.311 36.724 218.311 37.506V59.572C218.311 60.354 218.957 61 219.739 61H221.473C222.289 61 222.935 60.354 222.935 59.572V49.916C222.935 49.474 223.241 49.1 223.751 49.1C224.057 49.1 224.261 49.236 224.431 49.474L230.517 60.218C230.755 60.592 231.197 61 232.149 61H233.237C234.019 61 234.665 60.354 234.665 59.572V37.506ZM254.812 48.624C254.71 48.522 254.676 48.454 254.676 48.386C254.676 48.284 254.71 48.216 254.778 48.148C256.002 46.822 256.784 45.122 256.784 43.184C256.784 39.274 253.588 36.078 249.644 36.078H241.586C240.804 36.078 240.158 36.724 240.158 37.54V59.572C240.158 60.354 240.804 61 241.586 61H249.916C253.894 61 257.09 57.804 257.09 53.86C257.09 51.786 256.206 49.95 254.812 48.624ZM244.782 41.722C244.782 41.144 245.258 40.702 245.836 40.702H249.576C250.97 40.702 252.126 41.824 252.126 43.218C252.126 44.612 250.97 45.768 249.576 45.768H245.836C245.258 45.768 244.782 45.292 244.782 44.714V41.722ZM246.006 56.376C245.326 56.376 244.782 55.832 244.782 55.152V51.616C244.782 50.936 245.326 50.358 246.006 50.358H249.576C251.242 50.358 252.602 51.718 252.602 53.384C252.602 55.05 251.242 56.376 249.576 56.376H246.006ZM272.58 36.86C272.308 36.35 271.9 36.078 271.322 36.078H267.854C267.31 36.078 266.8 36.35 266.562 36.86L260.612 59.708C260.578 59.742 260.578 59.844 260.578 59.98C260.578 60.524 261.054 61 261.598 61H263.944C264.454 61 265.032 60.796 265.168 60.286L265.712 58.246C265.712 58.212 265.746 58.144 265.848 58.042C265.916 57.94 266.052 57.872 266.29 57.838H272.886C273.09 57.872 273.226 57.94 273.328 58.042C273.362 58.076 273.43 58.144 273.464 58.246L274.008 60.286C274.144 60.796 274.722 61 275.232 61H277.544C278.122 61 278.598 60.524 278.598 59.98C278.598 59.878 278.564 59.81 278.564 59.708L272.58 36.86ZM267.31 53.078C267.106 53.078 267.004 52.976 267.004 52.738V52.67L269.01 45.122C269.112 44.884 269.316 44.748 269.588 44.748C269.86 44.748 270.064 44.884 270.166 45.122L272.172 52.67V52.738C272.172 52.976 272.07 53.078 271.832 53.078H267.31ZM297.704 53.792C297.602 53.554 297.534 53.35 297.534 53.112C297.534 52.704 297.738 52.296 298.01 52.024C299.608 50.29 300.594 48.08 300.594 45.53C300.594 40.362 296.412 36.18 291.244 36.18H284.784C284.002 36.18 283.356 36.826 283.356 37.608V59.674C283.356 60.456 284.002 61.102 284.784 61.102H286.518C287.334 61.102 287.98 60.456 287.98 59.674V56.138C287.98 55.458 288.524 54.914 289.204 54.914H291.856C292.536 54.914 293.182 55.254 293.488 55.798L295.562 60.422C295.8 60.932 296.31 61.102 296.888 61.102H299.03C299.88 61.102 300.254 60.83 300.39 60.456C300.492 60.252 300.492 60.014 300.458 59.776L297.704 53.792ZM289.408 50.018C288.626 50.018 287.98 49.372 287.98 48.556V42.13C287.98 41.314 288.626 40.668 289.408 40.668H291.414V40.634C293.998 40.634 296.106 42.742 296.106 45.326C296.106 47.944 293.998 50.018 291.414 50.018H289.408ZM311.248 56.376C310.602 56.376 310.126 55.9 310.126 55.254V37.506C310.126 36.724 309.48 36.078 308.698 36.078H306.93C306.148 36.078 305.502 36.724 305.502 37.506V59.572C305.502 60.354 306.148 61 306.93 61H319.34C320.122 61 320.768 60.354 320.768 59.572V57.804C320.768 57.022 320.122 56.376 319.34 56.376H311.248ZM336.629 36.86C336.357 36.35 335.949 36.078 335.371 36.078H331.903C331.359 36.078 330.849 36.35 330.611 36.86L324.661 59.708C324.627 59.742 324.627 59.844 324.627 59.98C324.627 60.524 325.103 61 325.647 61H327.993C328.503 61 329.081 60.796 329.217 60.286L329.761 58.246C329.761 58.212 329.795 58.144 329.897 58.042C329.965 57.94 330.101 57.872 330.339 57.838H336.935C337.139 57.872 337.275 57.94 337.377 58.042C337.411 58.076 337.479 58.144 337.513 58.246L338.057 60.286C338.193 60.796 338.771 61 339.281 61H341.593C342.171 61 342.647 60.524 342.647 59.98C342.647 59.878 342.613 59.81 342.613 59.708L336.629 36.86ZM331.359 53.078C331.155 53.078 331.053 52.976 331.053 52.738V52.67L333.059 45.122C333.161 44.884 333.365 44.748 333.637 44.748C333.909 44.748 334.113 44.884 334.215 45.122L336.221 52.67V52.738C336.221 52.976 336.119 53.078 335.881 53.078H331.359ZM361.752 53.792C361.65 53.554 361.582 53.35 361.582 53.112C361.582 52.704 361.786 52.296 362.058 52.024C363.656 50.29 364.642 48.08 364.642 45.53C364.642 40.362 360.46 36.18 355.292 36.18H348.832C348.05 36.18 347.404 36.826 347.404 37.608V59.674C347.404 60.456 348.05 61.102 348.832 61.102H350.566C351.382 61.102 352.028 60.456 352.028 59.674V56.138C352.028 55.458 352.572 54.914 353.252 54.914H355.904C356.584 54.914 357.23 55.254 357.536 55.798L359.61 60.422C359.848 60.932 360.358 61.102 360.936 61.102H363.078C363.928 61.102 364.302 60.83 364.438 60.456C364.54 60.252 364.54 60.014 364.506 59.776L361.752 53.792ZM353.456 50.018C352.674 50.018 352.028 49.372 352.028 48.556V42.13C352.028 41.314 352.674 40.668 353.456 40.668H355.462V40.634C358.046 40.634 360.154 42.742 360.154 45.326C360.154 47.944 358.046 50.018 355.462 50.018H353.456ZM378.527 56.376C377.881 56.376 377.371 55.9 377.371 55.254V41.824C377.371 41.178 377.881 40.702 378.527 40.702H379.173C379.989 40.702 380.601 40.056 380.601 39.274V37.506C380.601 36.724 379.989 36.078 379.173 36.078H370.979C370.197 36.078 369.551 36.724 369.551 37.506V39.274C369.551 40.056 370.197 40.702 370.979 40.702H371.659C372.305 40.702 372.781 41.178 372.781 41.824V55.254C372.781 55.9 372.305 56.376 371.659 56.376H370.979C370.197 56.376 369.551 57.022 369.551 57.804V59.572C369.551 60.354 370.197 61 370.979 61H379.173C379.989 61 380.601 60.354 380.601 59.572V57.804C380.601 57.022 379.989 56.376 379.173 56.376H378.527Z" fill="white"/>
<path d="M52 182.255V152H81.5L52 182.255Z" fill="#449856"/>
</svg>
