<svg width="20" height="20" viewBox="0 0 20 20" fill="none" xmlns="http://www.w3.org/2000/svg">
<path d="M13 10C13 11.6568 11.6568 13 10 13C8.34323 13 7 11.6568 7 10C7 8.34323 8.34323 7 10 7C11.6568 7 13 8.34323 13 10Z" fill="white"/>
<path d="M15.5882 0H4.41177C1.97898 0 0 1.97898 0 4.41177V15.5882C0 18.021 1.97898 20 4.41177 20H15.5882C18.021 20 20 18.021 20 15.5882V4.41177C20 1.97898 18.021 0 15.5882 0ZM10 15.5147C6.95916 15.5147 4.48529 13.0408 4.48529 10C4.48529 6.95916 6.95916 4.48529 10 4.48529C13.0408 4.48529 15.5147 6.95916 15.5147 10C15.5147 13.0408 13.0408 15.5147 10 15.5147ZM16.3235 4.77941C15.7143 4.77941 15.2206 4.28567 15.2206 3.67647C15.2206 3.06727 15.7143 2.57353 16.3235 2.57353C16.9327 2.57353 17.4265 3.06727 17.4265 3.67647C17.4265 4.28567 16.9327 4.77941 16.3235 4.77941Z" fill="white"/>
</svg>
