<svg width="22" height="22" viewBox="0 0 22 22" fill="none" xmlns="http://www.w3.org/2000/svg">
<path d="M19.8 19.8V13.354C19.8 10.186 19.118 7.76599 15.422 7.76599C13.64 7.76599 12.452 8.73399 11.968 9.65799H11.924V8.05199H8.42599V19.8H12.078V13.97C12.078 12.43 12.364 10.956 14.256 10.956C16.126 10.956 16.148 12.694 16.148 14.058V19.778H19.8V19.8Z" fill="white"/>
<path d="M2.486 8.052H6.138V19.8H2.486V8.052Z" fill="white"/>
<path d="M4.312 2.20001C3.146 2.20001 2.2 3.14601 2.2 4.31201C2.2 5.47801 3.146 6.44601 4.312 6.44601C5.478 6.44601 6.424 5.47801 6.424 4.31201C6.424 3.14601 5.478 2.20001 4.312 2.20001Z" fill="white"/>
</svg>
