<svg width="121" height="78" viewBox="0 0 121 78" fill="none" xmlns="http://www.w3.org/2000/svg">
<g clip-path="url(#clip0_0_9399)">
<path d="M83.2843 33.3844L83.2551 33.3556L83.2258 33.3844H83.2843Z" fill="#449856"/>
<path d="M34.813 33.384L34.6968 33.2699L34.5806 33.384H34.813Z" fill="#449856"/>
<path d="M58.9314 56.2962L70.032 45.8531L70.003 45.8245L58.9314 56.2392L47.8889 45.7675L47.8308 45.8531L58.9314 56.2962Z" fill="#449856"/>
<path d="M70.0037 45.8247L58.9321 35.1818L47.8896 45.7676L58.9321 56.2393L70.0037 45.8247Z" fill="#449856"/>
<path d="M46.1168 22.912L34.6965 33.2696L34.8128 33.3837H50.3885L48.674 34.7818L42.4844 40.6312L45.8843 43.8554L57.014 33.3837L46.1168 22.912Z" fill="#449856"/>
<path d="M46.3207 19.5168L58.9323 31.3581L71.9508 19.5168H72.3867L85.1727 31.5293L88.8051 28.1053L58.9323 0L29.2629 28.1053L32.8082 31.4722L45.8848 19.5168H46.3207Z" fill="#449856"/>
<path d="M67.6789 33.3837H83.2256L83.2546 33.3552L72.1831 22.912L61.0825 33.3837L63.6397 36.0088L72.0378 43.9125L75.4668 40.6882L69.19 34.7818L67.6789 33.3837Z" fill="#449856"/>
<path d="M16.5928 77.696L16.5637 66.4254L10.6356 75.7558H9.12457L3.19651 66.568V77.696H0V60.6902H2.76062L9.93823 71.9608L16.9705 60.6902H19.7312L19.7602 77.696H16.5928Z" fill="#449856"/>
<path d="M36.3528 73.7585H27.2573L25.4556 77.6962H21.9976L30.1341 60.5762H33.4469L41.5834 77.6962H38.0963L36.3528 73.7585ZM35.2485 71.3047L31.8486 63.8574L28.4777 71.3047H35.2485Z" fill="#449856"/>
<path d="M43.9658 60.6902H51.8699C57.6817 60.6902 61.7209 64.1142 61.7209 69.2502C61.7209 74.3862 57.7398 77.8102 51.8699 77.8102H43.9658V60.6902ZM51.7246 74.9568C52.5656 75.0741 53.4225 75.009 54.235 74.766C55.0476 74.523 55.796 74.108 56.4276 73.5504C57.0592 72.9927 57.5587 72.306 57.8909 71.5384C58.223 70.7708 58.3798 69.9411 58.3501 69.1075C58.3583 68.2859 58.1858 67.4721 57.8442 66.722C57.5027 65.9719 57.0002 65.303 56.3711 64.7612C55.742 64.2194 55.0012 63.8173 54.1992 63.5825C53.3973 63.3477 52.5532 63.2858 51.7246 63.4009H47.3367V75.0709L51.7246 74.9568Z" fill="#449856"/>
<path d="M78.8372 75.0424V77.696H65.2666V60.6902H78.4595V63.3438H68.6375V67.7664H77.3552V70.363H68.6375V75.0424H78.8372Z" fill="#449856"/>
<path d="M98.6266 60.6902V77.696H95.866L85.8987 66.1971V77.696H82.5569V60.6902H85.3175L95.2848 72.2176V60.6902H98.6266Z" fill="#449856"/>
<path d="M115.191 73.7585H106.154L104.381 77.6962H100.923L109.06 60.5762H112.344L120.509 77.6962H116.993L115.191 73.7585ZM114.087 71.3047L110.687 63.8574L107.287 71.3047H114.087Z" fill="#449856"/>
</g>
<defs>
<clipPath id="clip0_0_9399">
<rect width="120.508" height="77.6961" fill="white"/>
</clipPath>
</defs>
</svg>
