<svg width="52" height="59" viewBox="0 0 52 59" fill="none" xmlns="http://www.w3.org/2000/svg">
<g clip-path="url(#clip0_0_3114)">
<path d="M26.8538 38.3506C26.7399 37.2166 26.6602 36.0827 26.5123 34.9487C26.1326 31.2234 24.8556 27.6446 22.7898 24.5163C21.2945 22.4161 19.3823 20.6441 17.1716 19.31C14.9609 17.9758 12.4989 17.1079 9.93783 16.76C9.32312 16.6579 8.70841 16.6126 8.0937 16.4992C7.97591 16.4591 7.85051 16.4463 7.72702 16.4617C7.60352 16.4771 7.48517 16.5204 7.38094 16.5881C7.27671 16.6559 7.18935 16.7464 7.12547 16.8528C7.06159 16.9592 7.02287 17.0787 7.01226 17.2022C6.01325 20.5652 5.81447 24.1138 6.4317 27.5666C6.77747 29.253 7.48961 30.8435 8.51812 32.2266C9.54663 33.6096 10.8666 34.7516 12.3853 35.5724C14.4571 36.7857 16.768 37.6022 18.965 38.6114C19.8074 38.997 20.1033 38.6114 20.183 37.829C20.5417 35.4762 20.4008 33.0747 19.7694 30.7796C19.138 28.4844 18.0302 26.3469 16.5175 24.5049C15.0832 22.7473 13.3643 21.2165 11.8161 19.6176C11.8685 19.6055 11.9231 19.6055 11.9755 19.6176C17.4851 22.5545 21.3555 26.7955 22.7215 33.021C23.3911 35.8989 23.293 38.9013 22.437 41.7298C22.2776 42.2968 22.0271 42.5349 21.4011 42.4442C16.1419 41.7071 11.2469 40.0969 7.17163 36.5363C4.29561 34.0052 2.49629 30.4772 2.14011 26.6708C1.72598 22.1622 2.41743 17.6209 4.15499 13.4375C4.22051 13.1493 4.39637 12.898 4.64513 12.737C4.8939 12.576 5.19591 12.5181 5.48687 12.5757C12.9772 12.8592 19.2951 15.4673 23.7688 21.6474C25.2058 23.7515 26.2116 26.1176 26.7285 28.6099C26.7855 28.848 26.8538 29.0861 26.8765 29.1882C27.5303 27.258 28.2903 25.3652 29.1532 23.5184C30.5097 20.9645 32.4093 18.7363 34.7195 16.9893C37.0297 15.2422 39.6949 14.0185 42.5289 13.4035C44.5138 12.9937 46.5267 12.7322 48.5508 12.621C48.7621 12.6276 48.9689 12.6833 49.1547 12.7837C49.3405 12.8841 49.5001 13.0265 49.6208 13.1994C51.6576 17.7302 52.3641 22.743 51.6585 27.6574C50.8161 32.8396 47.7995 36.4909 43.3257 39.0537C40.0409 40.8453 36.4446 41.9997 32.7277 42.4556C31.9308 42.569 31.5893 42.3081 31.4299 41.5711C30.5661 38.5497 30.5197 35.3546 31.2954 32.3097C32.0711 29.2647 33.6413 26.4782 35.8468 24.2328C37.6773 22.5543 39.6502 21.0367 41.7434 19.6969C41.8195 19.6472 41.9085 19.6207 41.9996 19.6207C42.0906 19.6207 42.1796 19.6472 42.2557 19.6969C41.789 20.0712 41.3109 20.4454 40.8555 20.8309C37.0989 24.074 34.3897 28.0316 33.7863 33.1457C33.6725 34.7729 33.6725 36.4059 33.7863 38.0331C33.7863 38.6001 34.0482 38.9516 34.7426 38.7248C38.1709 37.7909 41.3375 36.0837 43.9974 33.7354C46.2027 31.629 47.5247 28.7683 47.697 25.7296C47.918 23.1194 47.7026 20.4907 47.0595 17.9507C46.6953 16.4878 46.627 16.4311 45.1243 16.6126C35.9264 17.6785 29.7452 23.3029 27.9124 32.3633C27.5482 34.155 27.366 35.9806 27.1042 37.7836C27.1042 37.9877 27.0245 38.1919 26.979 38.396H26.7968" fill="white"/>
<path d="M26.979 25.6955C26.7855 25.3326 26.6489 25.1512 26.5692 24.9471C23.8713 18.5856 19.0105 14.6847 12.4878 12.6776C11.2583 12.3034 11.2128 12.2354 11.5998 11.0561C12.6701 7.79596 14.7608 4.96326 17.5655 2.97349C20.3702 0.983708 23.7411 -0.0584221 27.1839 -4.75983e-05C30.5679 0.0185109 33.8599 1.09899 36.5921 3.08786C39.3244 5.07673 41.3579 7.87279 42.4037 11.0787C42.8021 12.2807 42.7907 12.2808 41.6069 12.6323C38.4619 13.481 35.5522 15.032 33.0986 17.1677C30.6449 19.3034 28.7118 21.9677 27.4457 24.9584C27.3547 25.1625 27.2294 25.344 27.0245 25.6955" fill="white"/>
<path d="M10.8143 48.885C9.89226 51.3571 8.95881 53.8178 8.05951 56.3011C7.80907 56.9815 7.52448 57.4351 6.6821 57.4351C5.83972 57.4351 5.63481 56.9702 5.41853 56.3011C4.58753 53.8972 3.74515 51.4932 2.76616 49.1005V50.5633C2.76616 52.5591 2.76616 54.5549 2.76616 56.5393C2.76616 56.9929 3.1532 57.4238 3.35811 57.866C3.46056 58.0815 3.65408 58.2856 3.65408 58.501C3.65408 58.7165 3.32396 58.8072 3.14182 58.8185C2.25391 58.8185 1.36599 58.8185 0.489454 58.8185C0.295934 58.8185 -0.0341873 58.6144 -0.0341873 58.501C-0.0341873 58.3876 0.159331 58.0815 0.261783 57.866C0.466686 57.4578 0.842344 57.0496 0.853727 56.6413C0.91444 53.6174 0.91444 50.5935 0.853727 47.5696C0.853727 47.1387 0.432537 46.7192 0.204866 46.2883C0.113798 46.0955 -0.0683398 45.8574 -0.0228057 45.7213C0.0396037 45.6365 0.119776 45.5662 0.212157 45.5153C0.304538 45.4644 0.406923 45.4341 0.512222 45.4265C1.79856 45.4265 3.07352 45.3698 4.34848 45.4265C4.63306 45.4265 5.03149 45.8914 5.14532 46.2202C5.82833 48.0913 6.44305 49.985 7.08052 51.89C7.18298 52.1962 7.30819 52.491 7.50171 53.024C8.24164 51.0055 8.90189 49.1799 9.5849 47.3542C10.4728 45.0069 9.94918 45.4491 12.3739 45.3924C13.0341 45.3924 13.6944 45.3924 14.3432 45.3924C14.5821 45.4135 14.803 45.5276 14.9579 45.71C15.0149 45.7893 14.7986 46.0728 14.7075 46.2656C14.3833 46.7523 14.1518 47.2943 14.0245 47.8645C13.9448 50.5746 14.0245 53.2848 14.0245 55.995C14.0245 56.7094 14.0245 57.4465 14.7986 57.866C14.9352 57.9341 15.0149 58.2629 14.9807 58.4443C14.9466 58.6258 14.6961 58.7165 14.5367 58.7165C13.1935 58.7165 11.8388 58.7165 10.4956 58.7165C10.3926 58.7029 10.2944 58.665 10.2092 58.6058C10.1241 58.5466 10.0544 58.4679 10.0061 58.3763C10.0061 58.2175 10.1427 57.9908 10.2451 57.8093C10.4614 57.4351 10.8826 57.0836 10.8826 56.6754C10.9395 54.0446 10.8826 51.4251 10.8826 48.7943H10.7802" fill="white"/>
<path d="M38.112 52.5818C38.7268 53.5003 39.3415 54.2941 39.831 55.1559C40.3204 56.0177 40.7303 57.3104 41.8345 57.9794C42.3012 58.2516 42.1532 58.7505 41.6068 58.7845C40.5644 58.8527 39.5187 58.8527 38.4763 58.7845C38.2031 58.7845 37.8958 58.3763 37.7364 58.0815C37.1672 57.0156 36.6663 55.9156 36.1313 54.827C35.9814 54.4338 35.7529 54.0751 35.4597 53.7724C35.0773 53.5582 34.6618 53.4088 34.2303 53.3302C34.0812 53.6596 33.9742 54.0062 33.9115 54.3621C33.8262 55.0436 33.8262 55.7331 33.9115 56.4146C34.0705 56.9383 34.3003 57.438 34.5945 57.9001C34.73 58.0971 34.8195 58.3218 34.8564 58.5578C34.8564 58.6712 34.5035 58.8412 34.3213 58.8412C32.9667 58.8412 31.6234 58.8412 30.2802 58.8412C30.0867 58.8412 29.7451 58.6485 29.7451 58.5351C29.7451 58.4217 29.9159 58.1155 30.0184 57.9001C30.2233 57.4578 30.6103 57.0156 30.6103 56.5733C30.6672 53.6364 30.6672 50.6881 30.6103 47.7511C30.6103 47.2862 30.1891 46.8326 29.9614 46.3677C29.8422 46.1948 29.7643 45.9969 29.7338 45.7893C29.7338 45.6873 30.0184 45.5172 30.1777 45.5172C32.5341 45.5172 34.9019 45.4265 37.2469 45.6419C38.0007 45.637 38.7308 45.9042 39.3021 46.3941C39.8734 46.884 40.2473 47.5635 40.3546 48.3067C40.5478 49.1111 40.4604 49.957 40.1065 50.7052C39.7527 51.4534 39.1537 52.0593 38.408 52.423L38.112 52.6158V52.5818ZM33.9001 49.4067C33.8603 50.0259 33.8603 50.6471 33.9001 51.2664C33.9343 51.4152 34.0038 51.5536 34.1028 51.67C34.2019 51.7865 34.3276 51.8775 34.4693 51.9354C36.0516 52.1962 37.0989 51.2664 37.2355 49.5541C37.3118 49.2176 37.31 48.8682 37.2303 48.5325C37.1506 48.1968 36.9951 47.8836 36.7755 47.6168C36.556 47.35 36.2782 47.1366 35.9634 46.9928C35.6486 46.8491 35.305 46.7788 34.9588 46.7872C34.1392 46.7872 33.8205 47.014 33.8888 47.8418C33.8888 48.3521 33.8888 48.8851 33.8888 49.4067" fill="white"/>
<path d="M25.9431 58.8299C25.26 58.8299 24.5656 58.8299 23.8826 58.8299C23.655 58.8299 23.4501 58.6258 23.2338 58.5124C23.3476 58.2969 23.4159 58.0248 23.598 57.9C24.6226 57.1289 23.9509 56.2445 23.8029 55.4053C23.655 54.5662 22.9947 54.8043 22.4711 54.7816C21.9474 54.759 21.4124 54.7816 20.8888 54.7816C20.3651 54.7816 19.6024 54.6456 19.3975 55.5074C19.1926 56.3692 18.6462 57.2537 19.7276 57.9567C19.8145 58.0181 19.8849 58.0999 19.9326 58.1948C19.9802 58.2898 20.0037 58.3949 20.0008 58.501C19.9438 58.5903 19.8669 58.6654 19.7761 58.7205C19.6853 58.7755 19.5831 58.8091 19.4772 58.8185C18.4299 58.8185 17.3712 58.8185 16.324 58.8185C16.2174 58.8117 16.1141 58.7793 16.0229 58.724C15.9317 58.6687 15.8553 58.5922 15.8003 58.501C15.8003 58.3536 15.9142 58.1155 16.028 57.934C16.5609 57.2816 17.0226 56.5746 17.4054 55.8249C18.669 52.6725 19.887 49.4974 20.9912 46.2883C21.4466 44.9956 22.3686 45.3811 23.2679 45.2904C24.1672 45.1997 24.3152 45.7213 24.4973 46.4244C25.4308 49.6221 26.3415 52.8199 27.3432 56.0063C27.6489 56.6929 28.0307 57.3433 28.4816 57.9454C28.584 58.1041 28.7548 58.3196 28.7093 58.433C28.6619 58.5264 28.5946 58.6084 28.512 58.6731C28.4294 58.7377 28.3335 58.7835 28.2311 58.8072C27.4798 58.8072 26.7171 58.8072 25.9544 58.8072L25.9431 58.8299ZM21.9816 48.7603H21.7653L20.1488 53.2962H23.2452L21.9816 48.7603Z" fill="white"/>
<path d="M46.1716 58.9887C45.2268 58.8866 44.2819 58.7959 43.3485 58.6825C42.7338 58.6145 42.3923 58.3196 42.4378 57.6506C42.4034 57.2317 42.4034 56.8108 42.4378 56.3919C42.5175 56.0064 42.711 55.4847 42.9956 55.3714C43.5306 55.1446 43.986 55.3713 44.134 56.0517C44.2393 56.487 44.4862 56.8754 44.8362 57.1564C45.1863 57.4374 45.6197 57.5952 46.0692 57.6053C46.4587 57.6757 46.8606 57.6201 47.2162 57.4467C47.5718 57.2734 47.8624 56.9912 48.0455 56.6416C48.2287 56.2919 48.2947 55.8931 48.2341 55.5034C48.1734 55.1137 47.9892 54.7535 47.7084 54.4755C47.0381 53.9088 46.3093 53.4146 45.5341 53.0014C44.8395 52.708 44.2206 52.2618 43.7238 51.6962C43.2269 51.1306 42.8651 50.4603 42.6655 49.7356C42.5024 49.0104 42.5821 48.252 42.8925 47.5762C43.2029 46.9005 43.7269 46.3446 44.3844 45.9935C46.3651 45.1015 48.6064 44.9682 50.6795 45.6193C50.8099 45.6923 50.9225 45.7933 51.0091 45.9148C51.0957 46.0364 51.1542 46.1756 51.1804 46.3223C51.26 46.8029 51.26 47.2932 51.1804 47.7738C51.1234 48.0913 50.9299 48.5449 50.6795 48.6469C50.5686 48.6912 50.4496 48.7118 50.3302 48.7074C50.2108 48.7029 50.0936 48.6736 49.9863 48.6212C49.879 48.5688 49.784 48.4946 49.7073 48.4033C49.6306 48.312 49.574 48.2057 49.5411 48.0913C49.0061 46.8893 48.2662 46.3677 47.2644 46.6398C46.9762 46.7052 46.7044 46.8284 46.4656 47.0019C46.2269 47.1755 46.0261 47.3956 45.8756 47.6491C45.7988 47.9497 45.7907 48.2636 45.8517 48.5678C45.9128 48.872 46.0416 49.1586 46.2285 49.4067C46.8359 49.9402 47.4956 50.4113 48.1979 50.8128C49.2163 51.4393 50.1177 52.2374 50.8616 53.1715C52.3529 55.6662 50.577 58.5805 47.5376 58.8413C47.0823 58.8413 46.6269 58.8413 46.1716 58.8413V58.932" fill="white"/>
</g>
<defs>
<clipPath id="clip0_0_3114">
<rect width="52" height="59" fill="white"/>
</clipPath>
</defs>
</svg>
