<svg width="158" height="74" viewBox="0 0 158 74" fill="none" xmlns="http://www.w3.org/2000/svg">
<g clip-path="url(#clip0_0_9548)">
<path d="M51.9797 0.378479C54.8204 1.60411 57.377 2.65869 59.9053 3.91283C60.1613 4.135 60.3654 4.41121 60.5029 4.72161C60.6403 5.032 60.7079 5.36894 60.7006 5.70853C60.7006 10.098 60.7006 14.516 60.7006 18.934C60.7006 34.0121 60.7006 49.0902 60.7006 64.1968C60.7546 64.7426 60.665 65.293 60.4407 65.7931C60.2164 66.2933 59.8652 66.7257 59.4223 67.0471C56.9509 68.9853 54.5931 71.066 51.9229 73.3178L51.9797 0.378479Z" fill="#449856"/>
<path d="M69.6206 27.4275C70.9543 27.3406 72.2923 27.3406 73.626 27.4275C74.2535 27.5681 74.8029 27.9457 75.16 28.4821C76.7224 30.8479 78.1712 33.2992 79.8756 36.007L83.4833 30.3064C85.5286 27.0285 86.1536 26.8005 90.1874 27.6556V48.2063H85.7559V35.6649H85.3013L79.8756 43.8168L74.1942 35.2659V48.3773H69.6206V27.4275Z" fill="#449856"/>
<path d="M95.0732 27.6273C99.4479 26.9432 99.4479 26.9432 99.4479 31.4182C99.4479 34.2685 99.4479 36.8908 99.4479 39.6271C99.4479 42.3634 101.095 44.4155 103.908 44.387C106.72 44.3585 108.169 42.7625 108.226 39.6842C108.226 35.7222 108.226 31.7603 108.226 27.6843H112.686C112.788 27.9497 112.855 28.2277 112.884 28.5108C112.884 32.4728 112.884 36.4347 112.884 40.4251C112.937 42.182 112.408 43.907 111.38 45.3303C110.352 46.7536 108.883 47.795 107.203 48.2919C105.33 48.9879 103.289 49.0876 101.357 48.5776C99.4254 48.0676 97.6974 46.9725 96.4083 45.4416C95.6042 44.3371 95.1045 43.0393 94.9595 41.6792C94.7891 37.0617 94.9595 32.4158 94.9595 27.6558" fill="#449856"/>
<path d="M0.931934 33.7269C2.61609 37.9812 4.51229 42.148 6.61336 46.2113C8.41704 50.1578 9.10493 54.5258 8.60187 58.8381C8.57888 59.0968 8.5011 59.3477 8.37373 59.5738C8.24635 59.7999 8.07232 59.9961 7.86327 60.1493C5.5907 61.4889 3.23291 62.7144 0.67627 64.1396V33.8409H1.01715" fill="#449856"/>
<path d="M16.2994 33.1002L2.52197 4.39764C5.22065 5.30974 7.35118 5.96518 9.45331 6.76327C9.85101 6.76327 10.1067 7.47591 10.3055 7.90346C13.2883 13.6041 16.271 19.4758 19.197 25.2619C19.3496 25.5161 19.4485 25.7991 19.4876 26.0933C19.5267 26.3875 19.5051 26.6865 19.4242 26.972C18.5436 28.9102 17.4925 30.7915 16.2994 33.1002Z" fill="#449856"/>
<path d="M148.734 31.7317H142.57V48.2065H137.883V31.7602H131.86C131.662 31.3897 131.576 31.3042 131.576 31.1902C131.292 27.4278 131.292 27.4277 134.985 27.4277H146.348C148.734 27.4277 148.734 27.4279 148.706 29.8791C148.706 30.4492 148.706 30.9906 148.706 31.7317" fill="#449856"/>
<path d="M132.514 48.3492C127.742 48.3492 123.168 48.3492 118.595 48.3492C118.282 48.3492 117.686 47.5797 117.657 47.1521C117.657 40.7104 117.657 34.2401 117.657 27.6274H122.174V44.0737H130.071C132.543 44.0737 132.543 44.0738 132.514 46.6391C132.514 47.1236 132.514 47.6081 132.514 48.3777" fill="#449856"/>
<path d="M76.5227 57.7264C77.4579 56.4178 78.3026 55.0464 79.051 53.622C79.3111 52.9812 79.7946 52.4574 80.4114 52.1479C81.0282 51.8385 81.736 51.7647 82.403 51.9404C82.8007 51.9404 83.4257 52.5105 83.4257 52.8525C83.4257 57.1565 83.4257 61.4033 83.4257 65.9353H80.3009V57.7549H79.9316C78.7953 59.4081 77.6874 61.0899 76.3807 63.0281L72.9718 58.0401H72.5741V66.0494H69.563V52.2254C72.2049 51.4558 72.631 51.5984 73.9945 53.7361C74.7899 54.9617 75.5569 56.2158 76.5227 57.7264Z" fill="#449856"/>
<path d="M143.308 65.7645C142.803 66.0056 142.251 66.1337 141.691 66.1396C141.131 66.1454 140.576 66.029 140.066 65.7986C139.555 65.5681 139.1 65.2291 138.733 64.8049C138.366 64.3807 138.095 63.8815 137.939 63.3418C137.286 62.0307 136.405 61.09 134.559 61.8311V65.907H131.264C131.264 62.3441 131.264 58.7814 131.264 55.19C131.264 51.5986 130.639 51.912 134.616 51.8835C136.036 51.8835 137.457 51.9405 138.877 52.0546C139.815 52.0789 140.719 52.4135 141.449 53.0062C142.178 53.5989 142.692 54.4166 142.911 55.3325C143.2 56.323 143.156 57.3815 142.787 58.3447C142.417 59.308 141.742 60.1224 140.865 60.6625L140.212 61.1755L143.28 65.7645H143.308ZM134.559 58.6958C135.718 58.8574 136.894 58.8574 138.053 58.6958C138.451 58.5508 138.808 58.3121 139.095 57.9996C139.382 57.6871 139.59 57.31 139.701 56.9001C139.607 56.4797 139.41 56.0896 139.127 55.7658C138.844 55.442 138.485 55.195 138.081 55.0473C136.913 54.8882 135.728 54.8882 134.559 55.0473V58.6958Z" fill="#449856"/>
<path d="M93.7662 51.7124C94.7408 51.6737 95.7131 51.8344 96.6239 52.1848C97.5347 52.5352 98.3648 53.068 99.0638 53.7507C99.7627 54.4333 100.316 55.2515 100.69 56.1556C101.063 57.0597 101.25 58.0306 101.237 59.0092C101.282 60.5076 100.881 61.9853 100.083 63.253C99.2861 64.5207 98.1295 65.5207 96.7621 66.1245C95.3947 66.7284 93.8787 66.9087 92.4085 66.6423C90.9382 66.3759 89.5808 65.6749 88.5103 64.6293C87.4397 63.5837 86.7048 62.2411 86.3997 60.7736C86.0946 59.3061 86.2334 57.7807 86.7981 56.3929C87.3628 55.0051 88.3277 53.8181 89.5692 52.9842C90.8107 52.1502 92.2722 51.7075 93.7662 51.7124ZM97.8568 59.0663C97.8877 58.5084 97.8048 57.95 97.6131 57.4254C97.4215 56.9008 97.125 56.421 96.7421 56.0154C96.3591 55.6098 95.8976 55.2869 95.3859 55.0666C94.8742 54.8462 94.323 54.7329 93.7662 54.7338C93.2099 54.7136 92.6556 54.8091 92.138 55.0144C91.6203 55.2196 91.1506 55.5301 90.7584 55.9263C90.3662 56.3225 90.0599 56.7959 89.8589 57.3167C89.6579 57.8374 89.5664 58.3942 89.5903 58.9521C89.5674 59.518 89.6583 60.0827 89.8575 60.6125C90.0568 61.1423 90.3602 61.6265 90.7499 62.0361C91.1396 62.4457 91.6075 62.7724 92.1257 62.9967C92.6439 63.2211 93.2018 63.3384 93.7662 63.3417C94.3239 63.3541 94.8782 63.2512 95.3945 63.0392C95.9109 62.8272 96.3782 62.5108 96.7673 62.1097C97.1564 61.7086 97.459 61.2313 97.6562 60.7077C97.8534 60.1841 97.941 59.6254 97.9136 59.0663" fill="#449856"/>
<path d="M35.9872 30.7913C35.7599 34.0406 36.7257 37.3753 34.3111 40.4252C32.2901 42.9257 30.5469 45.6402 29.1126 48.5201C26.7264 53.4511 22.0961 55.5889 18.0622 58.5247L17.6646 58.2395L35.5042 30.5632L35.9872 30.7628" fill="#449856"/>
<path d="M118.025 65.8786V52.0261H128.479V54.7339H121.235V57.3847H127.513V60.3775H121.207V63.1708H128.536V65.8786H118.025Z" fill="#449856"/>
<path d="M157.03 27.542V48.3492C155.752 48.3492 154.53 48.3492 153.337 48.3492C153.111 48.2617 152.91 48.1197 152.751 47.9358C152.593 47.7519 152.482 47.5317 152.428 47.2946C152.428 40.8529 152.428 34.4111 152.428 27.9694C152.428 27.9694 152.428 27.77 152.655 27.5705L157.03 27.542Z" fill="#449856"/>
<path d="M144.899 65.9068C145.339 64.6845 145.9 63.51 146.575 62.401C148.564 59.9213 150.694 57.5556 153.024 54.8193H145.723V51.969H157.569C157.172 53.2211 156.638 54.4253 155.978 55.5602C154.018 58.0685 151.859 60.4344 149.53 63.1707H156.972V65.85L144.899 65.9068Z" fill="#449856"/>
<path d="M115.838 52.1117C113.992 56.6722 112.259 61.0902 110.412 65.4511C110.214 65.9072 109.191 66.2207 108.594 66.1637C108.261 66.1147 107.943 65.9921 107.663 65.8048C107.383 65.6175 107.148 65.3701 106.975 65.0806C105.214 60.8621 103.538 56.5296 101.833 52.3682C104.134 51.285 105.129 51.6556 105.924 53.7933C106.72 55.931 107.714 58.639 108.765 61.6033C109.788 58.753 110.611 56.6437 111.606 54.4205C112.628 51.7412 112.628 51.7412 115.923 52.1117" fill="#449856"/>
</g>
<defs>
<clipPath id="clip0_0_9548">
<rect width="156.978" height="72.9392" fill="white" transform="translate(0.591309 0.378479)"/>
</clipPath>
</defs>
</svg>
