<svg width="88" height="25" viewBox="0 0 88 25" fill="none" xmlns="http://www.w3.org/2000/svg">
<g clip-path="url(#clip0_0_3095)">
<path d="M81.4977 7.31794C81.7448 6.68807 81.9918 6.06966 82.2277 5.43979C82.7106 4.13425 83.1935 2.84015 83.6876 1.54606C83.6876 1.40863 83.9122 1.21396 84.0245 1.20251C85.3385 1.20251 86.6524 1.20251 88 1.20251V13.7999H84.485V7.66151H84.3614C83.9235 8.80672 83.4742 9.95192 83.0363 11.1544C82.7443 11.9331 82.4635 12.7119 82.1491 13.4448C82.1079 13.5368 82.0472 13.6184 81.9715 13.6837C81.8958 13.749 81.8069 13.7965 81.7111 13.8227C80.9474 13.8227 80.1838 13.8227 79.3303 13.8227C79.0832 11.7385 78.8362 9.67707 78.5891 7.61569H78.4656C77.934 9.66944 77.395 11.7346 76.8484 13.8113H73.0189C73.3109 12.7233 73.6029 11.6583 73.9061 10.5933C74.7259 7.68441 75.5569 4.76412 76.3655 1.84382C76.489 1.38574 76.6687 1.19105 77.1741 1.21395C78.2971 1.21395 79.4987 1.21395 80.6779 1.21395C80.925 3.28679 81.1608 5.30237 81.3967 7.31794H81.4977Z" fill="white"/>
<path d="M22.3593 7.55838C22.1796 8.87537 21.9887 10.2038 21.809 11.5208C21.7304 12.1392 21.663 12.7691 21.5507 13.3875C21.5507 13.5479 21.3374 13.7769 21.2251 13.7769C20.1021 13.7769 18.9004 13.7769 17.6763 13.7769C17.8448 12.563 18.002 11.4063 18.1592 10.2611C18.5523 7.45531 18.9566 4.64954 19.2822 1.83232C19.3496 1.33987 19.4844 1.12229 20.0122 1.15664C20.9218 1.15664 21.8427 1.15664 22.7524 1.15664C22.9079 1.13196 23.0669 1.16768 23.1979 1.25674C23.3289 1.34579 23.4224 1.4817 23.4599 1.63763C24.1225 3.48142 24.83 5.30232 25.515 7.13466C25.5824 7.31789 25.6835 7.48967 25.8182 7.81033C26.1439 5.5199 26.4471 3.36691 26.7616 1.20246H30.5798C30.4563 2.16444 30.3328 3.09206 30.198 4.03114C29.7825 7.08886 29.3445 10.158 28.9402 13.1928C28.8841 13.6051 28.783 13.7769 28.345 13.7654C27.3792 13.7654 26.4022 13.7654 25.4364 13.7654C25.296 13.7834 25.154 13.7477 25.0379 13.6652C24.9218 13.5827 24.8397 13.4593 24.8075 13.3188C24.1224 11.5666 23.415 9.81446 22.7187 8.07374C22.6513 7.87905 22.5615 7.70726 22.4829 7.52402H22.3593" fill="white"/>
<path d="M4.90671 6.84836C5.60299 8.46311 6.26556 9.96334 6.89445 11.4865C7.75918 13.5822 8.69127 15.655 9.4437 17.7966C9.81522 18.7603 9.9069 19.8126 9.70776 20.828C9.50862 21.8434 9.02708 22.7788 8.32067 23.5227C7.8089 24.0502 7.18731 24.4536 6.50193 24.7029C5.81655 24.9523 5.08496 25.0412 4.36131 24.9631C3.63766 24.885 2.94051 24.6419 2.32148 24.2518C1.70245 23.8617 1.17739 23.3346 0.785208 22.7096C0.287583 21.8715 0.005102 20.9191 -0.0361177 19.9403C-0.0773374 18.9615 0.124043 17.9879 0.549384 17.1095C1.67241 14.1892 2.98632 11.2918 4.21041 8.38294L4.87299 6.83691" fill="white"/>
<path d="M58.3522 13.7998C57.0944 13.7998 55.8928 13.7998 54.6912 13.7998C54.6028 13.7686 54.5224 13.7173 54.4563 13.6499C54.3902 13.5824 54.3399 13.5006 54.3093 13.4104C54.2509 13.0314 54.2171 12.6488 54.2083 12.2652C53.1639 12.2652 52.1419 12.2652 51.1312 12.2652C50.9964 12.2652 50.783 12.4828 50.7494 12.6317C50.5584 13.6853 49.9295 13.9258 48.9638 13.7769C47.998 13.628 47.1108 13.7769 46.1113 13.7769C46.1695 13.6053 46.237 13.437 46.3134 13.273C48.2076 9.3869 50.1092 5.50082 52.0184 1.61473C52.0685 1.46906 52.1661 1.34529 52.2948 1.26403C52.4235 1.18277 52.5757 1.14891 52.7259 1.16809C54.0286 1.16809 55.3425 1.16809 56.7014 1.16809C57.2517 5.37103 57.8244 9.52815 58.3522 13.7654V13.7998ZM53.8601 5.13052H53.658C53.1526 6.40171 52.6585 7.67289 52.1419 8.98988H54.0398C53.9724 7.68434 53.9163 6.42461 53.8601 5.16488" fill="white"/>
<path d="M34.7688 10.4214H38.1378C37.9806 11.5666 37.8346 12.6431 37.6774 13.754H30.2093C30.7933 9.59687 31.3323 5.43975 31.9612 1.23682H39.4293C39.2833 2.25606 39.1597 3.27529 38.9913 4.29453C38.9913 4.40906 38.6769 4.56937 38.5084 4.56937C37.5426 4.56937 36.5768 4.56937 35.5436 4.56937C35.4763 5.00456 35.4313 5.4054 35.364 5.87494H38.441C38.2838 7.02015 38.1378 8.01648 37.9806 9.10443H35.7345C34.7238 9.10443 34.6115 9.2075 34.7238 10.41" fill="white"/>
<path d="M63.3609 13.7769H59.3742C59.4528 13.0783 59.5314 12.4141 59.6212 11.7384L61.0363 1.66056C61.0363 1.40861 61.0924 1.17957 61.4406 1.19102H68.437C68.437 1.19102 68.437 1.19101 68.5493 1.25973C68.4707 1.90105 68.392 2.57673 68.291 3.24096C68.0776 4.56941 68.0664 4.55795 66.7524 4.55795C66.2358 4.55795 65.7193 4.55795 65.2139 4.55795C64.7085 4.55795 64.5626 4.66101 64.585 5.142C64.5746 5.3823 64.5369 5.62058 64.4727 5.85204H67.6396L67.2129 9.07009C66.3818 9.07009 65.562 9.07009 64.7535 9.07009C64.2144 9.07009 64.0123 9.19607 63.9561 9.79158C63.8326 11.0971 63.5968 12.4027 63.3946 13.7655" fill="white"/>
<path d="M42.338 4.61522H40.0919C40.2491 3.47001 40.4064 2.32479 40.5636 1.17958H49.0536C48.8964 2.32479 48.7279 3.47001 48.5707 4.54651H46.3247C46.2124 5.33671 46.0889 6.11546 45.9878 6.8942C45.6846 9.0472 45.3926 11.2002 45.0781 13.3417C45.0781 13.4906 44.8648 13.7311 44.7525 13.7311C43.5508 13.7311 42.3492 13.7311 41.0353 13.7311C41.462 10.6505 41.8775 7.62712 42.3155 4.5694" fill="white"/>
<path d="M69.8183 1.21395H73.8162C73.6927 2.18738 73.5692 3.11501 73.4344 4.04263C73.0189 7.0889 72.5697 10.1352 72.1766 13.2043C72.1092 13.7197 71.9408 13.8457 71.4691 13.8342C70.3461 13.8342 69.2231 13.8342 68.1 13.8342C68.6952 9.61982 69.2231 5.45124 69.8632 1.23686" fill="white"/>
<path d="M11.4885 0.0114458L13.2853 4.34035C13.7336 5.32973 14.109 6.3518 14.4084 7.39807C14.5278 7.83663 14.5557 8.29588 14.4902 8.74613C14.4247 9.19637 14.2672 9.62757 14.028 10.0118C13.7888 10.3961 13.4731 10.7249 13.1014 10.977C12.7298 11.229 12.3103 11.3987 11.8703 11.475C11.4306 11.5422 10.9818 11.5124 10.5543 11.3877C10.1268 11.263 9.73045 11.0463 9.39202 10.7522C9.05358 10.4581 8.78091 10.0934 8.59238 9.68271C8.40386 9.27204 8.30385 8.82493 8.29912 8.3715C8.27677 7.81349 8.36462 7.25659 8.55743 6.73386C9.45584 4.44343 10.4104 2.24462 11.3425 0H11.4885" fill="white"/>
</g>
<defs>
<clipPath id="clip0_0_3095">
<rect width="88" height="25" fill="white"/>
</clipPath>
</defs>
</svg>
