<svg width="25" height="25" viewBox="0 0 25 25" fill="none" xmlns="http://www.w3.org/2000/svg">
<g clip-path="url(#clip0_47_4183)">
<path d="M15.2794 14.2222C14.9866 13.9294 14.5118 13.9294 14.219 14.2222L13.2495 15.1917V10.6285C13.2495 10.2144 12.9139 9.87866 12.4997 9.87866C12.0856 9.87866 11.7499 10.2144 11.7499 10.6285V15.1916L10.7805 14.2222C10.4877 13.9294 10.0129 13.9294 9.72009 14.2222C9.42729 14.5151 9.42729 14.9898 9.72009 15.2826C12.1379 17.7005 12.02 17.6147 12.2128 17.6946C12.489 17.8091 12.8125 17.7495 13.0299 17.5321L15.2794 15.2826C15.5722 14.9898 15.5722 14.5151 15.2794 14.2222Z" fill="white"/>
<path d="M16.2489 20.751H8.75079C8.3367 20.751 8.00098 20.4152 8.00098 20.0011C8.00098 19.5871 8.3367 19.2513 8.75079 19.2513H16.2489C16.663 19.2513 16.9987 19.5871 16.9987 20.0011C16.9987 20.4152 16.663 20.751 16.2489 20.751Z" fill="white"/>
<path d="M21.4973 7.99325C21.4943 7.79207 21.4121 7.60785 21.278 7.47377C14.1085 0.304323 14.5045 0.675667 14.3534 0.594781C14.1112 0.465251 14.795 0.506116 5.13093 0.506116C4.23299 0.506116 3.50244 1.23667 3.50244 2.13461V22.8715C3.50244 23.7695 4.23299 24.5 5.13093 24.5H19.8694C20.7673 24.5 21.4979 23.7695 21.4979 22.8715C21.4979 22.6701 21.4982 8.05351 21.4973 7.99325ZM14.7496 7.12548V3.06611L18.9379 7.2544C14.581 7.2544 14.8724 7.25586 14.8525 7.25178C14.7938 7.23974 14.7496 7.18767 14.7496 7.12548ZM19.9983 22.8715C19.9983 22.9426 19.9405 23.0004 19.8694 23.0004H5.13093C5.05984 23.0004 5.00206 22.9426 5.00206 22.8715V2.13456C5.00206 2.06347 5.05984 2.00569 5.13093 2.00569H13.25V7.12548C13.25 8.02343 13.9805 8.75398 14.8785 8.75398H19.9983V22.8715Z" fill="white"/>
</g>
<defs>
<clipPath id="clip0_47_4183">
<rect width="24" height="24" fill="white" transform="translate(0.5 0.5)"/>
</clipPath>
</defs>
</svg>
