<svg width="18" height="19" viewBox="0 0 18 19" fill="none" xmlns="http://www.w3.org/2000/svg">
<path d="M17.421 13.68C17.3718 13.6388 13.8 10.9212 12.8196 11.1163C12.3516 11.2037 12.084 11.5406 11.547 12.2151C11.4606 12.324 11.253 12.585 11.0916 12.7705C10.7522 12.6537 10.4212 12.5115 10.101 12.3449C8.44831 11.4956 7.113 10.0861 6.3084 8.34163C6.15052 8.0037 6.01577 7.65426 5.9052 7.296C6.0816 7.125 6.3288 6.90587 6.4344 6.81213C7.0704 6.24847 7.3902 5.966 7.473 5.47073C7.6428 4.44473 5.07 0.648533 5.043 0.614333C4.92627 0.438311 4.77393 0.29188 4.597 0.185632C4.42008 0.0793843 4.22299 0.0159778 4.02 0C2.9772 0 0 4.07677 0 4.7633C0 4.8032 0.0546001 8.85907 4.7928 13.9466C9.6078 18.9424 13.4496 19 13.4874 19C14.1384 19 18 15.8574 18 14.7567C17.985 14.5431 17.9253 14.3358 17.8252 14.1496C17.7251 13.9634 17.587 13.803 17.421 13.68V13.68Z" fill="white"/>
</svg>
