<svg width="93" height="25" viewBox="0 0 93 25" fill="none" xmlns="http://www.w3.org/2000/svg">
<g clip-path="url(#clip0_0_3121)">
<path d="M48.1297 24.3417H43.2711V24.0276C43.2711 22.337 43.2711 20.6464 43.2711 18.9557C43.2711 16.9958 43.2711 15.0285 43.2711 13.0686C43.2572 12.6079 43.1856 12.1506 43.0578 11.7071C42.9438 11.2794 42.7037 10.8944 42.3677 10.6003C42.0317 10.3062 41.6148 10.1161 41.1692 10.0539C40.3565 9.86057 39.5029 9.91804 38.7246 10.2185C38.1861 10.4372 37.7152 10.7905 37.3585 11.2432C37.0018 11.6959 36.7718 12.2323 36.6913 12.7993C36.5733 13.3554 36.512 13.9218 36.5085 14.4899C36.5085 17.6541 36.5085 20.8184 36.5085 23.9827V24.3417H31.7717C31.7717 24.252 31.7717 24.1772 31.7717 24.1024C31.7717 20.2075 31.7717 16.3151 31.7717 12.4252C31.7717 11.4827 31.7717 10.5401 31.7717 9.59758C31.7765 9.53097 31.7952 9.46604 31.8266 9.40684C31.8581 9.34763 31.9016 9.29543 31.9545 9.25347C33.3608 8.37575 34.7773 7.50552 36.2039 6.64276C36.2039 6.64276 36.2801 6.64276 36.3562 6.57543V9.01409H36.4171C36.5999 8.76724 36.7903 8.52786 36.9655 8.26604C37.7043 7.21352 38.8283 6.4819 40.103 6.22385C41.9831 5.77104 43.9682 6.03852 45.6547 6.9719C46.2897 7.32788 46.8308 7.82541 47.2342 8.4244C47.6377 9.02339 47.8922 9.7071 47.9774 10.4204C48.0908 11.1633 48.1468 11.9135 48.145 12.6646C48.145 16.4049 48.145 20.1452 48.145 23.9453L48.1297 24.3417Z" fill="white"/>
<path d="M76.5049 18.7313H76.7334H80.9676C81.1504 18.7313 81.257 18.7313 81.2646 18.9707C81.2722 19.21 81.3255 19.2624 81.356 19.412C81.4203 19.8059 81.5978 20.1736 81.8677 20.4717C82.1375 20.7699 82.4884 20.9862 82.8791 21.0951C84.1872 21.4972 85.585 21.5232 86.9077 21.1699C87.2136 21.1273 87.4991 20.9943 87.7262 20.7885C87.9534 20.5828 88.1114 20.314 88.1794 20.0179C88.2607 19.7248 88.2324 19.4128 88.0997 19.1383C87.967 18.8639 87.7386 18.6452 87.456 18.5218C86.6411 18.2076 85.8034 17.9608 84.9657 17.7214C83.5112 17.3175 82.0414 16.9734 80.5868 16.5395C80.1616 16.3925 79.7491 16.2124 79.3531 16.0009C78.6273 15.6675 78.0177 15.1313 77.6005 14.4594C77.1833 13.7875 76.9771 13.0097 77.0076 12.2232C77.0051 10.9178 77.441 9.64798 78.2478 8.61065C79.0547 7.57332 80.1873 6.82639 81.4702 6.48562C82.8599 6.10978 84.309 5.99306 85.7425 6.14151C86.8119 6.22004 87.8638 6.45191 88.8648 6.82973C89.7281 7.13944 90.4952 7.66311 91.0916 8.34992C91.6881 9.03673 92.0936 9.86335 92.2689 10.7495C92.3527 11.131 92.406 11.4976 92.4822 11.9389H92.1852C90.7992 11.9389 89.3979 11.9389 88.0119 11.9389C87.8063 11.9389 87.7377 11.8941 87.7073 11.6846C87.668 11.2649 87.502 10.8662 87.2307 10.5397C86.9593 10.2132 86.595 9.97372 86.1842 9.85187C85.1262 9.52266 83.9904 9.52266 82.9324 9.85187C82.6137 9.9139 82.3236 10.0744 82.1043 10.3099C81.8851 10.5454 81.7483 10.8436 81.7139 11.161C81.6739 11.4227 81.7281 11.6899 81.8671 11.9165C82.0061 12.1432 82.2213 12.3151 82.4755 12.4027C83.6178 12.7468 84.7601 13.0685 85.9329 13.3602C87.2533 13.6028 88.5446 13.9788 89.7863 14.4823C90.452 14.7436 91.0548 15.1389 91.5558 15.6426C92.0568 16.1463 92.445 16.7474 92.6954 17.4072C93.0088 18.3074 93.0687 19.2741 92.869 20.205C92.6693 21.1359 92.2173 21.9966 91.5607 22.696C90.6464 23.7224 89.3972 24.4047 88.0271 24.626C85.7119 25.1579 83.298 25.1116 81.0057 24.4913C80.1901 24.295 79.4256 23.9325 78.7618 23.4273C78.0979 22.9222 77.5496 22.2856 77.1522 21.5589C76.6761 20.6898 76.4497 19.7097 76.4973 18.7238" fill="white"/>
<path d="M75.1722 24.3417H70.3059C70.1003 24.3417 69.9861 24.2819 69.948 24.0874C69.8414 23.5937 69.7424 23.1 69.6434 22.5913C69.6217 22.4876 69.6065 22.3826 69.5977 22.2771L68.7219 23.0252C68.0149 23.6647 67.1837 24.1573 66.2782 24.4736C65.3726 24.7898 64.4113 24.9231 63.452 24.8654C62.594 24.8642 61.7479 24.6677 60.9803 24.2913C60.2126 23.9149 59.5441 23.3689 59.0274 22.696C58.5116 21.9403 58.2141 21.0613 58.1669 20.1526C58.0543 19.1366 58.1981 18.1089 58.5857 17.1604C58.8696 16.4827 59.3075 15.8776 59.8657 15.3914C60.424 14.9052 61.0881 14.5508 61.8071 14.3552C62.8047 14.041 63.8556 13.8914 64.8533 13.6445C65.6833 13.4426 66.5134 13.2331 67.3359 12.9937C67.5415 12.9339 67.7091 12.7319 67.9147 12.6272C68.0716 12.5577 68.2348 12.5026 68.4021 12.4626C68.5124 13.4207 68.4349 14.3907 68.1736 15.3202C68.0271 15.6984 67.7722 16.0268 67.4398 16.2658C67.1073 16.5048 66.7115 16.644 66.3002 16.6667C65.5709 16.731 64.8564 16.9077 64.1831 17.1903C63.7858 17.3483 63.4477 17.6226 63.2148 17.9759C62.9818 18.3293 62.8652 18.7445 62.8809 19.1652C62.8673 19.4923 62.9006 19.8197 62.9799 20.1377C63.0733 20.5058 63.2812 20.8362 63.5746 21.0828C63.8681 21.3295 64.2325 21.4803 64.6172 21.5141C65.2741 21.622 65.9471 21.5875 66.5891 21.4131C67.2311 21.2386 67.8264 20.9284 68.3335 20.5042C68.6322 20.2423 68.8754 19.9252 69.0492 19.5709C69.223 19.2167 69.3239 18.8322 69.3464 18.4396C69.4137 18.0014 69.4468 17.5587 69.4454 17.1155C69.4454 15.38 69.4454 13.652 69.4454 11.8791C69.4453 11.6838 69.43 11.4887 69.3997 11.2957C69.3717 11.0104 69.2551 10.7404 69.0658 10.5223C68.8764 10.3043 68.6235 10.1486 68.3411 10.0763C67.3015 9.74945 66.1916 9.70294 65.1274 9.94167C64.7166 10.032 64.3391 10.2321 64.0368 10.5199C63.7344 10.8077 63.5188 11.1719 63.4139 11.5724C63.3454 11.7894 63.2921 12.0138 63.2388 12.2232H58.6847C58.7837 11.6921 58.8371 11.1909 58.9589 10.7271C59.2045 9.6115 59.7925 8.59668 60.6436 7.81953C61.4947 7.04238 62.5679 6.54027 63.7186 6.38093C64.6387 6.19599 65.5744 6.09582 66.5134 6.08171C68.3607 6.03735 70.1909 6.43801 71.8442 7.24868C72.4563 7.55333 72.9806 8.00407 73.3691 8.55955C73.7576 9.11504 73.9979 9.75747 74.068 10.4279C74.1331 10.9241 74.1662 11.4238 74.167 11.924C74.167 14.7591 74.167 17.5943 74.167 20.4294C74.167 21.1775 74.2203 21.9255 74.2888 22.6736C74.2966 22.8493 74.3514 23.02 74.4477 23.1684C74.5439 23.3168 74.6782 23.4376 74.8371 23.5189C74.957 23.5658 75.0554 23.6538 75.1143 23.7666C75.1731 23.8794 75.1882 24.0093 75.157 24.1323C75.1493 24.2144 75.1493 24.297 75.157 24.3791" fill="white"/>
<path d="M29.5708 16.7564H29.251C26.2657 16.7564 23.2729 16.7564 20.2876 16.7564C19.8227 16.7722 19.3618 16.8476 18.9168 16.9809C18.7361 17.0266 18.5664 17.107 18.4174 17.2174C18.2684 17.3278 18.1431 17.4661 18.0487 17.6242C18.0067 17.6981 17.9379 17.7537 17.8561 17.78C17.7742 17.8064 17.6853 17.8015 17.607 17.7663C17.5384 17.7663 17.4851 17.5718 17.4851 17.4746C17.4646 16.8781 17.4825 16.281 17.5384 15.6867C17.5902 15.1722 17.8273 14.6928 18.2071 14.3348C18.5869 13.9768 19.0843 13.7639 19.6098 13.7343C19.9144 13.6969 20.2191 13.6819 20.5237 13.6744H24.6741C24.6631 13.0287 24.5016 12.3941 24.2019 11.8193C23.9182 11.3063 23.5124 10.8683 23.0191 10.5427C22.5258 10.217 21.9597 10.0134 21.369 9.94913C20.6524 9.83411 19.9187 9.87756 19.2214 10.0763C18.6461 10.2513 18.1238 10.5636 17.7012 10.9852C17.2786 11.4068 16.9689 11.9247 16.7997 12.4925C16.5619 13.1731 16.4509 13.8903 16.4723 14.6095C16.4723 15.4698 16.3656 16.3375 16.4723 17.1903C16.655 19.5392 17.9953 20.8782 20.28 21.1475C20.8003 21.1873 21.3234 21.1748 21.8412 21.1101C22.5262 21.0252 23.1635 20.7201 23.6536 20.2424C23.7299 20.1697 23.8208 20.1136 23.9205 20.0775C24.0201 20.0414 24.1264 20.0262 24.2324 20.0329H29.1672C29.0378 20.3022 28.9388 20.5491 28.8017 20.781C28.1966 21.837 27.3562 22.7448 26.3433 23.4366C25.3305 24.1284 24.1715 24.5861 22.953 24.7756C20.976 25.1657 18.9268 24.9971 17.0434 24.2894C15.5295 23.7458 14.2074 22.7848 13.2357 21.5215C12.512 20.5173 12.0421 19.3583 11.8649 18.1403C11.4893 16.1244 11.5778 14.0515 12.1238 12.0736C12.5092 10.5585 13.3478 9.19156 14.5314 8.14892C15.715 7.10628 17.1894 6.43577 18.7645 6.22382C20.8389 5.827 22.9873 6.0673 24.9178 6.91203C25.8715 7.34932 26.7246 7.97278 27.4251 8.74443C28.1255 9.51608 28.6587 10.4197 28.9921 11.4004C29.3913 12.4691 29.5975 13.5982 29.6013 14.7367C29.6013 15.4025 29.6013 16.0682 29.6013 16.7639" fill="white"/>
<path d="M7.13507 -7.62939e-06V6.73249H10.0518V10.0688H9.08463C8.52109 10.0688 7.96516 10.0688 7.40161 10.0688C7.20361 10.0688 7.13507 10.0688 7.13507 10.3157C7.13507 12.9713 7.13507 15.6269 7.13507 18.2825C7.13507 18.8734 7.13507 19.4569 7.17315 20.0404C7.17315 20.7884 7.47777 21.0503 8.2317 21.0652C8.82571 21.0652 9.41971 21.0652 10.0366 21.0652V24.5063C9.39686 24.5063 8.75716 24.5811 8.11747 24.596C6.99094 24.6776 5.85845 24.574 4.76666 24.2893C4.09911 24.1608 3.50093 23.8006 3.08145 23.2745C2.66197 22.7485 2.4492 22.0917 2.48203 21.4243C2.48203 18.7911 2.48203 16.1879 2.48203 13.5099C2.48203 12.4551 2.48203 11.3929 2.48203 10.3381C2.48203 10.1137 2.41349 10.0464 2.19264 10.0539C1.54533 10.0539 0.905629 10.0539 0.265931 10.0539H-0.0386887V6.76241H2.48203V6.42579C2.48203 5.2663 2.48203 4.1143 2.48203 2.95481C2.48396 2.89495 2.4985 2.83613 2.52471 2.78206C2.55093 2.72799 2.58825 2.67983 2.63434 2.64063C4.06604 1.77288 5.50537 0.920103 6.94469 0.0673203C6.99075 0.0406228 7.03917 0.0180856 7.08938 -7.62939e-06" fill="white"/>
<path d="M55.867 7.77979H51.1607V24.3342H55.867V7.77979Z" fill="white"/>
<path d="M51.8765 5.31866L53.8261 2.54338C54.0089 2.28156 54.146 1.92249 54.4049 1.79532C54.7248 1.70916 55.0598 1.69131 55.3873 1.74296H58.6848C58.6462 1.80823 58.6029 1.87073 58.5553 1.92997L55.8061 5.09425C55.7463 5.17031 55.6687 5.2311 55.5799 5.27146C55.4911 5.31183 55.3936 5.33059 55.2959 5.32615C54.2678 5.32615 53.2321 5.32615 52.204 5.32615L51.8765 5.31866Z" fill="white"/>
</g>
<defs>
<clipPath id="clip0_0_3121">
<rect width="93" height="25" fill="white"/>
</clipPath>
</defs>
</svg>
