<svg width="163" height="28" viewBox="0 0 163 28" fill="none" xmlns="http://www.w3.org/2000/svg">
<g clip-path="url(#clip0_0_9538)">
<path d="M162.591 17.6908C161.421 17.6908 160.251 17.6908 159.053 17.6908C158.34 17.6908 158.111 17.938 158.111 18.6242C158.111 21.177 158.111 23.7573 158.111 26.3101C158.111 27.0513 157.883 27.2983 157.113 27.2983C154.26 27.2983 154.26 27.2983 154.26 24.6905C154.26 22.7141 154.26 20.7378 154.26 18.7889C154.26 17.8831 153.975 17.6359 153.09 17.6908C152.206 17.7457 151.407 17.6908 150.551 17.6908C149.695 17.6908 149.724 17.4713 149.724 16.8949C149.767 16.1817 149.767 15.4668 149.724 14.7537C149.724 14.0949 149.923 13.8203 150.637 13.8478C151.35 13.8752 152.406 13.8478 153.261 13.8478C154.117 13.8478 154.26 13.6008 154.26 12.8871C154.26 9.07157 154.26 5.25608 154.26 1.44054C154.26 0.562145 154.545 0.315002 155.43 0.315002C158.111 0.315002 158.111 0.315009 158.111 2.8953C158.111 6.21674 158.111 9.53816 158.111 12.8322C158.111 13.6282 158.34 13.9027 159.167 13.8478C159.994 13.7929 161.449 13.8478 162.591 13.8478V17.6908Z" fill="#449856"/>
<path d="M47.6167 9.07166C48.3484 8.42904 49.1305 7.84182 49.9561 7.31499C51.2797 6.48124 52.8176 6.01677 54.399 5.97316C55.9804 5.92955 57.5434 6.30843 58.9145 7.06787C60.3342 7.73484 61.5293 8.77406 62.3621 10.0658C63.1949 11.3576 63.6316 12.8494 63.6219 14.3695C63.6219 18.3497 63.6219 22.3026 63.6219 26.2828C63.6219 27.0788 63.3366 27.3533 62.5663 27.2984C61.9113 27.2439 61.2527 27.2439 60.5977 27.2984C59.7133 27.2984 59.4565 26.9964 59.485 26.2004C59.485 22.3848 59.485 18.5693 59.485 14.7538C59.4998 14.1015 59.3713 13.4535 59.108 12.8522C58.8448 12.2509 58.4526 11.7097 57.9572 11.2641C57.4618 10.8185 56.8743 10.4785 56.233 10.2662C55.5917 10.054 54.9111 9.97444 54.2356 10.0325C52.9723 10.1565 51.8039 10.7337 50.9632 11.6494C50.1225 12.5651 49.6713 13.752 49.6994 14.9735C49.6994 18.7066 49.6994 22.4124 49.6994 26.1456C49.6994 27.0789 49.3855 27.3808 48.4726 27.2984C47.8462 27.2436 47.216 27.2436 46.5896 27.2984C45.7337 27.2984 45.477 27.0239 45.477 26.2278C45.477 22.33 45.477 18.4595 45.477 14.5616C45.4704 13.9405 45.3327 13.3271 45.0722 12.7587C44.8117 12.1903 44.4338 11.6788 43.9615 11.2552C43.4893 10.8316 42.9325 10.5047 42.3249 10.2945C41.7173 10.0843 41.0717 9.99528 40.4272 10.0325C39.1583 10.0824 37.9597 10.6064 37.086 11.4931C36.2123 12.3799 35.7324 13.5595 35.7483 14.7813C35.7483 18.5419 35.7483 22.3025 35.7483 26.0632C35.7483 27.271 35.7483 27.271 34.436 27.2984C31.583 27.2984 31.583 27.2984 31.583 24.5534C31.583 21.2595 31.583 17.9655 31.583 14.6715C31.5904 13.517 31.8351 12.3751 32.303 11.3118C32.7708 10.2486 33.4526 9.2848 34.3091 8.47605C35.1655 7.6673 36.1798 7.02955 37.2934 6.59943C38.4071 6.1693 39.5982 5.95531 40.7981 5.96981C42.0825 6.00234 43.346 6.2899 44.5095 6.81421C45.673 7.33852 46.7114 8.0884 47.5597 9.01687" fill="#449856"/>
<path d="M73.0934 20.9851C73.7667 21.7114 74.6009 22.283 75.5343 22.658C76.4678 23.033 77.4768 23.2018 78.487 23.1517C79.4973 23.1017 80.4829 22.8341 81.3714 22.3688C82.2599 21.9036 83.0286 21.2526 83.6209 20.4635C83.6883 20.3165 83.7884 20.1855 83.9143 20.0797C84.0401 19.974 84.1885 19.896 84.3491 19.8515C84.5096 19.807 84.6784 19.7969 84.8434 19.822C85.0084 19.8472 85.1657 19.9069 85.3041 19.9969C86.16 20.4087 87.1015 20.6832 87.9859 21.0126C87.4153 24.2517 82.0232 27.5181 77.7723 27.2711C75.0149 27.1616 72.3969 26.0751 70.4219 24.2205C68.4469 22.3658 67.2543 19.8741 67.0736 17.2245C66.9759 14.6117 67.8727 12.0545 69.5956 10.0328C71.3186 8.01111 73.7493 6.66408 76.4314 6.24451C79.2096 5.8951 82.0243 6.54118 84.3393 8.05982C86.6542 9.57846 88.3076 11.8635 88.9844 14.4795L73.0649 21.1773L73.0934 20.9851ZM71.3531 17.4714L83.1644 12.503C82.2036 11.4766 80.9295 10.7697 79.525 10.4836C78.1205 10.1976 76.6579 10.3472 75.3473 10.911C74.0611 11.4766 72.9875 12.41 72.2727 13.584C71.558 14.758 71.2368 16.1154 71.3531 17.4714Z" fill="#449856"/>
<path d="M131.351 16.6203C131.344 19.4265 130.191 22.1178 128.143 24.1149C126.094 26.112 123.312 27.2552 120.395 27.2984C117.541 27.2575 114.807 26.1891 112.731 24.3039C110.656 22.4187 109.39 19.8535 109.183 17.1144C109.18 14.2814 110.316 11.5571 112.352 9.51088C114.389 7.46465 117.168 6.25483 120.11 6.13443C121.572 6.11631 123.024 6.37641 124.381 6.89976C125.738 7.42311 126.975 8.19938 128.02 9.18401C129.064 10.1686 129.896 11.3422 130.468 12.6372C131.039 13.9322 131.339 15.3233 131.351 16.7302V16.6203ZM120.253 23.2633C121.133 23.2669 122.006 23.1036 122.82 22.7828C123.635 22.462 124.377 21.9897 125.002 21.3932C125.627 20.7968 126.124 20.0878 126.464 19.3065C126.805 18.5252 126.982 17.6871 126.986 16.84C127.016 15.9758 126.865 15.1146 126.542 14.3079C126.218 13.5012 125.729 12.7658 125.103 12.1455C124.477 11.5252 123.727 11.0329 122.899 10.6981C122.07 10.3633 121.18 10.1929 120.281 10.1971C119.384 10.1789 118.491 10.3328 117.656 10.6498C116.821 10.9669 116.06 11.4408 115.418 12.0438C114.775 12.6468 114.264 13.3668 113.913 14.162C113.563 14.9572 113.381 15.8116 113.377 16.6753C113.392 18.401 114.113 20.0515 115.384 21.2692C116.655 22.487 118.373 23.1737 120.167 23.1809" fill="#449856"/>
<path d="M91.8667 21.781C93.4358 21.781 94.7197 21.781 95.7753 21.781C96.032 21.781 96.3173 22.028 96.5456 22.2476C97.1259 22.7975 97.8748 23.1532 98.6814 23.2619C99.488 23.3707 100.31 23.2268 101.025 22.8516C101.323 22.6862 101.569 22.4451 101.735 22.1546C101.901 21.8641 101.981 21.5354 101.967 21.2042C101.952 20.8729 101.843 20.5518 101.652 20.276C101.461 20.0002 101.194 19.7803 100.882 19.64C100.153 19.3148 99.3713 19.1106 98.5712 19.036C97.3998 18.9421 96.2663 18.5915 95.2575 18.011C94.2487 17.4305 93.3914 16.6357 92.7511 15.6872C92.1161 14.6533 91.8175 13.4602 91.8938 12.2615C91.9701 11.0628 92.4177 9.91359 93.1791 8.96196C93.8876 7.9231 94.899 7.10853 96.0865 6.62024C97.2741 6.13195 98.585 5.99165 99.855 6.21697C101.392 6.33182 102.847 6.93244 103.992 7.92538C105.138 8.91833 105.91 10.2479 106.189 11.7069C106.189 12.4206 106.189 12.6128 105.39 12.5854H104.02C102.965 12.5854 102.166 12.5854 101.681 11.3776C101.263 10.7864 100.643 10.3552 99.9286 10.1595C99.2141 9.96384 98.4509 10.016 97.7723 10.307C97.174 10.5232 96.6757 10.9381 96.3671 11.4766C96.0584 12.0151 95.9599 12.6419 96.0891 13.2441C96.1336 13.6395 96.3064 14.0114 96.583 14.307C96.8595 14.6026 97.2257 14.8069 97.6297 14.8911C98.6568 15.1656 99.7409 15.3029 100.796 15.5225C102.098 15.6862 103.312 16.2417 104.265 17.1095C105.218 17.9772 105.861 19.1128 106.103 20.3537C106.41 21.6756 106.198 23.0599 105.508 24.2405C104.818 25.4211 103.699 26.3147 102.366 26.7494C100.796 27.4459 99.0245 27.5997 97.3506 27.1845C95.6768 26.7694 94.2032 25.811 93.1791 24.4712C92.7318 23.6363 92.341 22.7744 92.0093 21.8909" fill="#449856"/>
<path d="M4.96492 17.8558C4.96492 15.1108 4.96492 12.3658 4.96492 9.62086C4.96492 8.85226 4.70815 8.55032 3.90932 8.60522C3.11049 8.66012 2.39724 8.60522 1.65547 8.60522C0.913698 8.60522 0.799577 8.41299 0.828106 7.83655C0.856636 7.2601 0.828106 6.27194 0.828106 5.47589C0.828106 4.67985 1.08488 4.70738 1.65547 4.70738H4.08049C4.73667 4.70738 4.96492 4.46034 4.96492 3.85644C4.96492 3.25255 4.96492 2.2917 4.96492 1.5231C4.96492 0.754505 5.19314 0.727116 5.79227 0.727116C9.15877 0.727116 8.44553 0.342831 8.64524 3.14272C8.65956 3.32546 8.65956 3.50901 8.64524 3.69175C8.64524 4.46035 8.90201 4.73483 9.70084 4.70738H19.0301C20.371 4.70738 20.3709 4.70733 20.3995 6.02493C20.3995 8.60522 20.3995 8.60522 17.7462 8.60522H9.81496C8.90201 8.60522 8.61672 8.85234 8.61672 9.70329C8.61672 15.1933 8.61672 20.6832 8.61672 26.1732C8.61672 27.1065 8.35995 27.4633 7.36141 27.4358C4.50844 27.4358 5.05051 27.6829 5.05051 25.2399C5.05051 22.7968 5.05051 20.4361 5.05051 18.0205" fill="#449856"/>
<path d="M149.296 0.864326C149.296 1.93487 149.296 3.08785 149.296 4.2133C149.247 4.33568 149.171 4.44591 149.072 4.53615C148.974 4.6264 148.855 4.69437 148.726 4.73486C146.89 5.23758 145.288 6.32746 144.183 7.82464C143.078 9.32183 142.537 11.1368 142.649 12.9698C142.649 13.6561 142.906 13.8482 143.562 13.8208C144.218 13.7933 145.131 13.8208 145.901 13.8208C146.671 13.8208 146.728 14.0128 146.7 14.5343C146.7 15.5225 147.042 16.8401 146.5 17.444C145.958 18.0479 144.589 17.7736 143.647 17.7736C142.706 17.7736 142.677 17.993 142.677 18.6793C142.677 21.2047 142.677 23.7576 142.677 26.283C142.677 27.1339 142.392 27.4084 141.536 27.3535C140.823 27.3124 140.109 27.3124 139.396 27.3535C138.712 27.3535 138.483 27.079 138.483 26.4477C138.483 23.8948 138.483 21.3146 138.483 18.7617C138.483 18.048 138.312 17.7187 137.485 17.7736C136.658 17.8285 135.944 17.7736 135.145 17.7736C134.347 17.7736 134.375 17.5814 134.375 17.0598C134.375 16.5383 134.375 15.303 134.375 14.3148C134.375 13.3266 134.632 13.6011 135.145 13.6011C135.659 13.6011 136.658 13.6011 137.399 13.6011C138.141 13.6011 138.455 13.409 138.483 12.613C138.475 9.41455 139.694 6.32568 141.907 3.9387C143.639 2.07299 146.027 0.889982 148.611 0.617371H149.011H149.325" fill="#449856"/>
<path d="M27.5606 20.5182C27.5606 22.3848 27.5606 24.2788 27.5606 26.0082C27.5606 26.9415 27.2467 27.2434 26.3338 27.161C25.6788 27.1065 25.0202 27.1065 24.3652 27.161C23.5949 27.161 23.3667 26.8866 23.3667 26.1729C23.3667 22.275 23.3667 18.4044 23.3667 14.534C23.3667 13.8477 23.5379 13.4909 24.3367 13.5458C25.0869 13.6007 25.8403 13.6007 26.5905 13.5458C27.3323 13.5458 27.5606 13.7929 27.5606 14.4792C27.5606 16.4281 27.5606 18.4044 27.5606 20.3808" fill="#449856"/>
<path d="M28.1591 6.54644C28.1824 6.89659 28.1312 7.24769 28.0087 7.57816C27.8861 7.90863 27.6949 8.21154 27.4465 8.46847C27.1982 8.7254 26.898 8.93095 26.5643 9.07245C26.2306 9.21396 25.8704 9.28841 25.5058 9.29143C24.7491 9.29143 24.0235 9.00219 23.4884 8.4874C22.9534 7.97262 22.6528 7.27446 22.6528 6.54644C22.6528 5.81842 22.9534 5.12027 23.4884 4.60548C24.0235 4.09069 24.7491 3.80145 25.5058 3.80145C25.874 3.77041 26.2449 3.81452 26.5942 3.93096C26.9435 4.0474 27.2633 4.23355 27.5326 4.47714C27.8019 4.72074 28.0148 5.01628 28.1571 5.3445C28.2995 5.67272 28.3682 6.02621 28.3588 6.38175" fill="#449856"/>
</g>
<defs>
<clipPath id="clip0_0_9538">
<rect width="161.735" height="26.9558" fill="white" transform="translate(0.856445 0.370178)"/>
</clipPath>
</defs>
</svg>
