<svg width="22" height="22" viewBox="0 0 22 22" fill="none" xmlns="http://www.w3.org/2000/svg">
<g clip-path="url(#clip0_15_74)">
<path d="M8.2075 20.0253C7.25615 20.0253 6.27694 19.9482 5.29185 19.7938C3.55683 19.5216 1.80048 18.614 1.30349 18.3423L0 17.6296L1.41125 17.1655C2.95392 16.6583 3.89235 16.3435 5.05401 15.8507C3.89084 15.2875 2.99437 14.2742 2.56284 12.9643L2.23453 11.9676L2.50376 12.0087C2.24847 11.7514 2.04688 11.4903 1.89062 11.2528C1.33488 10.4087 1.04065 9.37723 1.10325 8.49335L1.16502 7.6234L1.68585 7.82516C1.46614 7.41024 1.30735 6.96712 1.21403 6.50269C0.986599 5.37006 1.17694 4.16677 1.75013 3.11454L2.20382 2.28168L2.81058 3.01047C4.72957 5.31568 7.16014 6.68313 10.0449 7.08344C9.92708 6.27123 10.0154 5.48739 10.3076 4.78478C10.6478 3.9667 11.2531 3.27299 12.0574 2.77851C12.9507 2.22948 14.0339 1.96345 15.1077 2.02941C16.2468 2.0994 17.2811 2.52624 18.1025 3.26459C18.5037 3.16036 18.7993 3.04908 19.1987 2.89869C19.4391 2.80822 19.7117 2.7055 20.0527 2.588L21.3096 2.15496L20.49 4.49575C20.544 4.49122 20.5997 4.48736 20.658 4.48484L22.0001 4.42408L21.2068 5.5082C21.1614 5.5703 21.1498 5.58793 21.1337 5.61226C21.0697 5.70861 20.9902 5.82845 19.9013 7.28234C19.6288 7.6464 19.4926 8.12057 19.518 8.61773C19.6145 10.507 19.3827 12.2164 18.8286 13.6981C18.3046 15.1 17.4926 16.3028 16.4153 17.2731C15.0823 18.4735 13.3825 19.2955 11.363 19.7157C10.3724 19.9219 9.30857 20.0253 8.2075 20.0253Z" fill="white"/>
</g>
<defs>
<clipPath id="clip0_15_74">
<rect width="22" height="22" fill="white"/>
</clipPath>
</defs>
</svg>
