<svg width="183" height="63" viewBox="0 0 183 63" fill="none" xmlns="http://www.w3.org/2000/svg">
<g clip-path="url(#clip0_0_9413)">
<path d="M38.7017 47.668C37.8427 52.5791 37.356 56.8973 37.0697 60.256C36.424 60.1238 35.7916 59.935 35.1801 59.6917C29.454 57.6313 26.0469 52.5508 24.7585 45.8616C26.4991 46.6577 28.3942 47.0717 30.3129 47.0752C33.0128 47.0823 35.6468 46.253 37.8427 44.7045C38.2722 46.0028 38.5585 47.0471 38.7017 47.5269" fill="#449856"/>
<path d="M39.5604 43.4058C39.3027 44.563 39.0736 45.7201 38.8732 46.8491C38.7014 46.2282 38.4724 45.438 38.1575 44.5348C38.664 44.1762 39.1339 43.7696 39.5604 43.321" fill="#449856"/>
<path d="M58.3126 49.0507C58.0263 49.4741 57.74 49.9257 57.4251 50.3491C54.0969 50.5145 50.7957 51.0253 47.5762 51.8732C44.3913 52.6975 41.3303 53.9311 38.4717 55.5423C38.6148 54.4698 38.758 53.3408 38.9298 52.1553C40.9149 51.2633 42.9869 50.573 45.1139 50.095C49.4377 49.1102 53.8849 48.7583 58.3126 49.0507Z" fill="#449856"/>
<path d="M59.9167 46.4824C59.745 46.821 59.5445 47.1314 59.3441 47.4701C53.929 46.5425 48.3866 46.6095 42.9961 47.6677C41.8115 47.8988 40.6444 48.2101 39.5032 48.5992C39.675 47.6396 39.8467 46.6799 40.0472 45.7767L41.7936 45.4379C47.8493 44.5456 54.0284 44.9403 59.9167 46.5952" fill="#449856"/>
<path d="M51.6137 53.4256C53.0249 52.9854 54.4584 52.618 55.9083 52.3248L54.7058 53.6232C51.8061 56.7732 48.0498 59.0362 43.8835 60.1431C41.953 60.6016 39.9521 60.6974 37.9856 60.4254C42.0206 57.243 46.6512 54.8741 51.6137 53.4539" fill="#449856"/>
<path d="M57.1396 50.8005L56.2807 51.8731C54.3338 52.2682 52.5301 52.748 50.8695 53.2561C46.2226 54.6849 41.8768 56.9322 38.043 59.8889C38.043 58.7035 38.272 57.4615 38.4152 56.0785C41.4251 54.3575 44.6626 53.0563 48.035 52.2118C51.0201 51.4697 54.0676 50.9973 57.1396 50.8005Z" fill="#449856"/>
<path d="M59.1433 47.8089C58.9695 48.1383 58.7784 48.4587 58.5707 48.7686C53.9393 48.4534 49.2862 48.8339 44.7708 49.8974C42.804 50.3546 40.8865 50.9973 39.0447 51.8167C39.0447 50.9135 39.331 49.9821 39.5028 48.9942C40.7284 48.5727 41.9814 48.2333 43.2534 47.9782C48.5137 46.966 53.9162 46.899 59.2006 47.7806" fill="#449856"/>
<path d="M60.6319 45.0713L60.0879 46.1437C54.0985 44.4538 47.8112 44.0496 41.6498 44.9583L40.1038 45.2688C40.1038 44.7043 40.3614 44.1116 40.476 43.5189C40.5905 42.9261 40.705 42.4745 40.8195 41.91H40.9913C47.701 41.3863 54.4396 42.471 60.6319 45.0713Z" fill="#449856"/>
<path d="M64.3833 23.6489C63.5342 23.4778 62.6725 23.374 61.8065 23.3385C59.471 23.2385 57.1337 23.4954 54.8779 24.1005C53.7382 24.3949 52.6192 24.7627 51.5282 25.2013C51.4998 24.6936 51.4998 24.1849 51.5282 23.6772C51.4997 23.2543 51.4997 22.83 51.5282 22.4071C54.7768 18.7784 58.6547 15.7489 62.9804 13.46C63.324 14.7865 63.6103 16.2823 63.8393 17.5806C64.1735 19.5905 64.4028 21.6159 64.5264 23.6489" fill="#449856"/>
<path d="M62.751 13.0363C58.54 15.2659 54.7525 18.1975 51.5564 21.7013C51.9767 19.0302 53.2358 16.5563 55.1565 14.6274C57.0773 12.6985 59.563 11.4116 62.2642 10.9478C62.4647 11.6251 62.6651 12.3307 62.8368 13.0363" fill="#449856"/>
<path d="M64.1817 32.6522C64.0099 33.9223 63.8095 35.2206 63.5518 36.4625C61.7739 36.3399 60.0407 35.8583 58.4597 35.0475C56.8786 34.2366 55.4837 33.1138 54.3614 31.749C53.4272 30.632 52.7003 29.3612 52.2141 27.9951C51.9039 27.2048 51.6923 26.3803 51.5842 25.5396C52.6877 25.0747 53.827 24.6973 54.9913 24.4107C57.1424 23.8202 59.3736 23.563 61.6049 23.6486C62.5677 23.6762 63.5259 23.7896 64.468 23.9873C64.6342 26.8769 64.5576 29.7751 64.2389 32.6522" fill="#449856"/>
<path d="M63.5528 36.4628C63.1657 38.3821 62.6297 40.2693 61.9495 42.1076C61.5773 43.0391 61.2051 43.9422 60.8043 44.9301C54.5766 42.3086 47.8026 41.1957 41.0492 41.6844H40.906C40.906 41.6844 40.906 41.515 40.906 41.4585C41.3068 39.6239 41.7936 37.7047 42.3375 35.8136C42.3375 35.3621 42.5952 34.8823 42.7384 34.4307C42.8815 33.9791 43.0819 33.8662 43.2823 33.584C44.316 32.1465 45.6363 30.932 47.1623 30.0147C48.6884 29.0975 50.3882 28.4969 52.1578 28.2495C52.644 29.6156 53.3709 30.8864 54.3051 32.0034C55.4274 33.3682 56.8224 34.4908 58.4034 35.3017C59.9844 36.1125 61.7177 36.5943 63.4955 36.7168" fill="#449856"/>
<path d="M36.8114 13.8551C35.81 16.4993 35.0624 19.2301 34.5782 22.0118C33.3412 21.5929 32.0487 21.3552 30.7417 21.3062C32.5251 18.6416 34.5572 16.1471 36.8114 13.8551Z" fill="#449856"/>
<path d="M51.4991 22.3503C51.4706 22.7732 51.4706 23.1976 51.4991 23.6205C51.4707 24.1281 51.4707 24.6371 51.4991 25.1447C50.1053 25.692 48.7557 26.3429 47.4622 27.092C48.636 25.5679 49.9816 23.9591 51.4704 22.3503" fill="#449856"/>
<path d="M51.5561 25.5398C51.6877 26.3788 51.9084 27.2018 52.2146 27.9953C50.445 28.2427 48.7452 28.8435 47.2191 29.7607C45.693 30.6779 44.3728 31.8923 43.3392 33.3298C43.1387 33.612 42.9669 33.8942 42.7952 34.1765L42.9383 33.6121L43.3105 33.0193C44.0836 31.8057 45.286 29.9711 46.8607 27.8825C48.3478 26.958 49.9198 26.1736 51.5561 25.5398Z" fill="#449856"/>
<path d="M49.4085 13.9112C47.5708 11.6197 46.563 8.78838 46.5454 5.86732L48.0056 4.93586C50.7511 3.16399 53.7533 1.81272 56.9097 0.92804C54.1303 5.083 51.6432 9.42085 49.4657 13.9112" fill="#449856"/>
<path d="M62.2633 10.9478C59.5795 11.425 57.1146 12.7186 55.2147 14.6473C53.3148 16.5759 52.0753 19.0427 51.67 21.7013C50.6966 22.7174 49.809 23.7052 49.0074 24.6648C46.9448 27.0891 45.0326 29.6339 43.2812 32.2855C46.498 21.2817 51.3718 10.8162 57.7397 1.23859C59.7817 4.20618 61.3103 7.48711 62.2633 10.9478Z" fill="#449856"/>
<path d="M46.1163 6.1214C46.2101 9.10631 47.3079 11.9758 49.2371 14.2783C48.3781 16.0847 47.5479 17.9193 46.7748 19.9232C45.3147 23.3948 43.9118 27.0076 42.8525 30.7332C42.2859 28.8172 41.278 27.056 39.9073 25.5872C38.5366 24.1185 36.8402 22.9818 34.9504 22.2659C35.5029 19.1784 36.3661 16.1528 37.5272 13.234C38.7869 11.9921 40.1039 10.835 41.4209 9.73421C42.923 8.48754 44.4903 7.31936 46.1163 6.23441" fill="#449856"/>
<path d="M34.5779 22.0117C33.851 25.9188 33.3919 29.8698 33.2037 33.8378C31.6819 31.4347 29.7437 29.314 27.4775 27.572C28.4199 25.4047 29.5603 23.3263 30.8845 21.3626C32.1915 21.4116 33.4841 21.6493 34.7211 22.0682" fill="#449856"/>
<path d="M32.4599 33.4989C34.7868 36.9922 36.599 40.7934 37.8424 44.7887C35.6359 46.3377 32.9928 47.1669 30.284 47.1596C28.3748 47.1529 26.4897 46.7389 24.7582 45.946C24.3724 43.8887 24.1807 41.8005 24.1856 39.7083C24.1926 36.2006 24.9947 32.7386 26.5334 29.5757L26.7051 29.1524L27.1632 27.967C29.2432 29.5363 31.0347 31.4456 32.4599 33.6119" fill="#449856"/>
<path d="M42.8525 30.6202C42.3372 32.229 41.8791 33.8942 41.421 35.5594C40.7339 38.0714 40.104 40.6682 39.56 43.2648C39.1335 43.7134 38.6637 44.1198 38.1571 44.4785C37.0256 40.9715 35.4784 37.6084 33.5476 34.4588C33.5696 34.2996 33.5696 34.1381 33.5476 33.9789C33.7508 30.0121 34.2098 26.0621 34.9219 22.1528C36.8116 22.8688 38.508 24.0056 39.8787 25.4743C41.2494 26.9431 42.2574 28.7041 42.8239 30.6202" fill="#449856"/>
<path d="M2.31322 36.9708L2.79993 36.7734H2.2846L1.05346 36.4347V36.604V36.4347H0.910347L0.624023 36.858C0.624023 37.0273 0.624023 37.2249 0.624023 37.4225V37.7612H0.881688L2.3991 37.1403" fill="#449856"/>
<path d="M13.9352 50.1798V50.4337L15.7962 49.4177L16.512 47.7243L16.741 47.2161L16.2543 47.4984C15.3954 47.95 14.5078 48.4015 13.5916 48.8249H13.4485V48.966C13.4485 49.3047 13.6776 49.6999 13.7921 50.095" fill="#449856"/>
<path d="M14.28 52.3249V53.1435L14.5949 52.3814C14.8812 51.6193 15.1961 50.8856 15.4825 50.1799L15.6828 49.6718L15.2248 49.9258L14.1082 50.575V50.7162C14.2067 51.2292 14.2736 51.7476 14.3086 52.2685" fill="#449856"/>
<path d="M16.1118 49.5307L16.6844 51.5347H16.9421L18.0014 50.9984V50.8573C17.6578 49.9259 17.3429 48.9663 17.0852 48.0349V47.5269L16.8848 48.0349C16.6558 48.5994 16.3981 49.1638 16.169 49.7L16.1118 49.5307Z" fill="#449856"/>
<path d="M19.7196 54.4416C20.2115 54.5263 20.7092 54.5736 21.2084 54.5829C22.0085 54.6408 22.805 54.432 23.4702 53.9901H23.6134C23.343 53.586 23.0466 53.1995 22.7259 52.833H22.5827C21.8297 53.2013 20.9821 53.3388 20.1491 53.228C19.3923 52.9927 18.7177 52.5527 18.2022 51.958H18.0591H17.8587L16.7993 52.5789V52.7482C17.6587 53.6993 18.8191 54.3359 20.0919 54.5546" fill="#449856"/>
<path d="M19.5186 33.076V33.3864H19.8048L20.6924 33.217C21.4191 33.0721 22.1362 32.8835 22.8397 32.6525V31.2978H22.582L21.8376 31.5517L21.0646 31.8341C21.0646 31.5518 21.265 31.2977 21.3509 31.0437C21.5742 30.214 21.9635 29.4367 22.4961 28.7575L22.6679 28.5599H22.4102C22.1936 28.4904 21.9903 28.3855 21.809 28.2495L21.6086 28.4189C20.7052 29.573 20.1406 30.9496 19.9766 32.3984C19.9766 32.6807 19.9766 32.9911 19.7762 33.2734" fill="#449856"/>
<path d="M18.259 50.462V50.6596H18.4308C18.8889 50.4338 19.347 50.1797 19.805 49.8975H20.0055L19.8623 49.7564C19.3183 48.2887 18.7457 46.934 18.2017 45.4099L18.03 44.9865L17.1138 47.2161C17.4001 48.3451 17.7723 49.5024 18.1731 50.6313" fill="#449856"/>
<path d="M19.4903 14.4757C19.2478 14.5844 19.03 14.7403 18.8502 14.9341C18.6703 15.1279 18.5321 15.3557 18.4438 15.6035C18.3556 15.8514 18.319 16.1144 18.3365 16.3765C18.354 16.6386 18.4251 16.8945 18.5455 17.1288C18.69 17.4471 18.9223 17.7191 19.2159 17.9137C19.5095 18.1083 19.8525 18.2178 20.2061 18.2296C20.4926 18.239 20.7772 18.181 21.0364 18.0603C21.4488 17.9094 21.7937 17.6193 22.0098 17.2416C21.8094 16.4231 21.5804 15.633 21.3514 14.8991C21.0954 14.7243 20.8006 14.6125 20.4917 14.5732C20.1828 14.5339 19.8689 14.5682 19.5762 14.6733" fill="#449856"/>
<path d="M9.78347 5.27441C9.01045 5.78245 7.55031 7.05255 7.43579 8.09685V8.29444H7.60757L9.06771 8.52029H9.21087C9.4727 7.73331 9.97217 7.04394 10.6424 6.54454C11.3398 6.16178 12.1378 5.99465 12.9329 6.06477H13.076C13.0894 5.98062 13.0894 5.89483 13.076 5.81068C13.1793 5.48604 13.2653 5.15638 13.3337 4.82289L12.9615 4.59705C11.8226 4.66154 10.7235 5.0325 9.78347 5.66959" fill="#449856"/>
<path d="M18.2015 11.202L18.7741 12.5567V12.726H19.0318H19.2895L19.7762 11.71C19.4899 11.2019 19.1749 10.6938 18.86 10.214L18.6596 9.90356L18.0583 11.4559L18.2015 11.202Z" fill="#449856"/>
<path d="M1.94179 38.7206L2.57166 37.6198L2.82937 37.14L2.34266 37.3374L0.596191 38.043V38.5512C0.962976 38.5779 1.32685 38.6345 1.68412 38.7206H1.94179Z" fill="#449856"/>
<path d="M17.1709 8.66159L18.0871 10.9195L18.6597 9.42371C18.3448 9.00034 18.0298 8.57697 17.6862 8.18182L17.4572 7.89948L17.3141 8.37941C17.3141 8.37941 17.3141 8.60517 17.3141 8.68984L17.1709 8.66159Z" fill="#449856"/>
<path d="M13.5925 6.88355C14.5026 7.28036 15.3913 7.72322 16.2552 8.21019L16.7419 8.49236L16.5129 7.98434L15.8257 6.34728L14.0506 5.33124V5.61341C13.9572 5.99568 13.8425 6.37265 13.707 6.74246L13.5925 6.88355Z" fill="#449856"/>
<path d="M17.2572 7.64536L16.3411 6.68573L17.0568 8.3792L17.2572 7.64536Z" fill="#449856"/>
<path d="M16.4552 51.8731L16.1117 50.6595L15.9399 50.1515L15.7395 50.6313C15.3959 51.4498 15.1096 52.1272 14.7947 52.8329L14.4797 53.5948L15.1096 53.0303C15.531 52.6149 15.9806 52.2284 16.4552 51.8731Z" fill="#449856"/>
<path d="M9.44092 37.112H9.75586H10.9297H11.2446L11.0442 36.8014C10.8152 36.4062 10.5861 36.0112 10.3857 35.616L10.1853 35.2208L9.81309 36.3216L9.55542 37.0555L9.44092 37.112Z" fill="#449856"/>
<path d="M8.86834 42.4744C8.77552 42.559 8.70143 42.6615 8.65078 42.7757C8.60012 42.8898 8.57397 43.0132 8.57397 43.1378C8.57397 43.2624 8.60012 43.3856 8.65078 43.4997C8.70143 43.6139 8.77552 43.7165 8.86834 43.801C8.95502 43.8966 9.0608 43.9735 9.17904 44.0269C9.29727 44.0803 9.4254 44.1091 9.55544 44.1115C9.81275 44.1079 10.0588 44.0069 10.2426 43.8293C10.3387 43.7349 10.4149 43.6227 10.4669 43.4992C10.5189 43.3757 10.5457 43.2433 10.5457 43.1096C10.5457 42.9758 10.5189 42.8434 10.4669 42.7199C10.4149 42.5964 10.3387 42.4842 10.2426 42.3898C10.1518 42.2968 10.0428 42.2226 9.92228 42.1721C9.80175 42.1215 9.67214 42.0956 9.54116 42.0956C9.41017 42.0956 9.28052 42.1215 9.15999 42.1721C9.03946 42.2226 8.9305 42.2968 8.83968 42.3898" fill="#449856"/>
<path d="M15.5962 43.5469C15.4101 44.2581 15.0895 44.9285 14.6514 45.5226L14.1934 46.1154L18.0012 44.4218C18.2016 43.9702 18.3734 43.5187 18.5738 43.0954V42.926H18.3448H18.0585L15.5962 43.7727V43.5469Z" fill="#449856"/>
<path d="M5.57583 47.301C7.23296 46.703 8.9684 46.3418 10.7293 46.2285C11.4675 46.2458 12.2003 46.1002 12.874 45.8023C13.5477 45.5044 14.1453 45.0618 14.6231 44.5068C15.2332 43.5254 15.5873 42.4102 15.6538 41.261C14.9454 40.7872 14.284 40.2485 13.6783 39.6521H13.5351L10.6721 42.4746C10.825 42.6975 10.8944 42.9659 10.8683 43.2338C10.8422 43.5016 10.7222 43.7522 10.5289 43.9423C10.2995 44.1417 10.0045 44.252 9.69864 44.2527C9.39183 44.2575 9.09481 44.1464 8.86837 43.9423C8.75591 43.8315 8.66745 43.6992 8.60839 43.5537C8.54933 43.4081 8.52088 43.2523 8.52477 43.0956C8.52311 42.9434 8.55271 42.7923 8.61175 42.6517C8.6708 42.511 8.75809 42.3835 8.86837 42.277C9.06185 42.0979 9.30997 41.9871 9.57409 41.9616C9.8382 41.936 10.1034 41.9973 10.3285 42.1359L13.1916 39.3135C12.6002 38.7044 12.0547 38.0535 11.5596 37.366C10.3981 37.4539 9.27214 37.8013 8.26711 38.382C7.70965 38.8637 7.26484 39.4588 6.96332 40.1264C6.6618 40.794 6.51076 41.5182 6.52064 42.2489C6.44588 43.9613 6.11795 45.6537 5.54721 47.2728L5.40405 47.668L5.57583 47.301Z" fill="#449856"/>
<path d="M9.92697 34.4022V34.1481H9.75519L8.38089 34.7126L6.66309 38.4665L7.2643 37.9867C7.86702 37.5548 8.54698 37.2388 9.26848 37.0553L10.1274 34.628L9.98424 34.3739" fill="#449856"/>
<path d="M7.0927 32.342C6.4488 32.7136 5.73984 32.9625 5.00268 33.0759H4.2583L8.15206 34.5435L9.4977 34.0072H9.66948V33.7533C9.6587 33.6689 9.6587 33.5835 9.66948 33.4992L7.32175 32.3984L7.0927 32.342Z" fill="#449856"/>
<path d="M22.9262 24.8341L22.6399 25.0034L22.3822 25.1728C22.2824 25.2725 22.2052 25.3921 22.1559 25.5235C22.1065 25.6549 22.0861 25.7951 22.0959 25.9349C22.1185 26.1033 22.1759 26.2652 22.2645 26.4109C22.3532 26.5565 22.4712 26.6827 22.6112 26.7816L22.9262 27.0074V25.1447V24.8341Z" fill="#449856"/>
<path d="M19.8333 52.6916C20.0706 52.7263 20.3118 52.7263 20.5491 52.6916C21.1116 52.6971 21.6685 52.5815 22.181 52.3529H22.4101L22.2383 52.1553L21.6084 51.4779C21.2543 51.1477 20.9287 50.7889 20.635 50.4054H20.4918L19.1175 51.0547L18.3445 51.4216H18.1155L18.2873 51.619C18.7524 52.0675 19.3086 52.4139 19.9192 52.6352" fill="#449856"/>
<path d="M8.80995 31.1002L8.5809 31.2978L7.63608 32.0034L7.37842 32.1728L9.43982 33.1605L9.29666 32.7371C9.15351 32.3137 9.01036 31.8905 8.89584 31.4672H8.6954H8.89584L8.80995 31.1002Z" fill="#449856"/>
<path d="M22.9266 28.4186L22.583 28.7855C22.0744 29.4401 21.7044 30.1886 21.4951 30.9869L21.2947 31.5514L21.8673 31.3821L22.7835 31.0434L22.9266 28.4186Z" fill="#449856"/>
<path d="M20.6916 22.5198L19.7468 22.3224H19.4319V22.6046C19.4319 22.915 19.5751 23.2536 19.6323 23.5641C19.7665 24.5368 20.0363 25.4866 20.434 26.3865C20.6382 26.7873 20.8984 27.1578 21.207 27.4873C21.5987 27.8562 22.0678 28.1358 22.5813 28.306H22.8389V27.1487C22.6164 27.0583 22.4194 26.9161 22.2648 26.7342C22.1102 26.5523 22.0027 26.3362 21.9514 26.1044C21.918 25.9288 21.9322 25.7476 21.9925 25.5791C22.0529 25.4106 22.1571 25.2609 22.2949 25.1448C22.4274 24.9825 22.6074 24.8641 22.8103 24.806C22.8103 24.3544 22.8103 23.9029 22.8103 23.4513V23.3102C22.1436 23.1012 21.4648 22.9315 20.7775 22.8022" fill="#449856"/>
<path d="M20.8651 45.0147C21.0759 44.6844 21.3154 44.3727 21.5808 44.0832L21.7527 43.8574H21.4091L20.0921 43.4906H19.6626L20.6647 45.5227L20.8651 45.0147Z" fill="#449856"/>
<path d="M19.3182 43.1237H19.0605H18.8029V43.293L18.2302 44.6477L19.719 48.5145V47.7523C19.8116 47.0202 20.0656 46.317 20.4634 45.692L19.3468 43.3776L19.3182 43.1237Z" fill="#449856"/>
<path d="M17.4286 42.6439L17.8295 42.5028L17.4573 42.3052C17.0447 42.1211 16.6432 41.9138 16.2548 41.6843L15.9399 41.4585V41.7689C15.9399 42.1641 15.9398 42.5593 15.7681 42.9262V43.2649H16.083L16.7988 43.0108L17.5145 42.7569" fill="#449856"/>
<path d="M1.1666 19.7821L1.7392 20.8264V20.9675H1.91098C2.85579 20.6288 3.8006 20.3183 4.77403 20.0642L5.31802 19.9232L4.80265 19.6973L3.08484 19.02L1.02344 19.5845L1.1666 19.7821Z" fill="#449856"/>
<path d="M5.71839 19.7538L7.98019 20.6853L7.77979 20.2618L5.86155 16.0282V15.7742H5.66112C5.14577 15.7742 4.63045 16.0564 4.17236 16.1975H3.97192V16.3951C4.46049 17.495 5.02487 18.5606 5.66112 19.5845" fill="#449856"/>
<path d="M2.76981 22.7174V22.8868H2.94159L7.86605 20.8264L5.60426 19.9232C4.4304 20.2337 3.25655 20.5724 2.11132 20.9958H1.91089V21.1934C2.13993 21.6449 2.39762 22.0965 2.68393 22.5481" fill="#449856"/>
<path d="M2.13915 7.19403H2.42547C2.91409 7.19622 3.38511 7.01454 3.74245 6.68601C3.94833 6.51114 4.11352 6.29458 4.22676 6.05103C4.34 5.80749 4.39863 5.5427 4.39863 5.27479C4.39863 5.00688 4.34 4.74209 4.22676 4.49855C4.11352 4.25501 3.94833 4.03845 3.74245 3.86357C3.57159 3.68944 3.36696 3.55106 3.14071 3.4565C2.91446 3.36193 2.67122 3.31317 2.42547 3.31317C2.17972 3.31317 1.93648 3.36193 1.71023 3.4565C1.48398 3.55106 1.27931 3.68944 1.10845 3.86357C0.9695 3.99444 0.853432 4.14712 0.764893 4.31526V5.9804C0.916668 6.25696 1.12903 6.4967 1.38656 6.68222C1.64408 6.86775 1.94027 6.9944 2.25365 7.05295" fill="#449856"/>
<path d="M3.25673 18.766L4.94592 19.4716L5.46129 19.6692L5.20363 19.1893C4.71691 18.3708 4.25879 17.4959 3.82933 16.5927V16.4233H3.65755L2.51235 16.762H2.25464L3.314 18.5967L3.25673 18.766Z" fill="#449856"/>
<path d="M3.05687 32.8782H2.88505V33.0475C2.59875 33.4991 2.34111 33.9789 2.11206 34.4022V34.5998H2.31245C3.45767 35.0232 4.63153 35.3619 5.80538 35.6724L8.06722 34.7692L3.22865 32.9628" fill="#449856"/>
<path d="M0.993888 9.53646C1.24684 9.17712 1.36768 8.74344 1.33644 8.30715C1.3052 7.87086 1.12371 7.45819 0.822068 7.13745L0.478516 6.79877V10.0445L0.793454 9.73405L0.96523 9.56471" fill="#449856"/>
<path d="M13.5917 55.4578C13.3359 55.3244 13.0509 55.2546 12.7615 55.2546C12.472 55.2546 12.187 55.3244 11.9311 55.4578C11.6633 55.6209 11.4382 55.8437 11.274 56.1085C11.1099 56.3733 11.0113 56.6725 10.9863 56.9819C11.7992 57.564 12.6504 58.092 13.5344 58.5625C13.8553 58.3638 14.1154 58.083 14.2869 57.7499C14.4584 57.4168 14.5348 57.0441 14.5079 56.6715C14.473 56.3425 14.3441 56.0299 14.1364 55.7702C13.9286 55.5104 13.6504 55.314 13.3341 55.2037" fill="#449856"/>
<path d="M31.1711 59.2961C30.4438 58.8346 29.7631 58.3054 29.1384 57.7156C28.6647 57.8481 28.2584 58.1502 27.9989 58.5626C27.7394 58.9751 27.6454 59.4681 27.7355 59.9452C27.792 60.3741 28.0075 60.7672 28.3406 61.0486C28.6737 61.3301 29.1007 61.4801 29.5392 61.4695H29.9114C30.1441 61.4452 30.3695 61.3749 30.5741 61.2631C30.7788 61.1513 30.9585 61.0001 31.1027 60.8185C31.2469 60.6368 31.3527 60.4284 31.4136 60.2057C31.4745 59.983 31.4895 59.7505 31.4575 59.522" fill="#449856"/>
<path d="M39.8185 61.6954L39.1313 62.3447C40.3358 62.1745 41.517 61.8715 42.6529 61.4415C41.7043 61.5807 40.7484 61.6654 39.7898 61.6954" fill="#449856"/>
<path d="M6.63514 51.5629C6.23608 51.2857 5.7425 51.1742 5.26084 51.2524H5.00317L5.17495 51.5063C5.73745 52.2702 6.33951 53.0051 6.97869 53.7079L7.17908 53.9336V53.6514C7.31182 53.2874 7.32809 52.8919 7.2257 52.5184C7.1233 52.1449 6.90719 51.8114 6.60648 51.5629" fill="#449856"/>
<path d="M3.1129 26.8664C2.98522 26.8622 2.8581 26.8844 2.73964 26.9315C2.62117 26.9786 2.51397 27.0496 2.425 27.1399C2.33603 27.2303 2.26724 27.3381 2.223 27.4562C2.17875 27.5744 2.16003 27.7002 2.16808 27.8259C2.16003 27.9516 2.17875 28.0776 2.223 28.1958C2.26724 28.3139 2.33603 28.4215 2.425 28.5119C2.51397 28.6023 2.62117 28.6734 2.73964 28.7205C2.8581 28.7676 2.98522 28.7898 3.1129 28.7856C3.2445 28.7894 3.37557 28.7676 3.49861 28.7214C3.62165 28.6752 3.73425 28.6055 3.82997 28.5164C3.92569 28.4272 4.00267 28.3204 4.05649 28.202C4.1103 28.0835 4.13989 27.9557 4.1436 27.8259C4.13999 27.6937 4.10947 27.5635 4.05386 27.4431C3.99826 27.3228 3.91872 27.2146 3.81992 27.1251C3.72112 27.0356 3.6051 26.9667 3.47873 26.9222C3.35236 26.8777 3.21823 26.8588 3.08428 26.8664" fill="#449856"/>
<path d="M5.86141 39.5955L7.98004 34.9384L5.71825 35.8698C5.082 36.8937 4.51762 37.9593 4.02905 39.0592V39.2568H4.22944C4.68753 39.3979 5.2029 39.5671 5.71825 39.68H5.91868L5.86141 39.5955Z" fill="#449856"/>
<path d="M9.89802 53.736C9.51841 53.5241 9.07533 53.4505 8.64622 53.5279C8.21711 53.6053 7.82923 53.8288 7.55029 54.1595C8.3588 54.9469 9.20938 55.6911 10.0984 56.3891H10.2702V56.2198C10.6196 55.7696 10.774 55.2013 10.6997 54.6392C10.6548 54.3728 10.549 54.1201 10.3902 53.9C10.2315 53.68 10.024 53.4985 9.78347 53.3693" fill="#449856"/>
<path d="M0.850484 20.8264L0.36377 19.9232V21.2216L0.678708 20.9675" fill="#449856"/>
<path d="M2.42708 18.4275L2.91379 18.6249L2.65609 18.1452L2.02625 17.0444C1.64962 17.1304 1.26667 17.187 0.881005 17.2137H0.709229V17.7219L2.51297 18.4556" fill="#449856"/>
<path d="M2.14222 23.451C1.89422 23.0231 1.67429 22.5801 1.48373 22.1246C1.34058 21.8705 1.22604 21.6165 1.11152 21.3624V21.1366L0.911129 21.3059C0.784363 21.4083 0.677631 21.5327 0.596191 21.6729V25.1446L1.16879 24.6083C1.51038 24.266 1.87374 23.9454 2.25673 23.6486" fill="#449856"/>
<path d="M0.849801 19.274H1.10747L2.22406 18.9636L2.73943 18.8223L2.25267 18.6248L0.706639 17.9756H0.448975V18.9354L0.763913 19.3304" fill="#449856"/>
<path d="M0.938962 34.9387L0.624023 34.6846V35.983L0.996235 35.3056" fill="#449856"/>
<path d="M1.59823 30.874C2.52475 31.7541 3.72494 32.3009 5.00528 32.4263H5.60654C6.74297 32.1531 7.79454 31.6106 8.66999 30.8458C8.5215 30.0164 8.44487 29.176 8.44094 28.3337V28.1644H4.28952V28.3057C4.23691 28.5597 4.09718 28.7881 3.89384 28.9525C3.6905 29.117 3.43595 29.2075 3.17292 29.2087C2.85891 29.2088 2.55731 29.0878 2.33261 28.8716C2.10791 28.6553 1.97792 28.361 1.97045 28.0516C1.97792 27.7421 2.10791 27.4478 2.33261 27.2316C2.55731 27.0153 2.85891 26.8944 3.17292 26.8944C3.43595 26.8957 3.6905 26.9861 3.89384 27.1506C4.09718 27.3151 4.23691 27.5434 4.28952 27.7975V27.9387H8.44094V27.7694C8.44487 26.9272 8.5215 26.0868 8.66999 25.2574C7.78539 24.5118 6.73639 23.9803 5.60654 23.7051C4.86849 23.6544 4.12805 23.7619 3.43614 24.0201C2.74423 24.2784 2.11723 24.6811 1.59823 25.2009L0.596191 26.0195V30.3377L1.59823 31.1562" fill="#449856"/>
<path d="M0.878416 34.5996L1.07885 34.769V34.5431C1.07885 34.2891 1.30787 34.0352 1.45102 33.7812C1.64157 33.3256 1.86155 32.8824 2.10955 32.4545C1.72657 32.1578 1.36316 31.8374 1.02158 31.495L0.448975 30.9587V34.4303C0.539482 34.564 0.645144 34.6871 0.763913 34.7972" fill="#449856"/>
<path d="M2.3977 38.8052L3.54295 39.1439H3.71473V38.9746C4.14419 38.0714 4.60226 37.1965 5.08898 36.378L5.34665 35.8982L4.83132 36.0956L3.14212 36.8012L2.08276 38.6359L2.3977 38.8052Z" fill="#449856"/>
<path d="M4.17167 40.0189L3.36997 39.7367H3.1123V39.9906C3.11589 40.626 3.2626 41.2526 3.54179 41.8253C3.98235 42.4909 4.62303 43.0042 5.37414 43.293H5.60319V43.0389C5.60319 42.7567 5.60319 42.4462 5.60319 42.1357C5.5747 41.6563 5.5747 41.1756 5.60319 40.6962L4.17167 40.2165" fill="#449856"/>
<path d="M13.5915 48.6839H13.7633C14.874 48.1815 15.9542 47.6161 16.9985 46.9905L17.9434 44.7889L13.2193 46.8775H12.9902V47.0751C12.9902 47.5832 13.2766 48.0913 13.4197 48.5711L13.5915 48.6839Z" fill="#449856"/>
<path d="M1.76792 34.7693C1.59613 35.0798 1.42436 35.4467 1.19531 35.8136V36.0394L3.25672 36.6039L4.97457 35.9264L5.4899 35.7007H4.94591C4.0011 35.4467 3.05629 35.1362 2.08285 34.7975H1.91108L1.76792 34.7693Z" fill="#449856"/>
<path d="M1.22403 39.1439V39.3415C1.12894 40.6099 1.49425 41.8704 2.25474 42.8978C2.77009 43.6599 4.05846 45.0994 5.11779 45.2123H5.28961C5.28961 44.7324 5.43274 44.2526 5.49 43.7728V43.4058H5.31823C4.52955 43.1443 3.84044 42.652 3.34271 41.9946C2.96199 41.2934 2.78375 40.5026 2.82738 39.7084V39.5674H2.59833L1.39585 39.285L1.22403 39.1439Z" fill="#449856"/>
<path d="M12.2174 47.0187H12.0457C11.5594 47.0474 11.0718 47.0474 10.5855 47.0187H9.66933H9.41162V47.2443C9.70697 47.9918 10.2392 48.6254 10.9291 49.0508C11.4816 49.32 12.0879 49.4647 12.7042 49.4742H13.0477V49.2483C13.0477 48.9661 12.8473 48.7121 12.7614 48.4299C12.6755 48.1477 12.3892 47.4985 12.2461 47.0187" fill="#449856"/>
<path d="M9.78426 50.3772C10.7009 50.9975 11.7677 51.3675 12.8764 51.4497H13.4204H13.5921V51.2804C13.5921 50.8288 13.3917 50.462 13.2772 50.1233C13.2906 50.0391 13.2906 49.9533 13.2772 49.8692H13.134C12.3362 49.929 11.5385 49.7521 10.8436 49.3612C10.1685 48.8785 9.66709 48.1963 9.41204 47.4137V47.2726H9.26893L7.80874 47.4702H7.63696V47.6395C7.63696 48.7967 9.21167 50.0668 9.98469 50.462" fill="#449856"/>
<path d="M21.1226 34.9385C21.0584 35.0488 21.0178 35.1709 21.0033 35.2972C20.9888 35.4235 21.0007 35.5514 21.0383 35.6731C21.0758 35.7947 21.1382 35.9076 21.2216 36.0045C21.3051 36.1015 21.4078 36.1806 21.5234 36.2369H21.8383C22.0532 36.2273 22.2603 36.1551 22.4335 36.0295C22.6068 35.9039 22.7384 35.7306 22.8118 35.5313C22.8527 35.4258 22.8719 35.3131 22.868 35.2002C22.8642 35.0873 22.8375 34.9763 22.7894 34.8738C22.7414 34.7712 22.6731 34.6791 22.5884 34.6029C22.5037 34.5268 22.4044 34.4682 22.2964 34.4305C22.1893 34.3837 22.0739 34.3582 21.9568 34.3556C21.8397 34.353 21.7232 34.3734 21.6141 34.4153C21.505 34.4573 21.4054 34.5201 21.321 34.6002C21.2366 34.6803 21.1692 34.7761 21.1226 34.882" fill="#449856"/>
<path d="M10.4425 27.8261C10.4348 28.0741 10.4781 28.3211 10.57 28.5522C10.6618 28.7832 10.8002 28.9935 10.9769 29.1703C11.1535 29.3471 11.3647 29.4866 11.5977 29.5806C11.8306 29.6746 12.0805 29.7212 12.3322 29.7172C12.594 29.7286 12.8555 29.6883 13.1014 29.5991C13.3473 29.5098 13.5728 29.3733 13.7646 29.1973C13.9565 29.0213 14.1109 28.8095 14.2189 28.5741C14.3268 28.3387 14.3862 28.0843 14.3936 27.8261C14.3864 27.5653 14.3261 27.3087 14.2163 27.0714C14.1066 26.834 13.9495 26.6209 13.7546 26.4445C13.5597 26.2681 13.3308 26.1321 13.0815 26.0446C12.8323 25.9571 12.5677 25.9199 12.3036 25.9351C12.0507 25.927 11.799 25.9707 11.5641 26.0632C11.3292 26.1558 11.1164 26.2953 10.9389 26.4729C10.7614 26.6505 10.6231 26.8624 10.5327 27.0953C10.4424 27.3282 10.4019 27.577 10.4139 27.8261" fill="#449856"/>
<path d="M11.559 33.358C11.7133 33.6946 11.9629 33.9801 12.2778 34.1804C12.5926 34.3806 12.9594 34.4872 13.3341 34.487C13.651 34.4925 13.9647 34.4248 14.2503 34.2894C14.4821 34.2007 14.6928 34.0658 14.8691 33.893C15.0455 33.7203 15.1837 33.5134 15.2751 33.2854C15.3665 33.0575 15.4092 32.8134 15.4003 32.5685C15.3915 32.3235 15.3314 32.0829 15.2238 31.862C15.1415 31.6297 15.0119 31.4165 14.843 31.2353C14.6742 31.0541 14.4695 30.9088 14.2416 30.8084C14.0137 30.708 13.7674 30.6545 13.5178 30.6513C13.2683 30.648 13.0206 30.6951 12.7902 30.7896C12.5366 30.8717 12.3025 31.0035 12.1021 31.1772C11.9016 31.3509 11.739 31.5629 11.6239 31.8003C11.5089 32.0377 11.4438 32.2956 11.4326 32.5585C11.4215 32.8213 11.4645 33.0837 11.559 33.3297V33.358Z" fill="#449856"/>
<path d="M18.5169 38.4949C18.4005 38.73 18.3326 38.9854 18.3171 39.2465C18.3017 39.5077 18.339 39.7693 18.4269 40.0161C18.5148 40.2629 18.6514 40.49 18.8291 40.6843C19.0067 40.8786 19.2218 41.0363 19.4617 41.148C19.6987 41.1865 19.9404 41.1865 20.1774 41.148C20.5906 41.1355 20.99 40.999 21.3225 40.757C21.655 40.5149 21.9047 40.1787 22.0384 39.7931C22.1345 39.5697 22.1833 39.3294 22.1816 39.0867C22.1799 38.844 22.1278 38.6042 22.0286 38.3821C21.9293 38.16 21.785 37.9602 21.6046 37.7952C21.4241 37.6301 21.2112 37.5033 20.9791 37.4224C20.7547 37.3152 20.5104 37.2541 20.2612 37.2432C20.0121 37.2323 19.7632 37.2718 19.53 37.359C19.2968 37.4462 19.0842 37.5793 18.905 37.7504C18.7259 37.9215 18.5841 38.1269 18.4882 38.3538" fill="#449856"/>
<path d="M16.0548 38.6076C16.5623 38.5924 17.0484 38.4027 17.429 38.0714C17.8067 37.696 18.0186 37.1888 18.0186 36.6601C18.0186 36.1315 17.8067 35.6242 17.429 35.2489C17.2445 35.0576 17.0224 34.9054 16.7763 34.8014C16.5303 34.6973 16.2653 34.6436 15.9975 34.6436C15.7297 34.6436 15.4647 34.6973 15.2186 34.8014C14.9726 34.9054 14.7505 35.0576 14.566 35.2489C14.3841 35.4202 14.2393 35.6261 14.1404 35.8541C14.0415 36.0821 13.9905 36.3276 13.9905 36.5755C13.9905 36.8235 14.0415 37.0688 14.1404 37.2968C14.2393 37.5248 14.3841 37.7307 14.566 37.902C14.9125 38.2537 15.3857 38.4566 15.883 38.4665" fill="#449856"/>
<path d="M19.5754 12.6412L19.1173 12.8105H18.831L18.4015 12.9798H18.2584C17.6686 13.2375 17.095 13.5298 16.5405 13.855C15.5007 14.4848 14.5398 15.2332 13.6775 16.0846C12.8098 16.9384 12.0415 17.8851 11.387 18.9071C11.0721 19.4433 10.7858 20.036 10.4995 20.6287C10.4209 20.7641 10.3539 20.9058 10.2991 21.0522L10.1273 21.4754C9.89824 22.0964 9.69785 22.7174 9.52607 23.3101C9.26342 24.4874 9.12905 25.6892 9.12524 26.8946C9.12905 28.1001 9.26342 29.3017 9.52607 30.479C9.69785 31.0717 9.89824 31.6928 10.1273 32.3137L10.2991 32.737L10.4995 33.1321C10.7858 33.7249 11.0721 34.2894 11.387 34.8257C12.0415 35.8477 12.8098 36.7943 13.6775 37.6482C14.5398 38.4996 15.5007 39.2479 16.5405 39.8778C17.0845 40.1883 17.6572 40.4988 18.2584 40.781H18.4015L18.8024 40.9504H19.1173L19.5468 41.1197C20.153 41.3503 20.7748 41.539 21.4077 41.6842L22.9252 41.9664H23.1542V41.7406V40.6399V40.4987H23.011C21.7897 40.3355 20.5958 40.0129 19.4609 39.5391V39.7085V39.5391C17.6586 38.8016 16.0234 37.7173 14.6509 36.3498C13.2525 34.995 12.1514 33.3714 11.4157 31.5798C10.6544 29.7937 10.2743 27.8722 10.2991 25.9349C10.2743 23.9977 10.6544 22.0762 11.4157 20.29H11.2439H11.4443C12.1885 18.5029 13.2886 16.8809 14.6796 15.5201C16.0481 14.1549 17.6848 13.0793 19.4895 12.359V12.1614V12.3307C19.9267 12.1415 20.3763 11.9812 20.8351 11.851H21.0356V11.6534C21.0356 11.3429 20.7779 11.0324 20.6347 10.6937H20.4916L19.8903 10.8913L19.5754 12.6412Z" fill="#449856"/>
<path d="M25.0434 57.744C24.7864 57.7511 24.5335 57.809 24.2997 57.9144C24.0659 58.0198 23.8559 58.1704 23.6823 58.3573C23.5087 58.5442 23.375 58.7637 23.2891 59.0026C23.2032 59.2415 23.167 59.4949 23.1824 59.7478C23.1784 59.9885 23.224 60.2276 23.3165 60.4504C23.409 60.6732 23.5464 60.8753 23.7204 61.0442C23.8944 61.2131 24.1014 61.3453 24.3288 61.433C24.5562 61.5207 24.7993 61.5619 25.0434 61.5542C25.2888 61.5618 25.5333 61.5207 25.7622 61.4333C25.9912 61.3459 26.2 61.214 26.3762 61.0455C26.5525 60.877 26.6926 60.6753 26.7882 60.4524C26.8839 60.2295 26.9331 59.9899 26.933 59.7478C26.9485 59.4949 26.9122 59.2415 26.8263 59.0026C26.7404 58.7637 26.6067 58.5442 26.4331 58.3573C26.2595 58.1704 26.0495 58.0198 25.8157 57.9144C25.5819 57.809 25.329 57.7511 25.072 57.744H25.0434Z" fill="#449856"/>
<path d="M11.559 22.2942C11.4645 22.5403 11.4215 22.8026 11.4326 23.0655C11.4438 23.3284 11.5089 23.5862 11.6239 23.8236C11.739 24.061 11.9016 24.273 12.1021 24.4467C12.3025 24.6205 12.5366 24.7523 12.7902 24.8343C13.0268 24.8773 13.2693 24.8773 13.5059 24.8343C13.8809 24.8338 14.2466 24.7199 14.5538 24.5079C14.861 24.2959 15.0949 23.9961 15.2238 23.649C15.3314 23.428 15.3915 23.1874 15.4003 22.9425C15.4092 22.6975 15.3665 22.4534 15.2751 22.2255C15.1837 21.9976 15.0455 21.7909 14.8691 21.6181C14.6928 21.4453 14.4821 21.3104 14.2503 21.2217C14.0126 21.103 13.753 21.0329 13.4871 21.0157C13.2212 20.9984 12.9546 21.0344 12.7031 21.1214C12.4517 21.2085 12.2207 21.3447 12.0241 21.522C11.8275 21.6993 11.6693 21.9138 11.559 22.153" fill="#449856"/>
<path d="M18.1451 13.0083H18.4315H18.6605V12.8389C18.4601 12.3874 18.2597 11.9641 18.0879 11.5125L14.28 9.81891L14.7381 10.4117C15.1762 11.0058 15.4968 11.6762 15.6829 12.3874L18.1451 13.2341V13.0083Z" fill="#449856"/>
<path d="M27.2497 60.3407C27.0905 60.7848 26.796 61.1695 26.4065 61.4424C26.017 61.7152 25.5516 61.8626 25.0738 61.8648C24.6009 61.8569 24.1418 61.7067 23.758 61.4343C23.3742 61.1618 23.0841 60.7803 22.9265 60.3407C22.7591 60.6579 22.5195 60.9326 22.2265 61.1431C21.9334 61.3537 21.5948 61.4944 21.2373 61.5543C23.9382 62.214 26.7019 62.5925 29.4829 62.6834C29.4829 62.3165 29.4829 61.9495 29.2825 61.5826C28.8619 61.5741 28.4513 61.4544 28.0937 61.236C27.7361 61.0175 27.4446 60.7083 27.2497 60.3407Z" fill="#449856"/>
<path d="M22.7258 59.663C22.8004 59.166 22.6742 58.6598 22.3744 58.2535C22.0746 57.8472 21.6252 57.5729 21.1225 57.4897C20.8667 57.4664 20.6087 57.4934 20.3634 57.5689C20.1181 57.6444 19.8905 57.767 19.6935 57.9296C19.4966 58.0923 19.3342 58.2919 19.2159 58.5167C19.0975 58.7415 19.0255 58.9872 19.0039 59.2396C18.9675 59.4697 18.978 59.7047 19.0349 59.9307C19.0918 60.1567 19.1939 60.3694 19.3353 60.556C19.4766 60.7427 19.6543 60.8997 19.858 61.0177C20.0616 61.1358 20.2871 61.2125 20.5213 61.2436H20.8935C21.3467 61.2462 21.7847 61.0833 22.1231 60.7862C22.4616 60.4891 22.6763 60.0788 22.7258 59.6347" fill="#449856"/>
<path d="M10.3857 20.2902C10.5861 19.895 10.8152 19.5 11.0442 19.1331L11.2446 18.7944H10.9297H9.75586H9.44092V19.1048L9.69858 19.8667L10.0708 20.9393L10.3857 20.2902Z" fill="#449856"/>
<path d="M31.5437 59.8326C31.456 60.2507 31.2512 60.6362 30.9527 60.9455C30.6541 61.2548 30.2737 61.4754 29.8545 61.5825C29.9401 61.9732 29.9975 62.3693 30.0263 62.7679H34.2636C34.1724 62.1066 33.9893 61.4608 33.7196 60.8487C33.301 60.8858 32.8798 60.8143 32.498 60.6409C32.1162 60.4676 31.7872 60.1986 31.5437 59.8609" fill="#449856"/>
<path d="M16.8838 8.74607C15.8395 8.12046 14.7593 7.55509 13.6486 7.05267H13.4768V7.25027C13.3337 7.73008 13.1619 8.20981 13.0474 8.74607V8.94366H13.2764L17.571 10.8348L18.0004 11.0324L17.0557 8.83083L16.8838 8.74607Z" fill="#449856"/>
<path d="M16.198 20.8263C16.7039 20.8177 17.1865 20.6152 17.5436 20.2618C17.7377 20.0799 17.8921 19.861 17.9977 19.6184C18.1033 19.3758 18.1577 19.1146 18.1577 18.8506C18.1577 18.5866 18.1033 18.3254 17.9977 18.0828C17.8921 17.8402 17.7377 17.6213 17.5436 17.4394C17.3699 17.26 17.161 17.1174 16.9297 17.0199C16.6985 16.9224 16.4495 16.8721 16.198 16.8721C15.9464 16.8721 15.6975 16.9224 15.4662 17.0199C15.2349 17.1174 15.0261 17.26 14.8523 17.4394C14.6705 17.6106 14.5257 17.8165 14.4267 18.0445C14.3278 18.2725 14.2769 18.518 14.2769 18.766C14.2769 19.014 14.3278 19.2593 14.4267 19.4873C14.5257 19.7153 14.6705 19.9212 14.8523 20.0925C15.0414 20.2985 15.2707 20.4648 15.5265 20.5812C15.7824 20.6976 16.0595 20.7617 16.3411 20.7698" fill="#449856"/>
<path d="M25.0447 57.5182C26.1454 57.5218 27.2451 57.4557 28.3372 57.3206H28.7094L28.4518 57.0667C27.6994 56.2848 27.0369 55.4234 26.4762 54.4982V54.2443L26.3045 54.4982C25.9323 55.0627 25.5887 55.6554 25.2738 56.2481C24.9588 55.6554 24.5867 55.0627 24.2145 54.4982H24.0713C22.7977 55.1107 21.3559 55.2961 19.9655 55.026C18.5752 54.756 17.3124 54.0454 16.3697 53.0024H16.2265C15.6666 53.3731 15.1311 53.7784 14.6232 54.216C14.6232 53.5386 14.6232 52.8894 14.3655 52.2403H13.5925C12.1762 52.3173 10.7731 51.9376 9.59529 51.1584C8.41749 50.3793 7.52916 49.2431 7.06473 47.9218V47.7808H6.89295C6.21465 47.9199 5.54541 48.099 4.88882 48.317C5.08924 47.6679 5.261 47.0187 5.40415 46.3413H5.26099C3.80158 45.8253 2.56771 44.8283 1.76806 43.5188L1.13818 42.4463L1.42451 43.6318C1.82139 45.3946 2.41677 47.1081 3.19959 48.7405L3.91535 49.5024C6.74335 52.23 10.0774 54.3957 13.7357 55.8812C17.3642 57.3791 21.2542 58.1652 25.1879 58.1956" fill="#449856"/>
<path d="M2.14023 12.7541C1.37974 13.7815 1.01443 15.042 1.10953 16.3104V16.5078H1.28131L2.48379 16.2256H2.71284V16.0563C2.64863 15.273 2.81778 14.4882 3.19955 13.7984C3.70921 13.153 4.39429 12.6636 5.17507 12.3871H5.34684V12.2178C5.34684 11.738 5.34687 11.2581 5.14645 10.7783H4.97468C3.80082 10.7783 2.51245 12.3307 2.11162 13.0927" fill="#449856"/>
<path d="M5.60319 15.1815V15.0404C5.5747 14.561 5.5747 14.0804 5.60319 13.601C5.60319 13.2905 5.60319 12.98 5.60319 12.6977V12.3591H5.37414C4.62303 12.6479 3.98235 13.1611 3.54179 13.8268C3.2626 14.3994 3.11589 15.0259 3.1123 15.6613V15.9154H3.36997L4.17167 15.633L5.60319 15.1533" fill="#449856"/>
<path d="M5.00122 9.98804H5.14439C5.14439 9.31065 4.82943 8.66162 4.62901 8.01246C5.25889 8.21003 5.94603 8.37936 6.60453 8.52048H6.77631C7.14343 7.47375 7.77955 6.53867 8.62255 5.80656C9.46555 5.07445 10.4867 4.5702 11.5863 4.34314H12.1303L11.6435 4.08922C10.8705 3.7223 10.0688 3.38365 9.20992 3.07318C7.21213 4.27471 5.35845 5.69494 3.6842 7.30685C2.49912 8.49521 1.41696 9.77915 0.448975 11.1453V16.7902L0.821142 15.1814C1.07148 14.1233 1.58835 13.1446 2.32397 12.3355C3.05958 11.5265 3.99021 10.9132 5.02984 10.5526" fill="#449856"/>
<path d="M5.48934 4.45614C5.88638 4.44864 6.27329 4.33129 6.60593 4.11747C6.90664 3.86887 7.12275 3.53537 7.22515 3.16189C7.32754 2.78841 7.31127 2.39296 7.17853 2.02888C6.18772 1.80018 5.18387 1.63037 4.17236 1.52069C3.88783 1.85199 3.73169 2.27215 3.73169 2.70624C3.73169 3.14034 3.88783 3.56032 4.17236 3.89162C4.55415 4.28804 5.07836 4.52105 5.6325 4.54073" fill="#449856"/>
<path d="M3.25735 3.27095C3.15656 2.97948 3.11974 2.67016 3.14935 2.36361C3.17897 2.05706 3.27434 1.76027 3.42912 1.4928C2.51295 1.4928 1.59678 1.4928 0.709229 1.4928V3.77897C1.04655 3.4718 1.46878 3.27015 1.92241 3.19981C2.37604 3.12946 2.84065 3.19355 3.25735 3.38379" fill="#449856"/>
<path d="M22.1811 43.9423C21.4035 44.8001 20.8614 45.8397 20.6064 46.9623C20.5432 47.6867 20.6469 48.4156 20.9096 49.095C21.1724 49.7743 21.5874 50.3865 22.1238 50.8855C23.2672 52.1632 24.2303 53.5873 24.9868 55.1192L25.1586 55.5142L25.3304 55.1192C25.5608 54.6347 25.8188 54.1636 26.1034 53.708C25.5906 52.7342 25.1504 51.7248 24.7864 50.6879C24.585 50.5938 24.414 50.4462 24.2927 50.2618C24.1713 50.0773 24.1044 49.8634 24.0993 49.6437C24.0988 49.4252 24.1582 49.2106 24.2711 49.0226C23.8799 47.5591 23.6023 46.0682 23.4408 44.5631H23.2976H22.4387" fill="#449856"/>
<path d="M17.2283 56.7278C16.8581 56.6402 16.4698 56.6634 16.1129 56.7941C15.756 56.9248 15.4466 57.1571 15.2241 57.4616C15.0218 57.789 14.9148 58.165 14.9148 58.5483C14.9148 58.9316 15.0218 59.3076 15.2241 59.635L17.0278 60.4253C17.4484 60.3491 17.8302 60.1344 18.111 59.8165C18.3919 59.4987 18.555 59.0964 18.5739 58.6753C18.6171 58.2392 18.503 57.8021 18.2516 57.4408C18.0003 57.0795 17.6278 56.8171 17.1996 56.6997" fill="#449856"/>
<path d="M10.2426 11.8226C10.1543 11.7303 10.0478 11.6568 9.92962 11.6065C9.81146 11.5563 9.68412 11.5304 9.55544 11.5304C9.42676 11.5304 9.29947 11.5563 9.18131 11.6065C9.06315 11.6568 8.95665 11.7303 8.86834 11.8226C8.77552 11.9071 8.70143 12.0097 8.65078 12.1239C8.60012 12.238 8.57397 12.3612 8.57397 12.4858C8.57397 12.6104 8.60012 12.7338 8.65078 12.8479C8.70143 12.9621 8.77552 13.0646 8.86834 13.1492C8.96231 13.2529 9.07686 13.3363 9.2049 13.3945C9.33294 13.4528 9.47173 13.4846 9.61271 13.4879C9.86943 13.4815 10.1145 13.3807 10.2999 13.2055C10.4853 13.0161 10.5889 12.7632 10.5889 12.4999C10.5889 12.2367 10.4853 11.9837 10.2999 11.7943" fill="#449856"/>
<path d="M5.17505 8.18164L5.31821 8.57665C5.88895 10.1957 6.21687 11.8883 6.29164 13.6007C6.27815 14.3278 6.4277 15.0488 6.7296 15.7124C7.0315 16.3759 7.4783 16.9656 8.03811 17.4392C9.03539 18.0412 10.1643 18.3993 11.3306 18.4835C11.8345 17.8027 12.3795 17.1523 12.9626 16.536L10.0995 13.7135C9.88984 13.8715 9.63328 13.9571 9.36942 13.9571C9.10555 13.9571 8.84903 13.8715 8.63937 13.7135C8.52691 13.6027 8.43845 13.4706 8.37939 13.3251C8.32033 13.1795 8.29187 13.0235 8.29577 12.8668C8.2941 12.7146 8.32371 12.5637 8.38275 12.4231C8.44179 12.2824 8.52908 12.1549 8.63937 12.0484C8.86296 11.8364 9.15947 11.7154 9.46963 11.7097C9.77866 11.7207 10.0734 11.8409 10.2999 12.0484C10.4932 12.2384 10.6132 12.4889 10.6393 12.7567C10.6654 13.0246 10.596 13.2931 10.4431 13.5159L13.3061 16.3384H13.4493C14.055 15.742 14.7164 15.2035 15.4248 14.7297C15.3583 13.5805 15.0042 12.4653 14.3941 11.4839C13.9163 10.9289 13.3187 10.4863 12.645 10.1884C11.9713 9.8905 11.2385 9.74493 10.5003 9.7622C8.76429 9.67997 7.04867 9.35684 5.4041 8.8025L5.17505 8.18164Z" fill="#449856"/>
<path d="M10.9864 6.71406C10.2965 7.13943 9.76435 7.773 9.46899 8.52046V8.74613H10.6429C11.1296 8.74613 11.6449 8.74613 12.103 8.74613H12.2748V8.60505C12.2748 8.12523 12.6184 7.64541 12.7902 7.19382C12.9619 6.74223 12.962 6.65762 13.0765 6.37538V6.14953H12.8188C12.1735 6.14616 11.5363 6.29118 10.9578 6.57297" fill="#449856"/>
<path d="M15.6829 12.3591V12.6977C15.6829 13.0647 15.6829 13.4317 15.8546 13.855V14.1655L16.1696 13.9396C16.558 13.7101 16.9595 13.5029 17.3721 13.3188L17.7729 13.1212H17.3434L16.5991 12.8671L15.6829 12.3591Z" fill="#449856"/>
<path d="M34.3203 60.8768C34.544 61.4787 34.6977 62.1035 34.7784 62.7396C36.124 62.7396 37.4124 62.5985 38.6721 62.4291V61.667C37.2211 61.5897 35.7867 61.3241 34.4062 60.8768" fill="#449856"/>
<path d="M17.1988 30.0839C17.0737 30.1193 16.9571 30.1791 16.8559 30.2598C16.7547 30.3404 16.6708 30.4403 16.6095 30.5535C16.5481 30.6666 16.5103 30.7907 16.4984 30.9185C16.4866 31.0463 16.5008 31.1752 16.5403 31.2975C16.6208 31.453 16.744 31.583 16.8959 31.6729C17.0478 31.7627 17.2222 31.8087 17.3993 31.8055C17.5505 31.8352 17.7061 31.8352 17.8574 31.8055C18.0745 31.7121 18.2466 31.5393 18.3373 31.3235C18.4281 31.1077 18.4305 30.8657 18.3441 30.6482C18.3028 30.5407 18.2403 30.4424 18.1604 30.3586C18.0805 30.2749 17.9846 30.2074 17.8782 30.1602C17.7719 30.113 17.6572 30.087 17.5406 30.0835C17.424 30.0801 17.3079 30.0994 17.1988 30.1402" fill="#449856"/>
<path d="M21.5516 19.387C21.3218 19.5123 21.1511 19.7216 21.0761 19.9696C21.0012 20.2177 21.028 20.4849 21.1508 20.7137C21.2194 20.8605 21.328 20.9856 21.4645 21.0753C21.601 21.1649 21.7599 21.2157 21.9238 21.2217C22.0561 21.2483 22.1924 21.2483 22.3247 21.2217C22.4396 21.1728 22.546 21.1061 22.6396 21.0241C22.6396 20.6572 22.6396 20.262 22.6396 19.895C22.5155 19.8002 22.3704 19.7355 22.2163 19.7061C22.0621 19.6766 21.9031 19.6834 21.752 19.7257" fill="#449856"/>
<path d="M8.58104 24.3543L8.83871 24.5519V24.185C8.83871 23.7616 9.09638 23.3382 9.23953 22.9148L9.38269 22.4916L7.32129 23.4794L7.57895 23.6487L8.52377 24.3543" fill="#449856"/>
<path d="M17.1703 25.5681H17.5139C17.6891 25.5635 17.8596 25.5109 18.0062 25.4162C18.1529 25.3215 18.2699 25.1884 18.3442 25.0318C18.3955 24.929 18.4243 24.8167 18.4287 24.7021C18.4331 24.5876 18.4131 24.4733 18.3699 24.3669C18.3267 24.2605 18.2614 24.1641 18.178 24.0842C18.0947 24.0043 17.9952 23.9426 17.8861 23.903C17.772 23.8392 17.6461 23.7987 17.5158 23.7841C17.3855 23.7695 17.2536 23.781 17.1279 23.8179C17.0022 23.8548 16.8854 23.9164 16.7845 23.9989C16.6835 24.0814 16.6005 24.1831 16.5405 24.298C16.4672 24.5413 16.4917 24.8031 16.609 25.0291C16.7263 25.2551 16.9273 25.4278 17.1703 25.5116" fill="#449856"/>
<path d="M21.3503 27.9673C21.2718 27.8757 21.1855 27.7907 21.0926 27.7132C20.7428 27.3602 20.4442 26.9614 20.205 26.5279V26.3585H20.0333C19.4607 26.669 18.9167 27.0076 18.4013 27.3463L17.5138 27.8826L17.2561 28.0519L17.5138 28.2213L18.4013 28.7575C18.9453 29.0962 19.4893 29.4631 20.0619 29.7736H20.2337V29.6042C20.5047 29.0957 20.8631 28.6373 21.293 28.2495V28.1084" fill="#449856"/>
<path d="M7.0925 23.3099L9.44023 22.1809C9.42945 22.0965 9.42945 22.0113 9.44023 21.927V21.6729H9.26845L7.92281 21.1366L4.02905 22.6043H4.77343C5.51059 22.7177 6.21955 22.9667 6.86345 23.3382" fill="#449856"/>
<path d="M8.29495 20.8265L9.66925 21.3911H9.84103V21.137C9.85181 21.0526 9.85181 20.9674 9.84103 20.883L8.9821 18.4556C8.2606 18.2721 7.58068 17.9562 6.97797 17.5243L6.37671 17.0444L8.09456 20.7983L8.29495 20.8265Z" fill="#449856"/>
<path d="M68.5911 22.8302V1.06909C69.7816 1.06909 70.9604 1.30078 72.06 1.75076C73.1595 2.20074 74.1581 2.86017 74.9986 3.69136C75.8391 4.52255 76.5049 5.50907 76.9579 6.59443C77.4109 7.67978 77.6421 8.84257 77.6383 10.0162V22.6326C77.6383 30.0556 80.9309 33.132 86.4852 33.132C92.0395 33.132 95.3321 30.0556 95.3321 22.6326V1.06909C96.5226 1.06909 97.7014 1.30078 98.8009 1.75076C99.9004 2.20074 100.899 2.86017 101.74 3.69136C102.58 4.52255 103.246 5.50907 103.699 6.59443C104.152 7.67978 104.383 8.84257 104.379 10.0162V22.9713C104.379 34.4869 97.7084 40.8374 86.4279 40.8374C75.1475 40.8374 68.4766 34.4869 68.4766 22.9713" fill="#449856"/>
<path d="M113.57 1.06909C115.977 1.06909 118.285 2.01172 119.987 3.68964C121.689 5.36756 122.645 7.64326 122.645 10.0162V27.9106C122.642 28.5528 122.767 29.1894 123.015 29.7835C123.262 30.3776 123.627 30.9175 124.088 31.3716C124.548 31.8258 125.096 32.1853 125.699 32.4293C126.301 32.6734 126.947 32.7971 127.599 32.7934H135.042C136.026 32.7933 137 32.9849 137.909 33.3568C138.817 33.7288 139.642 34.274 140.337 34.961C141.031 35.648 141.581 36.4635 141.954 37.3605C142.328 38.2575 142.519 39.2184 142.515 40.1881H124.335C121.447 40.1807 118.679 39.0444 116.64 37.0286C114.6 35.0127 113.455 32.2818 113.455 29.4346L113.57 1.06909Z" fill="#449856"/>
<path d="M146.953 22.8302V1.06909C149.355 1.07656 151.656 2.02252 153.352 3.69963C155.048 5.37674 156 7.64814 156 10.0162V22.6326C156 30.0556 159.293 33.132 164.847 33.132C170.401 33.132 173.694 30.0556 173.694 22.6326V1.06909C174.884 1.06909 176.063 1.30078 177.163 1.75076C178.262 2.20074 179.261 2.86017 180.101 3.69136C180.942 4.52255 181.608 5.50907 182.061 6.59443C182.514 7.67978 182.745 8.84257 182.741 10.0162V22.9713C182.741 34.4869 176.07 40.8374 164.79 40.8374C153.509 40.8374 146.838 34.4869 146.838 22.9713" fill="#449856"/>
<path d="M81.2175 55.7964V58.2236C81.2221 59.2677 80.8549 60.2803 80.18 61.0848C79.5051 61.8894 78.5652 62.435 77.5242 62.6267C76.9675 62.7308 76.4015 62.778 75.835 62.7677C74.8998 62.826 73.9625 62.6936 73.0817 62.3786C72.2008 62.0636 71.3953 61.5729 70.7155 60.9372C70.0357 60.3015 69.4962 59.5343 69.1307 58.6838C68.7653 57.8332 68.5817 56.9176 68.5914 55.994C68.5896 55.0676 68.7805 54.1508 69.1523 53.3C69.5242 52.4493 70.0691 51.6829 70.7534 51.048C71.4376 50.4131 72.2467 49.9232 73.1306 49.6088C74.0145 49.2944 74.9544 49.1621 75.8922 49.22C76.9318 49.1729 77.9692 49.3534 78.9296 49.7487C79.89 50.144 80.7496 50.7443 81.4465 51.5062L80.559 52.2966C80.2785 52.5483 79.9213 52.7014 79.5432 52.7321C79.1651 52.7627 78.7874 52.6692 78.469 52.4659C77.7385 52.0221 76.8932 51.7965 76.0354 51.8166C75.4642 51.7807 74.8917 51.8633 74.3549 52.059C73.818 52.2547 73.3288 52.5593 72.9187 52.9529C72.5087 53.3465 72.1869 53.8205 71.9741 54.3443C71.7613 54.8681 71.6623 55.4301 71.6835 55.994C71.6422 56.568 71.7251 57.144 71.9265 57.6841C72.128 58.2242 72.4435 58.7161 72.8522 59.127C73.2609 59.5379 73.7534 59.8586 74.2972 60.0678C74.841 60.277 75.4238 60.3699 76.0067 60.3405C76.3969 60.3822 76.7905 60.3822 77.1806 60.3405C77.5262 60.2576 77.8331 60.0618 78.0515 59.7851C78.2698 59.5083 78.3867 59.167 78.3831 58.8164C78.3831 58.0679 78.6847 57.3498 79.2217 56.8205C79.7586 56.2912 80.4868 55.994 81.2461 55.994" fill="#449856"/>
<path d="M96.4204 59.7476H90.2648L89.7781 60.8767C89.5585 61.359 89.2059 61.7709 88.7605 62.0653C88.3151 62.3598 87.7946 62.5249 87.2586 62.542H85.9417L91.8682 49.4458H93.0134C93.5722 49.4439 94.1193 49.6031 94.5873 49.9041C95.0554 50.205 95.4239 50.6343 95.6474 51.1392L99.7702 60.2276C99.8854 60.4774 99.935 60.7517 99.9146 61.0254C99.8941 61.299 99.8042 61.5631 99.6531 61.7935C99.502 62.0239 99.2946 62.2133 99.0499 62.3441C98.8052 62.4748 98.5311 62.5429 98.2528 62.542H97.5943L96.4204 59.7476ZM95.447 57.4332L93.357 52.4376L91.2383 57.4332H95.447Z" fill="#449856"/>
<path d="M114.83 62.542C114.344 62.5538 113.863 62.4433 113.432 62.2211C113.001 61.9988 112.635 61.6722 112.368 61.2719L110.707 58.9009H107.844V62.542H106.928C106.645 62.5458 106.364 62.4935 106.102 62.3885C105.839 62.2835 105.601 62.1278 105.401 61.9304C105.201 61.7331 105.043 61.4982 104.936 61.2396C104.83 60.9811 104.777 60.7042 104.781 60.4252V52.6915C104.781 51.8355 105.124 51.0143 105.735 50.4064C106.346 49.7985 107.176 49.4532 108.045 49.4458H110.535C114.086 49.4458 116.262 51.2804 116.262 54.2157C116.295 55.0954 116.052 55.9639 115.565 56.7017C115.078 57.4396 114.371 58.0106 113.542 58.3364L116.405 62.542H114.83ZM110.392 51.9296H108.932C108.793 51.9296 108.655 51.9565 108.527 52.009C108.398 52.0615 108.281 52.1384 108.183 52.2353C108.085 52.3323 108.007 52.4475 107.953 52.5742C107.9 52.7009 107.873 52.8367 107.873 52.9739V56.5019H110.392C112.253 56.5019 113.255 55.627 113.255 54.2157C113.255 52.8045 112.282 51.9296 110.392 51.9296Z" fill="#449856"/>
<path d="M121.358 53.1432C121.358 52.1626 121.754 51.2221 122.457 50.5287C123.16 49.8353 124.114 49.4458 125.109 49.4458H127.371C128.299 49.3506 129.237 49.4492 130.124 49.7354C131.011 50.0216 131.827 50.4888 132.518 51.1066C133.21 51.7244 133.762 52.4789 134.138 53.321C134.514 54.1631 134.705 55.0739 134.7 55.9939C134.71 56.9152 134.521 57.8279 134.147 58.6722C133.772 59.5164 133.221 60.2728 132.528 60.8915C131.836 61.5102 131.018 61.9772 130.129 62.2617C129.24 62.5462 128.3 62.6418 127.371 62.542H121.358V53.1432ZM127.228 60.0582C127.795 60.1153 128.369 60.0514 128.909 59.871C129.449 59.6905 129.944 59.3975 130.359 59.012C130.775 58.6266 131.101 58.1576 131.317 57.6368C131.532 57.1161 131.632 56.5558 131.608 55.9939C131.627 55.4343 131.525 54.8771 131.308 54.3598C131.09 53.8424 130.763 53.3769 130.348 52.9945C129.933 52.6122 129.44 52.3218 128.902 52.143C128.364 51.9642 127.793 51.9011 127.228 51.9578H126.111C125.663 51.9578 125.233 52.1332 124.917 52.4455C124.6 52.7578 124.422 53.1813 124.422 53.623V60.0582H127.228Z" fill="#449856"/>
<path d="M149.903 62.2314V62.542H142.888C142.023 62.542 141.192 62.2029 140.58 61.5995C139.968 60.9961 139.624 60.1777 139.624 59.3244V49.4458H147.498C148.067 49.4458 148.613 49.6688 149.016 50.0658C149.419 50.4628 149.645 51.0012 149.645 51.5626V51.8731H142.659V54.6955H146.696C147.263 54.7028 147.805 54.9282 148.206 55.3236C148.607 55.719 148.836 56.2532 148.843 56.8123V57.0664H142.659V59.3807C142.659 59.5678 142.735 59.7474 142.869 59.8798C143.003 60.0121 143.185 60.0863 143.375 60.0863H147.755C148.323 60.0936 148.864 60.319 149.266 60.7144C149.667 61.1098 149.895 61.644 149.903 62.2031" fill="#449856"/>
<path d="M167.11 49.4458V60.3404C167.113 60.643 167.056 60.9433 166.941 61.224C166.827 61.5046 166.656 61.7599 166.441 61.9752C166.225 62.1905 165.968 62.3614 165.685 62.4781C165.401 62.5947 165.098 62.6548 164.791 62.6548H164.59L157.976 54.7238V60.5945C157.977 60.8675 157.922 61.1377 157.815 61.3895C157.708 61.6413 157.551 61.8697 157.354 62.0614C157.157 62.2531 156.923 62.4043 156.666 62.5062C156.41 62.608 156.135 62.6586 155.858 62.6548H154.942V51.5344C154.942 51.0104 155.153 50.5078 155.529 50.1373C155.905 49.7668 156.414 49.5586 156.946 49.5586H157.49L164.075 57.518V51.5344C164.082 51.0127 164.296 50.5143 164.67 50.1454C165.044 49.7764 165.55 49.5659 166.079 49.5586L167.11 49.4458Z" fill="#449856"/>
<path d="M171.805 61.2721L172.006 60.8769C172.219 60.4193 172.601 60.0592 173.075 59.8704C173.549 59.6815 174.078 59.6782 174.554 59.8609C175.415 60.175 176.326 60.3373 177.245 60.3407C179.077 60.3407 179.822 59.748 179.822 58.9577C179.822 56.5022 172.091 58.1674 172.091 53.3128C172.091 51.0831 173.895 49.2202 177.674 49.2202C179.294 49.179 180.892 49.5899 182.284 50.4056L182.112 50.829C181.92 51.2875 181.561 51.6582 181.105 51.8673C180.648 52.0765 180.129 52.1089 179.65 51.9581C179.008 51.7717 178.343 51.6765 177.674 51.6757C175.842 51.6757 175.126 52.3532 175.126 53.1717C175.126 55.5708 182.857 53.9056 182.857 58.8166C182.857 60.9899 181.024 62.8527 177.13 62.8527C175.217 62.8877 173.335 62.3674 171.719 61.3567" fill="#449856"/>
</g>
<defs>
<clipPath id="clip0_0_9413">
<rect width="182.348" height="61.8398" fill="white" transform="translate(0.508301 0.928162)"/>
</clipPath>
</defs>
</svg>
