<svg width="54" height="51" viewBox="0 0 54 51" fill="none" xmlns="http://www.w3.org/2000/svg">
<path d="M26.9422 50.4989C20.5071 50.5549 14.2568 48.3785 9.28427 44.3503C4.67044 40.6983 1.53783 35.5357 0.455325 29.8002C-0.246895 26.3317 -0.135646 22.7508 0.78057 19.3312C1.69679 15.9116 3.39372 12.7438 5.74166 10.07C9.92345 4.98307 15.9303 1.67845 22.5166 0.84152C27.3974 0.101264 32.3881 0.568717 37.0403 2.20185C42.1732 4.03551 46.5957 7.40704 49.6877 11.8439C51.9251 14.8787 53.3418 18.4255 53.8042 22.1497C54.3796 26.7061 53.6812 31.331 51.7846 35.5245C49.6718 40.239 46.0513 44.1416 41.4768 46.6356C37.4441 48.956 32.8982 50.2709 28.2334 50.4663H27.516H26.8428L26.9422 50.4989ZM9.96851 34.4471C17.0806 25.7497 22.8453 16.0603 27.0746 5.69518C31.1907 16.1699 37.1123 25.864 44.578 34.3491L44.5117 34.4253H30.0433C29.747 35.9551 29.7657 37.528 30.0985 39.0504C30.3462 40.0557 30.9036 40.9606 31.6941 41.6407C32.4846 42.3208 33.4694 42.7428 34.513 42.8485C36.0471 43.0165 37.5952 42.6921 38.9274 41.9234C41.6453 40.5142 43.9316 38.4139 45.5491 35.84C47.891 32.0264 48.9098 27.5645 48.4517 23.1292C48.3059 21.3276 47.8467 19.5643 47.0942 17.9164C44.9624 13.3054 41.1998 9.61842 36.5105 7.54522C32.1584 5.57431 27.2768 5.0437 22.5939 6.03254C19.7992 6.52275 17.1344 7.56741 14.7612 9.10321C12.388 10.639 10.3558 12.634 8.78763 14.9672C7.2908 17.15 6.2841 19.6229 5.83492 22.2204C5.38575 24.818 5.50446 27.4801 6.1831 30.0287C7.09989 33.6466 9.04486 36.9312 11.7895 39.4966C13.1122 40.8239 14.7401 41.8169 16.535 42.3914C17.6748 42.8337 18.9178 42.9506 20.1218 42.7288C20.8984 42.6059 21.6348 42.3044 22.2713 41.8488C22.9079 41.3931 23.4267 40.7961 23.7858 40.106C24.0399 39.5911 24.1934 39.0337 24.2383 38.4628C24.3045 37.1351 24.2383 35.7965 24.2383 34.4471H9.96851Z" fill="white"/>
</svg>
