<svg width="131" height="27" viewBox="0 0 131 27" fill="none" xmlns="http://www.w3.org/2000/svg">
<g clip-path="url(#clip0_0_3087)">
<path d="M131 9.93275C129.626 9.93275 128.252 9.93275 126.866 9.93275C126.431 9.91665 126 10.0246 125.62 10.2448C125.239 10.465 124.925 10.7891 124.71 11.1816L115.471 26.4565C115.393 26.5837 115.304 26.7109 115.158 26.9075L114.108 25.173C111.442 20.6402 108.772 16.1036 106.098 11.5632C105.923 11.1885 105.643 10.8774 105.294 10.671C104.945 10.4646 104.544 10.3725 104.143 10.4068C102.914 10.4068 101.674 10.4068 100.445 10.4068C100.021 10.4068 99.8866 10.2565 99.8866 9.82868C99.8866 8.41797 99.8866 7.01883 99.8866 5.60812C99.8866 5.18029 100.021 5.04152 100.445 5.04152C103.406 5.04152 106.377 5.04152 109.383 5.04152C110.102 5.13003 110.811 5.30066 111.494 5.55031C111.352 4.78688 110.957 4.09842 110.379 3.60273C109.8 3.10705 109.073 2.83494 108.321 2.83296C105.707 2.83296 103.093 2.83296 100.501 2.83296C100.021 2.83296 99.8308 2.69421 99.8643 2.18543C99.8978 1.67665 99.8643 1.02911 99.8643 0.404698C99.8643 0.0693658 99.9648 -0.0809621 100.3 -0.0809621C103.283 -0.0809621 106.266 -0.0809621 109.237 -0.0809621C109.972 -0.0602119 110.692 0.132673 111.344 0.483169C111.997 0.833666 112.563 1.33265 113.002 1.94259C113.819 3.00807 114.434 4.22449 114.812 5.52718C114.812 5.70063 114.924 5.86251 115.013 6.14003C115.482 5.34217 115.907 4.64838 116.309 3.94303C116.711 3.23767 117.303 2.28949 117.773 1.43382C118.023 0.95644 118.398 0.560775 118.853 0.291185C119.309 0.0215947 119.829 -0.111266 120.353 -0.092519C123.917 -0.092519 127.481 -0.092519 131.034 -0.092519V5.05309H126.33C125.551 5.05273 124.803 5.3665 124.244 5.9278C123.685 6.4891 123.359 7.25376 123.336 8.05951C124.396 7.30987 125.68 6.97762 126.956 7.1229C128.319 7.1229 129.682 7.1229 131.034 7.1229L131 9.93275ZM115.17 21.3918C115.538 20.8021 115.829 20.2355 116.153 19.8077C116.23 19.703 116.271 19.575 116.271 19.4435C116.271 19.3119 116.23 19.1839 116.153 19.0792C114.064 15.5178 111.997 11.9447 109.897 8.39485C109.671 8.0188 109.322 7.73961 108.913 7.60855C108.088 7.48707 107.256 7.41756 106.422 7.40041C106.422 7.40041 106.422 7.51604 106.366 7.57386C107.083 7.91217 107.672 8.48512 108.042 9.20427L114.823 20.8484L115.17 21.3918ZM124.051 2.60169C123.023 2.60169 122.063 2.60169 121.113 2.60169C120.846 2.6056 120.584 2.6825 120.354 2.82463C120.125 2.96675 119.936 3.16907 119.806 3.41112L115.248 11.4013C115.181 11.5285 115.103 11.7482 115.158 11.8522C115.482 12.4766 115.84 13.0086 116.276 13.7486C116.432 13.5058 116.533 13.367 116.622 13.2167C118.287 10.3375 119.973 7.4351 121.616 4.56744C121.994 3.83069 122.594 3.24193 123.325 2.89077L124.085 2.59014" fill="white"/>
<path d="M10.7135 12.997C10.9816 11.991 11.2497 10.9735 11.5067 9.95591C12.1323 7.52765 12.7579 5.09938 13.3612 2.67112C13.3692 2.58253 13.3948 2.4966 13.4364 2.4187C13.4779 2.34081 13.5345 2.27261 13.6026 2.21836C13.6708 2.16411 13.7489 2.12497 13.8323 2.1034C13.9157 2.08182 14.0025 2.07827 14.0873 2.09296C16.3775 2.09296 18.6789 2.09296 20.9691 2.09296H21.4942C21.4048 2.42829 21.349 2.71737 21.2596 2.99489C19.3083 9.28525 17.3532 15.5795 15.3944 21.8775C15.3808 21.9726 15.3491 22.0639 15.3013 22.1462C15.2534 22.2286 15.1903 22.3003 15.1155 22.3572C15.0407 22.4142 14.9558 22.4553 14.8656 22.4781C14.7754 22.501 14.6818 22.5052 14.5901 22.4904C11.9871 22.4904 9.39521 22.4904 6.76985 22.4904C6.42352 22.4904 6.21125 22.421 6.09953 22.0394C4.08862 15.5486 2.06654 9.06555 0.0332768 2.59018C-0.0896126 2.19703 0.0332727 2.05827 0.413112 2.05827C2.75918 2.05827 5.09409 2.05827 7.44016 2.05827C7.83117 2.05827 7.96522 2.22016 8.05459 2.59018C8.82544 5.87412 9.6298 9.15805 10.423 12.442L10.5571 12.9623H10.6911" fill="white"/>
<path d="M17.3944 22.4441C17.4838 22.1203 17.5508 21.8197 17.6402 21.5306C19.2638 16.2424 20.88 10.9657 22.4887 5.70061C22.501 5.60453 22.5317 5.51196 22.579 5.42832C22.6263 5.34467 22.6893 5.27164 22.7642 5.21349C22.8391 5.15534 22.9244 5.11324 23.0153 5.08967C23.1061 5.0661 23.2005 5.06152 23.2931 5.07621C26.4994 5.07621 29.7057 5.07621 32.912 5.07621C33.3136 5.05498 33.7151 5.12063 34.0908 5.26898C34.4665 5.41732 34.8082 5.6451 35.0941 5.93777C35.38 6.23045 35.6039 6.58159 35.7514 6.96881C35.8989 7.35602 35.9667 7.77081 35.9507 8.18669C35.9507 12.7426 35.9507 17.31 35.9507 21.8659C35.9507 22.3516 35.8278 22.525 35.3362 22.525C33.4035 22.525 31.482 22.525 29.5604 22.525C29.0577 22.525 28.9125 22.3516 28.946 21.8659C28.9795 21.3803 28.946 20.7096 28.946 20.1314C28.946 19.7961 28.8343 19.6458 28.4991 19.6574C27.7506 19.6574 26.991 19.6574 26.2648 19.6574C26.1289 19.6443 25.9935 19.6864 25.8871 19.7749C25.7807 19.8634 25.7118 19.9913 25.695 20.1314C25.5163 20.8021 25.3375 21.4728 25.1141 22.1203C25.0741 22.216 25.0127 22.3004 24.935 22.3668C24.8573 22.4331 24.7655 22.4794 24.6672 22.5019C22.3546 22.5019 20.0421 22.5019 17.7407 22.5019C17.6273 22.4891 17.5151 22.4658 17.4056 22.4325L17.3944 22.4441ZM29.0354 12.3147V10.6959C29.0354 10.3837 28.9795 10.0715 28.5997 10.0368C28.5246 10.022 28.4473 10.0232 28.3727 10.0406C28.2981 10.0579 28.2277 10.0909 28.1659 10.1375C28.1042 10.1841 28.0522 10.2433 28.0135 10.3115C27.9747 10.3798 27.9499 10.4555 27.9406 10.534C27.6501 11.6903 27.3708 12.9045 27.0803 14.0839C27.0133 14.373 27.0803 14.4771 27.3931 14.4771C27.7059 14.4771 28.1528 14.4771 28.5103 14.4771C28.8678 14.4771 29.013 14.3152 29.013 13.9452C29.013 13.4017 29.013 12.8582 29.013 12.3147" fill="white"/>
<path d="M77.789 5.11095H78.3475C80.4367 5.11095 82.5146 5.11095 84.6037 5.11095C85.0729 5.11095 85.2405 5.27283 85.3299 5.72379C85.7097 7.64328 86.1119 9.53964 86.4471 11.4476C86.4768 11.6255 86.5499 11.7926 86.6593 11.9332C86.7178 11.7826 86.7663 11.6281 86.8045 11.4707C87.3073 9.53964 87.8212 7.60859 88.3016 5.68911C88.3083 5.60517 88.3316 5.52357 88.3701 5.44938C88.4087 5.3752 88.4616 5.31004 88.5255 5.25796C88.5894 5.20587 88.6631 5.16799 88.7418 5.14668C88.8205 5.12536 88.9026 5.12107 88.983 5.13407C91.0051 5.13407 93.0272 5.13407 95.0381 5.13407H95.5408C95.485 5.34221 95.4515 5.50409 95.3956 5.67754L89.0948 25.3349C88.9495 25.7859 88.8378 26.26 88.659 26.6994C88.6115 26.7938 88.5434 26.8754 88.4599 26.9376C88.3765 26.9998 88.2802 27.041 88.1787 27.0578C86.0784 27.0578 83.9781 27.0578 81.8778 27.0578C81.498 27.0578 81.4645 26.8844 81.5538 26.5606C81.8666 25.4043 82.1906 24.3174 82.4587 23.1726C82.5533 22.7934 82.5533 22.3955 82.4587 22.0163C80.9692 16.6201 79.4461 11.224 77.8895 5.82786L77.7443 5.19189" fill="white"/>
<path d="M77.3532 10.1756H76.7387C75.3199 10.1756 73.8899 10.1756 72.4599 10.1756C72.0577 10.1756 71.879 10.2912 71.8902 10.7306C71.9014 11.17 72.0242 11.3088 72.4488 11.3088C74.0352 11.3088 75.6215 11.3088 77.2079 11.3088C77.2814 11.2956 77.3567 11.2978 77.4293 11.3152C77.5019 11.3326 77.5705 11.3649 77.6308 11.4102C77.6912 11.4554 77.7423 11.5128 77.7809 11.5788C77.8196 11.6447 77.8451 11.7181 77.8559 11.7944C78.1352 12.8698 78.448 13.9221 78.7496 14.9859C78.7496 15.1478 78.8167 15.3096 78.8725 15.5293H78.2804H72.5046C72.3099 15.5576 72.1188 15.608 71.9349 15.6797C72.0131 15.9225 72.0354 16.2463 72.1918 16.385C72.4261 16.5477 72.7029 16.6324 72.985 16.6278C74.8619 16.6278 76.7238 16.6278 78.5709 16.6278C78.6636 16.6115 78.7586 16.6149 78.8501 16.6378C78.9415 16.6607 79.0275 16.7026 79.1028 16.761C79.178 16.8195 79.241 16.8932 79.2879 16.9776C79.3347 17.0621 79.3644 17.1555 79.3752 17.2523C79.7886 18.8133 80.2355 20.3627 80.6935 21.8775C80.8164 22.3054 80.6935 22.4441 80.3025 22.4441C76.1355 22.4441 71.9795 22.4441 67.8237 22.4441C66.9959 22.435 66.2048 22.089 65.6215 21.481C65.0382 20.8729 64.7096 20.0517 64.7067 19.1949C64.7067 14.6621 64.7067 10.1409 64.7067 5.60815C64.7067 5.12249 64.8743 4.99529 65.3212 4.99529C68.6578 4.99529 72.0093 4.99529 75.3758 4.99529C75.4603 4.98231 75.5466 4.9871 75.6293 5.00936C75.7121 5.03162 75.7896 5.0709 75.8574 5.12485C75.9252 5.1788 75.9817 5.24633 76.0237 5.32341C76.0658 5.40048 76.0924 5.48551 76.1019 5.57345C76.4594 6.90321 76.8504 8.23298 77.2191 9.57431C77.2191 9.72463 77.2861 9.88652 77.342 10.1062" fill="white"/>
<path d="M51.7699 22.5251H41.0785C40.6342 22.5412 40.1914 22.4625 39.7777 22.2939C39.364 22.1253 38.9883 21.8704 38.6739 21.545C38.3595 21.2196 38.1132 20.8307 37.9503 20.4025C37.7874 19.9743 37.7114 19.516 37.727 19.0561C37.727 14.6506 37.727 10.2334 37.727 5.82786C37.727 5.12251 37.727 5.12251 38.4196 5.12251C40.5869 5.12251 42.7543 5.12251 44.9104 5.12251C45.3796 5.12251 45.5137 5.27283 45.5137 5.74692C45.5137 8.78418 45.5137 11.8253 45.5137 14.8703C45.5137 15.83 45.726 16.0266 46.6867 16.0266H49.3344C49.5914 16.0266 49.7925 16.0266 49.8818 16.3735L51.7699 22.1551C51.7777 22.2744 51.7777 22.3942 51.7699 22.5135" fill="white"/>
<path d="M65.2542 22.525H54.5628C54.1176 22.5447 53.6733 22.4684 53.2581 22.301C52.8429 22.1336 52.4658 21.8788 52.1507 21.5527C51.8357 21.2266 51.5895 20.8362 51.4278 20.4065C51.266 19.9767 51.1923 19.5169 51.2113 19.0561C51.2113 14.6313 51.2113 10.2026 51.2113 5.77001C51.2113 5.06466 51.2113 5.06466 51.9039 5.06466C54.0713 5.06466 56.2386 5.06466 58.4059 5.06466C58.8639 5.06466 59.0092 5.20342 59.0092 5.68907C59.0092 8.74175 59.0092 11.806 59.0092 14.8587C59.0092 15.7606 59.2326 16.015 60.1264 16.015H62.8188C63.0869 16.015 63.2768 16.015 63.3773 16.3619C63.9918 18.3045 64.6286 20.2471 65.2542 22.1435C65.2693 22.2624 65.2693 22.3829 65.2542 22.5019" fill="white"/>
</g>
<defs>
<clipPath id="clip0_0_3087">
<rect width="131" height="27" fill="white"/>
</clipPath>
</defs>
</svg>
