<svg width="90" height="39" viewBox="0 0 90 39" fill="none" xmlns="http://www.w3.org/2000/svg">
<g clip-path="url(#clip0_0_3106)">
<path d="M11.5654 23.1717H9.73455C7.80194 23.251 5.88144 22.8227 4.15281 21.9267C3.10352 21.3614 2.30566 20.4001 1.92517 19.2427C1.54467 18.0854 1.61083 16.8212 2.10989 15.713C3.24026 13.2953 5.12306 11.3388 7.4572 10.1564C11.595 7.79892 16.2002 6.4503 20.9204 6.21372C21.8408 6.19926 22.7605 6.27648 23.6666 6.44429C23.8813 6.49536 24.1049 6.49049 24.3173 6.43012C24.5297 6.36974 24.7243 6.25577 24.8834 6.09844C25.3327 5.65524 25.8311 5.26829 26.3681 4.94562C26.5554 4.81598 26.7686 4.73172 26.9918 4.69912C27.215 4.66653 27.4424 4.68645 27.6571 4.7574C27.8718 4.82835 28.0682 4.94849 28.2317 5.10885C28.3951 5.2692 28.5213 5.46562 28.6008 5.68343C29.053 6.7972 29.1848 8.02195 28.9804 9.21106C28.6749 12.7471 27.76 16.1983 26.2788 19.402C24.8388 22.5723 23.1866 25.6503 21.6125 28.7629C20.6173 30.732 19.3458 32.5383 17.8392 34.1236C17.5118 34.4686 17.1353 34.7601 16.7229 34.9882C16.5896 35.0506 16.445 35.0829 16.2987 35.0829C16.1524 35.0829 16.0077 35.0506 15.8745 34.9882C15.7735 34.8796 15.6994 34.7474 15.6586 34.6029C15.6178 34.4583 15.6114 34.3058 15.64 34.1582C16.0345 32.8593 16.4587 31.5681 16.9127 30.2847C17.6271 28.2442 18.3862 26.2152 19.1454 24.1747C19.2232 23.8804 19.2755 23.5794 19.3017 23.2755C19.0883 23.3552 18.8827 23.4556 18.6877 23.5752C14.319 26.8723 9.9541 30.1809 5.5929 33.501C4.28677 34.4925 2.99181 35.5185 1.68568 36.533C1.56596 36.6482 1.42566 36.7382 1.27263 36.7981C0.98238 36.7981 0.569331 36.9826 0.435369 36.7981C0.336766 36.6747 0.268935 36.5282 0.237799 36.3714C0.206663 36.2147 0.213174 36.0525 0.256758 35.8989C0.87529 34.8091 1.56141 33.7616 2.31083 32.7632C4.72441 29.7866 7.38796 27.036 10.2704 24.5436C10.7839 24.0825 11.3198 23.6559 11.8556 23.2179C11.8556 23.2179 11.7998 23.1141 11.7775 23.0565L11.5654 23.1717ZM11.2974 20.2551C12.6576 20.0647 13.9629 19.5774 15.1265 18.8256C17.2364 17.5052 19.036 15.7176 20.3957 13.5918C20.6719 13.1583 21.0581 12.8114 21.512 12.5888C21.7035 12.5388 21.877 12.4328 22.0116 12.2835C22.1463 12.1343 22.2364 11.9481 22.2711 11.7473C22.4498 10.7443 22.6507 9.74136 22.7847 8.72688C22.7847 8.60007 22.5056 8.27728 22.3605 8.28881C21.5827 8.28057 20.8058 8.34228 20.0384 8.47326C17.4398 8.95478 15.0232 10.1766 13.0613 12.0009C11.256 13.5235 9.94355 15.5786 9.29918 17.8918C8.93078 19.3674 9.58942 20.1975 11.2639 20.1975" fill="white"/>
<path d="M67.941 30.204L77.162 30.9418C77.4891 30.9596 77.8105 31.0377 78.1109 31.1723C78.323 31.2761 78.5909 31.5182 78.6021 31.7026C78.6133 31.8871 78.3118 32.1753 78.1109 32.2214C77.19 32.4254 76.258 32.5717 75.32 32.6595C67.8517 33.3051 60.4391 34.3887 53.0489 35.726C48.0476 36.6252 43.0018 37.4091 38.0675 38.6196C34.4282 39.5073 31.0903 38.7118 27.7078 37.6743C27.5283 37.6103 27.365 37.5056 27.2298 37.368C27.0946 37.2303 26.9909 37.0632 26.9263 36.8788C26.937 36.6827 26.992 36.4919 27.087 36.3217C27.182 36.1515 27.3143 36.0067 27.4733 35.8989C28.2526 35.3843 29.1034 34.9955 29.9963 34.7461C35.2878 33.7316 40.5793 32.6595 45.9154 31.864C50.1464 31.2415 54.422 30.9418 58.6865 30.5959C61.4662 30.3769 64.2682 30.3308 67.941 30.1579" fill="white"/>
<path d="M44.0623 18.157C43.9516 19.8282 43.2575 21.4012 42.1087 22.5838C40.0822 24.9044 37.4248 26.5397 34.484 27.2758C33.1288 27.5914 31.7572 27.8262 30.3758 27.979C30.1518 27.9853 29.9326 28.0485 29.7379 28.1631C29.5432 28.2777 29.3788 28.4402 29.2595 28.6362C27.3775 31.8306 25.0362 34.711 22.3158 37.1786C21.9113 37.5521 21.4698 37.8806 20.9985 38.1585C20.7202 38.245 20.4278 38.2724 20.1389 38.2392C20.1389 37.9279 20.0161 37.559 20.1389 37.3169C20.9762 35.507 21.9139 33.7547 22.7065 31.9332C24.649 27.4833 26.5579 23.0219 28.3999 18.5259C28.8713 17.4881 29.6543 16.635 30.6326 16.0934C31.3359 15.6438 32.0727 15.2519 32.8653 14.8714C33.0039 14.7768 33.1605 14.7137 33.3246 14.6863C33.4886 14.6589 33.6565 14.6678 33.817 14.7125C33.9774 14.7572 34.1269 14.8366 34.2553 14.9455C34.3838 15.0544 34.4884 15.1903 34.5622 15.3441C34.8412 15.7937 35.1761 15.6669 35.5557 15.5977C37.1022 15.2752 38.6633 15.0328 40.2332 14.8714C41.0318 14.8733 41.819 15.0667 42.5329 15.4363C43.0419 15.6562 43.4687 16.0396 43.7502 16.5296C44.0317 17.0196 44.1529 17.5903 44.0958 18.157H44.0623ZM31.3359 25.2353C31.6372 25.2118 31.936 25.1617 32.229 25.0855C33.0876 24.8114 33.9269 24.4763 34.7408 24.0825C36.2173 23.3739 37.4036 22.1488 38.0898 20.624C38.3349 20.1432 38.4021 19.5867 38.2788 19.0584C38.1556 18.5301 37.8503 18.0663 37.42 17.7535C36.7632 17.5937 36.075 17.6424 35.4456 17.8934C34.8161 18.1443 34.2747 18.5858 33.8923 19.1599C33.1332 20.9468 32.3518 22.7222 31.5815 24.509C31.5145 24.682 31.4587 24.8664 31.3359 25.2238" fill="white"/>
<path d="M60.3944 28.4171C57.5812 28.4171 56.063 26.5956 56.476 23.6675C56.8902 21.3954 57.9289 19.2943 59.4679 17.6151C61.4281 15.244 63.9462 13.4337 66.7799 12.3583C68.5934 11.581 70.6154 11.4952 72.4845 12.1162C72.8564 12.2508 73.196 12.4661 73.4805 12.7477C73.765 13.0293 73.9878 13.3705 74.1338 13.7485C74.2797 14.1265 74.3456 14.5324 74.3268 14.9389C74.3081 15.3454 74.2052 15.743 74.025 16.1049C73.2045 18.1569 71.6997 19.8377 69.7829 20.8431C67.6421 22.1217 65.2225 22.8197 62.7499 22.872C62.4994 22.9232 62.263 23.0313 62.058 23.1886C61.853 23.3459 61.6845 23.5483 61.5648 23.7813C61.4451 24.0142 61.3771 24.2718 61.3658 24.5353C61.3545 24.7988 61.4002 25.0615 61.4996 25.3045C61.6468 25.4493 61.8233 25.5585 62.0164 25.6243C62.2094 25.6901 62.4142 25.7108 62.616 25.6849C63.3366 25.5626 64.041 25.3537 64.7147 25.0624C66.032 24.5206 67.3269 23.9096 68.6331 23.3562C69.0842 23.2034 69.5474 23.0915 70.0174 23.0219C70.1945 23.0227 70.3694 23.0619 70.5309 23.1372C70.5309 23.3331 70.5309 23.6214 70.3746 23.7366C69.7526 24.3654 69.0846 24.9435 68.3763 25.4659C66.3841 26.8792 64.1364 27.8633 61.7675 28.3595C61.6112 28.3595 61.4438 28.4517 61.2875 28.4632H60.4391L60.3944 28.4171ZM62.8281 20.9583L63.0513 21.2581C63.6967 21.0236 64.3237 20.7384 64.9268 20.405C66.6919 19.2089 68.0747 17.5002 68.901 15.494C69.0453 15.0297 69.1389 14.5502 69.1801 14.0645C68.6988 14.1689 68.2332 14.3395 67.7958 14.5717C65.9542 15.9529 64.4297 17.7359 63.3304 19.794C63.1295 20.1629 62.9397 20.5433 62.7499 20.9468" fill="white"/>
<path d="M59.6688 15.0559C59.4916 15.4861 59.2708 15.8957 59.0102 16.2779C57.2189 18.2953 55.681 20.5379 54.4331 22.9527C53.4455 24.7984 52.8589 26.844 52.714 28.9474C52.714 29.2817 52.4126 29.8351 52.167 29.8927C51.9597 29.932 51.7466 29.9245 51.5423 29.8707C51.3381 29.817 51.1475 29.7183 50.9836 29.5815C50.0117 28.5933 49.4341 27.2645 49.3649 25.8578C49.2756 24.8779 49.2533 24.9125 48.3379 25.0509C47.5433 25.1697 46.7404 25.2198 45.9377 25.2007C45.5834 25.2382 45.2256 25.1876 44.8941 25.0531C44.5626 24.9187 44.2671 24.7043 44.0322 24.4279C43.7973 24.1514 43.6298 23.821 43.5438 23.4641C43.4577 23.1072 43.4556 22.7342 43.5376 22.3763C43.9468 19.1645 45.5478 16.2423 48.003 14.2259C48.3052 14.0089 48.6565 13.876 49.0229 13.8399C49.3893 13.8038 49.7586 13.8658 50.0951 14.0198C50.4316 14.1739 50.724 14.4148 50.9442 14.7195C51.1643 15.0241 51.3048 15.3821 51.352 15.7591C51.3566 16.1696 51.2397 16.5718 51.0171 16.9119C50.3138 18.2953 49.5547 19.6326 48.8737 21.016C48.7261 21.3799 48.6797 21.7791 48.7398 22.1688C48.7398 22.3763 49.0189 22.6069 49.2198 22.6991C49.4207 22.7913 49.6329 22.457 49.6775 22.2726C50.5636 19.4488 52.1221 16.9001 54.2099 14.8599C55.0456 13.7738 56.2365 13.04 57.5589 12.7963C58.8762 12.6465 59.4902 13.3843 59.6353 15.102" fill="white"/>
<path d="M90 1.83297C89.8371 2.3293 89.6277 2.80806 89.3749 3.26247C85.6574 8.49629 81.9065 13.707 78.2114 18.9293C77.6979 19.6556 77.229 20.4165 76.7155 21.1428C76.5526 21.4113 76.3308 21.6364 76.068 21.7999C75.9515 21.8666 75.8227 21.9072 75.69 21.9191C75.5573 21.9311 75.4236 21.914 75.2977 21.869C75.2085 21.7677 75.1446 21.6455 75.1116 21.5129C75.0785 21.3803 75.0773 21.2414 75.1079 21.1082C76.3136 15.8628 77.8542 10.7328 80.9464 6.29439C82.0851 4.37426 83.5799 2.70531 85.3449 1.38337C86.1354 0.85688 86.9868 0.43473 87.879 0.126791C89.1851 -0.299754 89.9107 0.357359 90.0335 1.83297" fill="white"/>
<path d="M72.0491 27.8637C70.8658 27.7254 70.3523 27.0798 70.743 25.9846C71.0913 24.8606 71.8052 23.8954 72.7636 23.2525C73.1462 23.0716 73.5604 22.973 73.981 22.9626C74.4016 22.9523 74.8199 23.0303 75.2104 23.192C75.6009 23.3538 75.9555 23.5958 76.2526 23.9035C76.5497 24.2111 76.7832 24.578 76.9387 24.9817C77.1508 25.8578 76.9387 26.4688 76.135 26.7455C74.7953 27.1951 73.4111 27.4948 72.0491 27.8983" fill="white"/>
</g>
<defs>
<clipPath id="clip0_0_3106">
<rect width="90" height="39" fill="white"/>
</clipPath>
</defs>
</svg>
