<svg width="24" height="23" viewBox="0 0 24 23" fill="none" xmlns="http://www.w3.org/2000/svg">
<g clip-path="url(#clip0_22_2672)">
<path d="M19 1.17505H5C3.6744 1.17652 2.40356 1.66426 1.46622 2.5313C0.528882 3.39833 0.00158786 4.57387 0 5.80004L0 16.9C0.00158786 18.1262 0.528882 19.3017 1.46622 20.1688C2.40356 21.0358 3.6744 21.5235 5 21.525H19C20.3256 21.5235 21.5964 21.0358 22.5338 20.1688C23.4711 19.3017 23.9984 18.1262 24 16.9V5.80004C23.9984 4.57387 23.4711 3.39833 22.5338 2.5313C21.5964 1.66426 20.3256 1.17652 19 1.17505ZM5 3.02504H19C19.5988 3.02613 20.1835 3.19295 20.6789 3.50401C21.1744 3.81508 21.5578 4.25617 21.78 4.77052L14.122 11.8551C13.5584 12.3743 12.7954 12.6658 12 12.6658C11.2046 12.6658 10.4416 12.3743 9.878 11.8551L2.22 4.77052C2.44215 4.25617 2.82561 3.81508 3.32105 3.50401C3.81648 3.19295 4.40121 3.02613 5 3.02504ZM19 19.675H5C4.20435 19.675 3.44129 19.3826 2.87868 18.8622C2.31607 18.3418 2 17.636 2 16.9V7.18753L8.464 13.163C9.40263 14.0291 10.6743 14.5154 12 14.5154C13.3257 14.5154 14.5974 14.0291 15.536 13.163L22 7.18753V16.9C22 17.636 21.6839 18.3418 21.1213 18.8622C20.5587 19.3826 19.7956 19.675 19 19.675Z" fill="white"/>
</g>
<defs>
<clipPath id="clip0_22_2672">
<rect width="24" height="22.2" fill="white" transform="translate(0 0.25)"/>
</clipPath>
</defs>
</svg>
