<svg width="19" height="20" viewBox="0 0 19 20" fill="none" xmlns="http://www.w3.org/2000/svg">
<g clip-path="url(#clip0_22_1051)">
<path d="M18.2083 18.3333H3.95833C3.32844 18.3333 2.72435 18.0699 2.27895 17.6011C1.83356 17.1323 1.58333 16.4964 1.58333 15.8333V0.833333C1.58333 0.61232 1.49993 0.400358 1.35146 0.244078C1.20299 0.0877974 1.00163 0 0.791667 0C0.581704 0 0.38034 0.0877974 0.231874 0.244078C0.0834075 0.400358 0 0.61232 0 0.833333L0 15.8333C0.00125705 16.938 0.418698 17.997 1.16076 18.7782C1.90282 19.5593 2.9089 19.9987 3.95833 20H18.2083C18.4183 20 18.6197 19.9122 18.7681 19.7559C18.9166 19.5996 19 19.3877 19 19.1667C19 18.9457 18.9166 18.7337 18.7681 18.5774C18.6197 18.4211 18.4183 18.3333 18.2083 18.3333Z" fill="white"/>
<path d="M4.75016 16.6667C4.96013 16.6667 5.16149 16.5789 5.30996 16.4227C5.45842 16.2664 5.54183 16.0544 5.54183 15.8334V10.0001C5.54183 9.77907 5.45842 9.56711 5.30996 9.41083C5.16149 9.25455 4.96013 9.16675 4.75016 9.16675C4.5402 9.16675 4.33884 9.25455 4.19037 9.41083C4.0419 9.56711 3.9585 9.77907 3.9585 10.0001V15.8334C3.9585 16.0544 4.0419 16.2664 4.19037 16.4227C4.33884 16.5789 4.5402 16.6667 4.75016 16.6667Z" fill="white"/>
<path d="M7.9165 8.33333V15.8333C7.9165 16.0543 7.99991 16.2663 8.14838 16.4226C8.29684 16.5789 8.49821 16.6667 8.70817 16.6667C8.91813 16.6667 9.1195 16.5789 9.26796 16.4226C9.41643 16.2663 9.49984 16.0543 9.49984 15.8333V8.33333C9.49984 8.11232 9.41643 7.90036 9.26796 7.74408C9.1195 7.5878 8.91813 7.5 8.70817 7.5C8.49821 7.5 8.29684 7.5878 8.14838 7.74408C7.99991 7.90036 7.9165 8.11232 7.9165 8.33333Z" fill="white"/>
<path d="M11.875 10.8333V15.8333C11.875 16.0543 11.9584 16.2663 12.1069 16.4226C12.2553 16.5789 12.4567 16.6667 12.6667 16.6667C12.8766 16.6667 13.078 16.5789 13.2265 16.4226C13.3749 16.2663 13.4583 16.0543 13.4583 15.8333V10.8333C13.4583 10.6123 13.3749 10.4004 13.2265 10.2441C13.078 10.0878 12.8766 10 12.6667 10C12.4567 10 12.2553 10.0878 12.1069 10.2441C11.9584 10.4004 11.875 10.6123 11.875 10.8333Z" fill="white"/>
<path d="M15.8335 7.50008V15.8334C15.8335 16.0544 15.9169 16.2664 16.0654 16.4227C16.2138 16.579 16.4152 16.6667 16.6252 16.6667C16.8351 16.6667 17.0365 16.579 17.185 16.4227C17.3334 16.2664 17.4168 16.0544 17.4168 15.8334V7.50008C17.4168 7.27907 17.3334 7.06711 17.185 6.91083C17.0365 6.75455 16.8351 6.66675 16.6252 6.66675C16.4152 6.66675 16.2138 6.75455 16.0654 6.91083C15.9169 7.06711 15.8335 7.27907 15.8335 7.50008Z" fill="white"/>
<path d="M4.74999 7.50001C4.95994 7.49996 5.16127 7.41214 5.3097 7.25584L8.14862 4.26751C8.29951 4.1162 8.49993 4.0318 8.70833 4.0318C8.91673 4.0318 9.11714 4.1162 9.26804 4.26751L10.9875 6.07751C11.4329 6.54619 12.0369 6.80948 12.6667 6.80948C13.2964 6.80948 13.9004 6.54619 14.3458 6.07751L18.768 1.42251C18.9122 1.26534 18.992 1.05484 18.9902 0.836346C18.9884 0.617849 18.9052 0.408838 18.7584 0.254332C18.6116 0.0998248 18.4131 0.0121841 18.2055 0.0102854C17.9979 0.00838673 17.7979 0.092382 17.6486 0.24418L13.2264 4.89835C13.0779 5.05457 12.8766 5.14233 12.6667 5.14233C12.4567 5.14233 12.2554 5.05457 12.107 4.89835L10.3875 3.08918C9.94207 2.6205 9.33809 2.35721 8.70833 2.35721C8.07856 2.35721 7.47458 2.6205 7.0292 3.08918L4.19029 6.07751C4.0796 6.19406 4.00423 6.34253 3.9737 6.50415C3.94317 6.66578 3.95884 6.83331 4.01875 6.98556C4.07865 7.13781 4.1801 7.26794 4.31026 7.35951C4.44041 7.45108 4.59344 7.49998 4.74999 7.50001Z" fill="white"/>
</g>
<defs>
<clipPath id="clip0_22_1051">
<rect width="19" height="20" fill="white"/>
</clipPath>
</defs>
</svg>
