<svg width="19" height="19" viewBox="0 0 19 19" fill="none" xmlns="http://www.w3.org/2000/svg">
<path d="M18.3041 7.167L12.2993 1.15781C11.5561 0.416361 10.5495 0 9.5 0C8.45052 0 7.44385 0.416361 6.70067 1.15781L0.695884 7.167C0.474554 7.38704 0.299077 7.64886 0.179625 7.93726C0.0601723 8.22567 -0.000879066 8.53493 9.56291e-06 8.84713V16.6236C9.56291e-06 17.2538 0.250232 17.8583 0.69563 18.304C1.14103 18.7496 1.74512 19 2.37501 19H16.625C17.2549 19 17.859 18.7496 18.3044 18.304C18.7498 17.8583 19 17.2538 19 16.6236V8.84713C19.0009 8.53493 18.9398 8.22567 18.8204 7.93726C18.7009 7.64886 18.5254 7.38704 18.3041 7.167ZM11.875 17.4157H7.125V14.2994C7.125 13.6692 7.37522 13.0647 7.82062 12.619C8.26602 12.1734 8.87011 11.923 9.5 11.923C10.1299 11.923 10.734 12.1734 11.1794 12.619C11.6248 13.0647 11.875 13.6692 11.875 14.2994V17.4157ZM17.4167 16.6236C17.4167 16.8337 17.3333 17.0352 17.1848 17.1837C17.0363 17.3323 16.835 17.4157 16.625 17.4157H13.4583V14.2994C13.4583 13.249 13.0413 12.2416 12.299 11.4988C11.5566 10.756 10.5498 10.3387 9.5 10.3387C8.45019 10.3387 7.44337 10.756 6.70104 11.4988C5.95871 12.2416 5.54167 13.249 5.54167 14.2994V17.4157H2.37501C2.16504 17.4157 1.96368 17.3323 1.81521 17.1837C1.66675 17.0352 1.58334 16.8337 1.58334 16.6236V8.84713C1.58408 8.63719 1.66741 8.436 1.8153 8.28708L7.82009 2.28028C8.26635 1.83583 8.87036 1.58632 9.5 1.58632C10.1296 1.58632 10.7337 1.83583 11.1799 2.28028L17.1847 8.28946C17.332 8.43779 17.4153 8.63802 17.4167 8.84713V16.6236Z" fill="white"/>
</svg>
