<svg width="19" height="20" viewBox="0 0 19 20" fill="none" xmlns="http://www.w3.org/2000/svg">
<g clip-path="url(#clip0_22_1058)">
<path d="M9.50005 10C10.1264 10 10.7386 9.8045 11.2594 9.43823C11.7801 9.07196 12.186 8.55136 12.4257 7.94228C12.6653 7.33319 12.7281 6.66297 12.6059 6.01637C12.4837 5.36976 12.1821 4.77582 11.7392 4.30964C11.2964 3.84347 10.7321 3.526 10.1178 3.39738C9.50356 3.26876 8.86685 3.33478 8.28822 3.58707C7.70958 3.83936 7.21502 4.2666 6.86706 4.81477C6.5191 5.36293 6.33338 6.0074 6.33338 6.66667C6.33338 7.55072 6.66701 8.39857 7.26088 9.02369C7.85474 9.64881 8.6602 10 9.50005 10ZM9.50005 5C9.8132 5 10.1193 5.09775 10.3797 5.28088C10.6401 5.46402 10.843 5.72432 10.9629 6.02886C11.0827 6.3334 11.1141 6.66851 11.053 6.99182C10.9919 7.31512 10.8411 7.61209 10.6196 7.84518C10.3982 8.07826 10.1161 8.237 9.80894 8.30131C9.5018 8.36562 9.18345 8.33261 8.89413 8.20647C8.60482 8.08032 8.35753 7.8667 8.18355 7.59262C8.00957 7.31853 7.91671 6.9963 7.91671 6.66667C7.91671 6.22464 8.08353 5.80072 8.38046 5.48815C8.67739 5.17559 9.08012 5 9.50005 5ZM16.3559 7.63083L15.7867 7.43167C15.8891 6.49827 15.8029 5.55262 15.5338 4.65674C15.2647 3.76085 14.8187 2.93497 14.2251 2.23324C13.6315 1.53152 12.9037 0.9698 12.0894 0.584928C11.2751 0.200056 10.3927 0.000722901 9.50005 0C8.59577 0.000367474 7.70208 0.204745 6.87917 0.599362C6.05626 0.99398 5.32326 1.56967 4.72956 2.28765C4.13586 3.00562 3.69524 3.8492 3.43739 4.76156C3.17955 5.67391 3.11046 6.63384 3.2348 7.57667C2.4772 7.72536 1.77664 8.1016 1.21763 8.66C0.83064 9.04729 0.522995 9.5138 0.313606 10.0309C0.104217 10.5479 -0.00249009 11.1046 4.41014e-05 11.6667V15.0625C0.00170787 15.9636 0.280129 16.84 0.793762 17.5609C1.30739 18.2818 2.0287 18.8085 2.85005 19.0625L5.12213 19.8125C5.50376 19.9375 5.90124 20.0007 6.30092 20C6.6635 19.9995 7.02434 19.9474 7.37363 19.845L11.9495 18.42C12.3571 18.3029 12.7871 18.3029 13.1948 18.42L15.0845 19.0867C15.5502 19.206 16.0356 19.2125 16.5041 19.1056C16.9725 18.9987 17.4118 18.7813 17.7888 18.4698C18.1659 18.1582 18.4708 17.7606 18.6806 17.3069C18.8904 16.8533 18.9996 16.3554 19.0001 15.8508V11.56C18.9983 10.6978 18.7432 9.85737 18.2698 9.15379C17.7964 8.45021 17.1279 7.91796 16.3559 7.63V7.63083ZM6.1418 3.135C6.58217 2.66957 7.10552 2.30027 7.68181 2.04828C8.25811 1.79628 8.87601 1.66657 9.50005 1.66657C10.1241 1.66657 10.742 1.79628 11.3183 2.04828C11.8946 2.30027 12.4179 2.66957 12.8583 3.135C13.7467 4.07595 14.246 5.34818 14.2477 6.67478C14.2493 8.00138 13.7531 9.27496 12.867 10.2183L10.0542 13.0975C9.90741 13.249 9.71 13.3339 9.5044 13.3339C9.2988 13.3339 9.1014 13.249 8.95459 13.0975L6.1418 10.2308C5.25154 9.28782 4.75187 8.01237 4.75187 6.68292C4.75187 5.35347 5.25154 4.07801 6.1418 3.135ZM17.4167 15.8508C17.4172 16.1032 17.363 16.3524 17.2582 16.5794C17.1534 16.8064 17.0007 17.0053 16.8119 17.1608C16.6335 17.3118 16.4256 17.4196 16.2031 17.4765C15.9806 17.5334 15.749 17.538 15.5246 17.49L13.6682 16.8333C12.966 16.621 12.2218 16.6164 11.5172 16.82L6.93821 18.2433C6.49826 18.3711 6.03267 18.3627 5.59713 18.2192L3.30605 17.4692C2.81019 17.3182 2.37422 17.002 2.0636 16.5681C1.75298 16.1341 1.58448 15.6058 1.58338 15.0625V11.6667C1.5816 11.3298 1.64529 10.9961 1.77055 10.6862C1.8958 10.3762 2.07996 10.0965 2.31171 9.86417C2.6745 9.50022 3.13664 9.26529 3.633 9.1925C3.95213 10.0251 4.42735 10.7816 5.0303 11.4167L7.85417 14.2942C8.29553 14.7491 8.88866 15.0039 9.50638 15.0039C10.1241 15.0039 10.7172 14.7491 11.1586 14.2942L13.9793 11.4083C14.6109 10.7409 15.1001 9.93948 15.4146 9.0575L15.8397 9.20583C16.3008 9.37973 16.6996 9.69913 16.9818 10.1204C17.2641 10.5418 17.4159 11.0445 17.4167 11.56V15.8508Z" fill="white"/>
</g>
<defs>
<clipPath id="clip0_22_1058">
<rect width="19" height="20" fill="white"/>
</clipPath>
</defs>
</svg>
