<svg width="24" height="23" viewBox="0 0 24 23" fill="none" xmlns="http://www.w3.org/2000/svg">
<g clip-path="url(#clip0_22_2679)">
<path d="M14.2002 15.8415C11.2886 14.7011 8.97325 12.5545 7.7472 9.85858L11.1472 6.70803L4.8872 0.912899L1.7162 3.84515C1.1662 4.35681 0.731343 4.96427 0.436795 5.63239C0.142247 6.30052 -0.00614821 7.01604 0.000195101 7.73755C0.000195101 14.442 9.2522 23.0001 16.5002 23.0001C17.2801 23.0064 18.0537 22.8693 18.7759 22.5968C19.498 22.3243 20.1545 21.9219 20.7072 21.4128L23.8782 18.4796L17.6132 12.6845L14.2002 15.8415ZM19.2922 20.1048C18.925 20.4415 18.489 20.7074 18.0097 20.8868C17.5304 21.0663 17.0173 21.1557 16.5002 21.1501C10.2672 21.1501 2.0002 13.5031 2.0002 7.73755C1.99431 7.25917 2.09116 6.78447 2.28514 6.34098C2.47911 5.89749 2.76635 5.49404 3.1302 5.15403L4.8872 3.5288L8.3242 6.70803L5.3892 9.4229L5.6342 9.99085C6.35544 11.7755 7.48296 13.3958 8.94035 14.7422C10.3977 16.0885 12.1509 17.1293 14.0812 17.7942L14.6872 18.0078L17.6132 15.3004L21.0502 18.4796L19.2922 20.1048ZM14.0002 2.65005V0.800049C16.6515 0.802742 19.1933 1.77816 21.068 3.51229C22.9428 5.24642 23.9973 7.59763 24.0002 10.0501H22.0002C21.9978 8.08813 21.1542 6.20719 19.6544 4.81989C18.1546 3.4326 16.1212 2.65225 14.0002 2.65005V2.65005ZM14.0002 6.35005V4.50005C15.591 4.50152 17.1162 5.08672 18.2411 6.12723C19.366 7.16774 19.9986 8.57855 20.0002 10.0501H18.0002C18.0002 9.06875 17.5788 8.12764 16.8286 7.43376C16.0785 6.73987 15.0611 6.35005 14.0002 6.35005Z" fill="white"/>
</g>
<defs>
<clipPath id="clip0_22_2679">
<rect width="24" height="22.2" fill="white" transform="translate(0 0.800049)"/>
</clipPath>
</defs>
</svg>
