<svg width="19" height="20" viewBox="0 0 19 20" fill="none" xmlns="http://www.w3.org/2000/svg">
<g clip-path="url(#clip0_22_1060)">
<path d="M8.70833 14.1664H8.62917C8.52839 13.644 8.3324 13.1471 8.05204 12.7031L8.10983 12.6423C8.25404 12.4851 8.33384 12.2746 8.33203 12.0561C8.33023 11.8376 8.24697 11.6286 8.10019 11.4741C7.95341 11.3196 7.75485 11.2319 7.54728 11.23C7.3397 11.2281 7.13973 11.3121 6.99042 11.4639L6.93262 11.5248C6.51068 11.2293 6.03832 11.0227 5.54167 10.9164V10.8331C5.54167 10.6121 5.45826 10.4001 5.30979 10.2439C5.16133 10.0876 4.95996 9.99977 4.75 9.99977C4.54004 9.99977 4.33867 10.0876 4.19021 10.2439C4.04174 10.4001 3.95833 10.6121 3.95833 10.8331V10.9164C3.46202 11.0225 2.98993 11.2288 2.56817 11.5239L2.51037 11.4631C2.36106 11.3113 2.16109 11.2273 1.95352 11.2292C1.74594 11.2311 1.54738 11.3188 1.4006 11.4733C1.25382 11.6278 1.17056 11.8368 1.16876 12.0553C1.16695 12.2738 1.24675 12.4843 1.39096 12.6414L1.44875 12.7023C1.16801 13.1464 0.971754 13.6437 0.870833 14.1664H0.791667C0.581704 14.1664 0.38034 14.2542 0.231874 14.4105C0.0834075 14.5668 0 14.7788 0 14.9998C0 15.2208 0.0834075 15.4327 0.231874 15.589C0.38034 15.7453 0.581704 15.8331 0.791667 15.8331H0.870833C0.971609 16.3555 1.1676 16.8525 1.44796 17.2964L1.39017 17.3573C1.24596 17.5144 1.16616 17.7249 1.16797 17.9434C1.16977 18.1619 1.25303 18.3709 1.39981 18.5255C1.54659 18.68 1.74515 18.7676 1.95272 18.7695C2.1603 18.7714 2.36027 18.6874 2.50958 18.5356L2.56737 18.4748C2.98931 18.7703 3.46168 18.9769 3.95833 19.0831V19.1664C3.95833 19.3875 4.04174 19.5994 4.19021 19.7557C4.33867 19.912 4.54004 19.9998 4.75 19.9998C4.95996 19.9998 5.16133 19.912 5.30979 19.7557C5.45826 19.5994 5.54167 19.3875 5.54167 19.1664V19.0831C6.03798 18.977 6.51007 18.7707 6.93183 18.4756L6.98962 18.5364C7.13893 18.6882 7.33891 18.7722 7.54648 18.7703C7.75406 18.7684 7.95262 18.6808 8.0994 18.5263C8.24618 18.3718 8.32944 18.1628 8.33124 17.9443C8.33305 17.7258 8.25325 17.5153 8.10904 17.3581L8.05125 17.2973C8.33198 16.8531 8.52824 16.3559 8.62917 15.8331H8.70833C8.91829 15.8331 9.11966 15.7453 9.26812 15.589C9.41659 15.4327 9.5 15.2208 9.5 14.9998C9.5 14.7788 9.41659 14.5668 9.26812 14.4105C9.11966 14.2542 8.91829 14.1664 8.70833 14.1664ZM4.75 17.4998C4.12011 17.4998 3.51602 17.2364 3.07062 16.7675C2.62522 16.2987 2.375 15.6628 2.375 14.9998C2.375 14.3367 2.62522 13.7008 3.07062 13.232C3.51602 12.7632 4.12011 12.4998 4.75 12.4998C5.37989 12.4998 5.98398 12.7632 6.42938 13.232C6.87478 13.7008 7.125 14.3367 7.125 14.9998C7.125 15.6628 6.87478 16.2987 6.42938 16.7675C5.98398 17.2364 5.37989 17.4998 4.75 17.4998ZM19 9.99977C19 9.11572 18.6664 8.26787 18.0725 7.64275C17.4786 7.01763 16.6732 6.66644 15.8333 6.66644V4.99978C15.8333 4.77876 15.7499 4.5668 15.6015 4.41052C15.453 4.25424 15.2516 4.16644 15.0417 4.16644C14.8317 4.16644 14.6303 4.25424 14.4819 4.41052C14.3334 4.5668 14.25 4.77876 14.25 4.99978V6.66644H12.3136L9.51821 1.95811C9.16401 1.35725 8.66959 0.86184 8.08203 0.519046C7.49446 0.176251 6.83331 -0.00251257 6.16154 -0.00022241H4.75C4.12011 -0.00022241 3.51602 0.26317 3.07062 0.73201C2.62522 1.20085 2.375 1.83674 2.375 2.49978V6.66644C1.74511 6.66644 1.14102 6.92983 0.695621 7.39867C0.250222 7.86751 0 8.5034 0 9.16644C0 9.38745 0.0834075 9.59942 0.231874 9.7557C0.38034 9.91198 0.581704 9.99977 0.791667 9.99977C1.00163 9.99977 1.20299 9.91198 1.35146 9.7557C1.49993 9.59942 1.58333 9.38745 1.58333 9.16644C1.58333 8.94543 1.66674 8.73347 1.81521 8.57719C1.96367 8.42091 2.16504 8.33311 2.375 8.33311H15.8333C16.1259 8.33674 16.4119 8.42514 16.6599 8.58862C16.9079 8.7521 17.1084 8.98433 17.2392 9.25983C17.3701 9.53533 17.4263 9.84345 17.4018 10.1504C17.3772 10.4573 17.2728 10.7512 17.1 10.9998L15.869 12.7273C10.5418 11.0606 9.09308 19.6439 14.6458 19.9998C15.3421 19.9909 16.0209 19.7685 16.5989 19.3598C17.1769 18.9511 17.6292 18.3737 17.9002 17.6986C18.1713 17.0234 18.2494 16.2796 18.125 15.5584C18.0006 14.8372 17.679 14.1699 17.1997 13.6381L18.3667 11.9998C18.7766 11.4222 18.9987 10.7208 19 9.99977ZM3.95833 2.49978C3.95833 2.27876 4.04174 2.0668 4.19021 1.91052C4.33867 1.75424 4.54004 1.66644 4.75 1.66644H6.16154C6.5646 1.6651 6.96128 1.77237 7.31381 1.97805C7.66634 2.18372 7.963 2.48095 8.17554 2.84144L10.45 6.66644H3.95833V2.49978ZM14.6458 18.3331C14.1209 18.3331 13.6175 18.1136 13.2463 17.7229C12.8752 17.3322 12.6667 16.8023 12.6667 16.2498C12.6667 15.6972 12.8752 15.1673 13.2463 14.7766C13.6175 14.3859 14.1209 14.1664 14.6458 14.1664C15.1707 14.1664 15.6741 14.3859 16.0453 14.7766C16.4165 15.1673 16.625 15.6972 16.625 16.2498C16.625 16.8023 16.4165 17.3322 16.0453 17.7229C15.6741 18.1136 15.1707 18.3331 14.6458 18.3331Z" fill="white"/>
</g>
<defs>
<clipPath id="clip0_22_1060">
<rect width="19" height="20" fill="white"/>
</clipPath>
</defs>
</svg>
