<svg width="724" height="627" viewBox="0 0 724 627" fill="none" xmlns="http://www.w3.org/2000/svg">
<path d="M579.687 194.07C579.04 194.07 578.428 193.764 578.054 193.185C577.509 192.3 577.782 191.109 578.666 190.565L683.983 124.579C684.867 124.034 686.058 124.306 686.602 125.191C687.147 126.076 686.874 127.267 685.99 127.812L580.673 193.798C580.367 194.002 579.993 194.104 579.652 194.104L579.687 194.07Z" fill="#FFD000"/>
<path d="M672.692 474.928C672.42 474.928 672.148 474.86 671.876 474.758L615.815 448.588C614.863 448.146 614.455 447.023 614.897 446.036C615.339 445.083 616.496 444.674 617.448 445.117L673.509 471.287C674.461 471.729 674.869 472.852 674.427 473.839C674.087 474.52 673.407 474.928 672.692 474.928Z" fill="#FFD000"/>
<path d="M1.90729 537.919C1.22695 537.919 0.546608 537.545 0.206436 536.864C-0.269803 535.911 0.104385 534.788 1.05686 534.312L72.799 497.763C73.7515 497.286 74.874 497.661 75.3503 498.613C75.8265 499.566 75.4523 500.689 74.4998 501.166L2.79174 537.715C2.5196 537.851 2.21345 537.919 1.94131 537.919H1.90729Z" fill="#FFD000"/>
<path d="M136.105 253.114C136.105 253.114 135.867 253.114 135.731 253.08L19.0178 230.789C17.9972 230.585 17.3169 229.598 17.487 228.543C17.6911 227.522 18.6776 226.808 19.7321 227.012L136.445 249.302C137.465 249.506 138.146 250.493 137.976 251.548C137.806 252.467 136.989 253.114 136.105 253.114Z" fill="#FFD000"/>
<path d="M149.78 160.413C149.439 160.413 149.099 160.311 148.759 160.107L54.8378 101.404C53.9534 100.859 53.6812 99.6681 54.2255 98.7833C54.7698 97.8985 55.9604 97.6262 56.8448 98.1707L150.766 156.874C151.651 157.419 151.923 158.61 151.378 159.495C151.004 160.073 150.392 160.379 149.746 160.379L149.78 160.413Z" fill="#FFD000"/>
<path d="M721.099 334.72C721.099 334.72 721.031 334.72 720.997 334.72L675.346 332.1C674.291 332.032 673.475 331.147 673.543 330.092C673.611 329.037 674.461 328.186 675.55 328.288L721.201 330.909C722.255 330.977 723.072 331.861 723.004 332.916C722.936 333.937 722.119 334.72 721.099 334.72Z" fill="#FFD000"/>
<path d="M171.549 578.859C171.345 578.859 171.141 578.859 170.937 578.757C169.95 578.416 169.406 577.327 169.746 576.34L184.237 532.951C184.578 531.964 185.666 531.419 186.653 531.76C187.639 532.1 188.183 533.189 187.843 534.176L173.352 577.565C173.08 578.348 172.331 578.859 171.549 578.859Z" fill="#FFD000"/>
<path d="M462.807 108.244C462.432 108.244 462.058 108.142 461.718 107.903C460.868 107.291 460.664 106.1 461.242 105.249L522.541 17.8234C523.153 16.9726 524.344 16.7344 525.194 17.347C526.044 17.9595 526.249 19.1506 525.67 20.0014L464.371 107.427C463.997 107.971 463.419 108.244 462.807 108.244Z" fill="#FFD000"/>
<path d="M343.472 626.025C342.52 626.025 341.669 625.311 341.567 624.324L331.396 525.77C331.294 524.715 332.042 523.796 333.097 523.66C334.185 523.558 335.07 524.307 335.206 525.362L345.377 623.915C345.479 624.97 344.731 625.889 343.676 626.025C343.608 626.025 343.54 626.025 343.472 626.025Z" fill="#FFD000"/>
<path d="M279.146 44.2996C278.363 44.2996 277.649 43.8232 277.377 43.0745L261.729 2.61168C261.355 1.62478 261.831 0.535791 262.817 0.127419C263.804 -0.246922 264.893 0.229512 265.301 1.21641L280.949 41.6792C281.323 42.6661 280.847 43.7551 279.86 44.1635C279.622 44.2656 279.384 44.2996 279.18 44.2996H279.146Z" fill="#FFD000"/>
<path d="M65.2802 354.73C64.2937 354.73 63.4432 353.982 63.3752 352.961C63.3072 351.906 64.0896 350.987 65.1441 350.919L99.0592 348.298C100.114 348.196 101.032 349.013 101.1 350.068C101.168 351.123 100.386 352.042 99.3313 352.11L65.4162 354.73H65.2802Z" fill="#FFD000"/>
<path d="M503.42 572.256C502.706 572.256 502.025 571.882 501.719 571.201L474.165 515.629C473.689 514.676 474.097 513.553 475.016 513.076C475.968 512.6 477.125 513.008 477.567 513.927L505.121 569.5C505.597 570.453 505.189 571.576 504.27 572.052C503.998 572.188 503.692 572.256 503.42 572.256Z" fill="#FFD000"/>
</svg>
