<svg width="159" height="98" viewBox="0 0 159 98" fill="none" xmlns="http://www.w3.org/2000/svg">
<g clip-path="url(#clip0_25_3202)">
<path d="M39.3781 87.6843H40.5228L45.3306 97.8904H44.0714L42.8122 95.2565H37.0887L35.8295 97.8904H34.5703L39.3781 87.6843ZM42.2399 94.1591L39.836 89.0012L37.4321 94.1591H42.2399Z" fill="black"/>
<path d="M88.3716 87.6843H92.9504C94.2096 87.6843 95.2398 88.0136 95.9267 88.672C96.3845 89.111 96.728 89.8792 96.728 90.6474C96.728 92.2935 95.4688 93.2812 93.8662 93.6104L97.0714 97.7806H95.5832L92.4925 93.8299H89.5163V97.7806H88.3716V87.6843ZM92.8359 92.8422C94.4385 92.8422 95.5832 92.074 95.5832 90.7571C95.5832 89.5499 94.553 88.7817 92.8359 88.7817H89.6308V92.8422H92.8359Z" fill="black"/>
<path d="M113.212 92.8421C113.212 89.9888 115.387 87.5745 118.592 87.5745C121.797 87.5745 123.972 89.9888 123.972 92.7324C123.972 95.4759 121.797 98 118.592 98C115.387 98 113.212 95.5857 113.212 92.8421ZM122.713 92.8421C122.713 90.5375 120.996 88.6719 118.592 88.6719C116.188 88.6719 114.471 90.5375 114.471 92.8421C114.471 95.1467 116.188 97.0123 118.592 97.0123C120.996 96.9026 122.713 95.0369 122.713 92.8421Z" fill="black"/>
<path d="M67.08 92.8421V94.0493H70.8576C70.3997 95.6954 68.9116 96.9026 66.9656 96.9026C64.5617 96.9026 62.8446 95.0369 62.8446 92.7324C62.8446 90.4278 64.5617 88.5621 66.9656 88.5621C67.8813 88.5621 68.6826 88.8914 69.3695 89.3303C69.7129 89.5498 69.9418 89.879 70.2852 90.2083L71.0865 89.3303C70.8576 89.0011 70.5142 88.7816 70.1708 88.5621C69.255 88.0134 68.2248 87.5745 66.9656 87.5745C63.7604 87.5745 61.5854 89.9888 61.5854 92.8421C61.5854 95.5857 63.7604 98 66.9656 98C69.7129 98 71.6589 96.2441 72.2312 94.0493C72.3457 93.72 72.3457 93.2811 72.3457 92.8421H67.08Z" fill="black"/>
<path d="M101.306 67.9306H87.57H80.1294C76.1229 67.9306 72.9177 64.8578 72.9177 61.0168V40.1657V14.2665H72.8032C72.8032 12.0717 71.3151 8.77938 68.6823 5.70659C65.0192 1.31689 60.4404 -1.09744 58.6089 0.32921C58.0365 0.768179 57.8076 1.42663 57.8076 2.41432L57.5786 60.4681C57.5786 63.1019 58.0365 65.5162 58.9523 67.8208C61.2417 73.9664 66.3929 78.7951 72.8032 80.8802C75.0927 81.6484 77.4965 81.9776 80.0149 81.9776C81.503 81.9776 83.1056 81.8679 84.4793 81.5386C85.5095 81.3192 86.4253 81.0997 87.4555 80.7704C88.8292 80.3315 90.0883 79.673 91.3475 79.0146C91.5765 78.9048 91.8054 78.7951 92.0343 78.5756C92.2633 78.4658 92.3778 78.3561 92.6067 78.1366L92.7212 78.0269C96.7276 75.7223 99.7039 72.1008 101.306 67.9306Z" fill="#396E35"/>
<path d="M158.885 2.6338C158.885 1.75586 158.657 0.987662 158.084 0.548692C156.253 -0.87796 151.674 1.53637 148.011 5.92607C145.378 8.99886 143.89 12.2911 143.89 14.486H143.775V40.3852L143.661 61.1265C143.661 64.9675 140.456 68.0403 136.449 68.0403C132.443 68.0403 129.238 64.9675 129.238 61.1265V40.2755L129.123 14.486C129.123 12.2911 127.635 8.99886 125.002 5.92607C121.339 1.53637 116.76 -0.87796 114.929 0.548692C114.356 0.987662 114.127 1.64612 114.127 2.6338L113.898 60.6875C113.898 70.1254 120.309 78.2463 129.123 81.0996C131.412 81.8678 133.816 82.3068 136.335 82.3068C138.968 82.3068 141.486 81.8678 143.775 81.0996C152.59 78.1366 158.885 70.1254 158.885 60.6875V2.6338Z" fill="#396E35"/>
<path d="M42.8119 51.7983C42.6974 51.7983 42.6974 51.7983 42.6974 51.9081C42.1251 52.1276 41.6672 52.2373 41.2093 52.4568C40.9804 52.5665 40.7514 52.6763 40.5225 52.6763C39.8356 52.8958 39.2633 53.1153 38.5765 53.4445C35.4858 54.5419 32.5095 55.9686 29.7622 57.3952V58.7121V60.029V60.1388V60.7972V60.907V61.2362H29.8767C29.8767 61.2362 29.9911 61.2362 29.9911 61.3459C32.7385 59.5901 35.9436 57.8342 39.4922 56.2978C39.8356 56.188 40.0646 55.9686 40.408 55.8588C40.9803 55.6393 41.5527 55.3101 42.2395 55.0906C42.6974 54.8711 43.1553 54.7614 43.7277 54.5419C43.7277 54.5419 43.8421 54.5419 43.8421 54.4322C44.1855 54.3224 44.5289 54.2127 44.8724 53.9932V53.1153V53.0055V52.8958V52.2373V52.0178V51.5789V51.2496V51.1399C44.4145 51.2496 44.0711 51.3594 43.6132 51.5789C43.3842 51.5789 43.1553 51.6886 42.8119 51.7983Z" fill="#68402C"/>
<path d="M44.8724 1.97526C44.7579 1.42655 44.5289 0.987576 44.1855 0.768091C42.354 -0.658561 37.7752 1.64603 33.9976 6.03573C31.3648 9.10852 29.8767 12.4008 29.7622 14.5956V29.0816V30.0693V31.6057V33.2519V35.1175V40.1656V42.6897V42.7994V44.0066V44.1164V46.0917V47.0794V50.5912V51.5788V51.9081V53.3347V54.8711V55.8588V55.9685C32.395 54.6516 35.1423 53.4445 38.1186 52.2373C38.9199 51.9081 39.7212 51.5788 40.5225 51.3594H40.6369C41.2093 51.1399 41.7816 50.9204 42.354 50.8106C42.8119 50.7009 43.2698 50.4814 43.7277 50.3717C44.1855 50.2619 44.5289 50.1522 44.9868 49.9327V49.7132V49.384V48.8353V46.2015V45.982V45.6527V45.4333V43.5676V43.2384V42.3605V42.2507V41.5923V39.9461V39.3974V35.5564V34.6785V33.6908V32.3739V25.1309V24.253V19.3146V18.2171V2.74345C44.9868 2.41423 44.8724 2.19474 44.8724 1.97526Z" fill="#396E35"/>
<path d="M43.3846 61.1266C43.1557 61.2363 42.9267 61.3461 42.6978 61.4558C41.8965 61.8948 41.0952 62.3338 40.4084 62.7727C40.2939 62.8825 40.1794 62.8825 40.1794 62.8825C39.1492 63.5409 38.2334 64.1994 37.4321 64.8578C37.89 65.0773 38.3479 65.2968 38.8058 65.626C39.1492 65.8455 39.4926 65.9553 39.7215 66.1747C39.836 66.1747 39.836 66.2845 39.9505 66.2845C40.065 66.1747 40.1794 65.9553 40.4084 65.8455C41.2097 65.0773 42.2399 64.4189 43.3846 63.6507C43.4991 63.5409 43.6136 63.5409 43.6136 63.4312C43.8425 63.2117 44.1859 63.102 44.5293 62.8825C44.6438 62.5532 44.6438 62.0045 44.6438 61.5656C44.6438 61.4558 44.6438 61.2363 44.6438 61.1266C44.6438 61.0169 44.6438 60.9071 44.6438 60.9071C44.6438 60.7974 44.6438 60.6876 44.6438 60.5779C44.3004 60.7974 43.957 60.9071 43.6136 61.1266C43.6136 61.0169 43.4991 61.1266 43.3846 61.1266Z" fill="#68402C"/>
<path d="M43.7277 56.0785C43.3843 56.1882 43.0409 56.298 42.6975 56.5175C41.8962 56.8467 41.2094 57.0662 40.5225 57.3954C40.2936 57.5052 40.0647 57.6149 39.8357 57.7246C36.8595 59.0415 34.1122 60.5779 31.8228 62.1143C33.1964 62.7728 34.4556 63.3215 35.7148 63.98C35.8292 64.0897 35.9437 64.0897 36.0582 64.1994C37.3174 63.3215 38.691 62.3338 40.1791 61.4559C40.2936 61.4559 40.2936 61.3461 40.4081 61.3461C40.5225 61.2364 40.637 61.2364 40.7515 61.1267C41.5528 60.6877 42.3541 60.2487 43.2698 59.8097C43.3843 59.7 43.4988 59.7 43.6132 59.5903C43.7277 59.5903 43.7277 59.4805 43.8422 59.4805C44.0711 59.3708 44.3001 59.261 44.6435 59.1513C44.758 59.1513 44.758 59.0415 44.8724 59.0415V58.9318V57.8344V57.3954V56.6272V56.4077V55.9688V55.7493V55.5298C44.6435 55.6395 44.4145 55.7493 44.1856 55.7493C44.0711 55.9688 43.8422 55.9688 43.7277 56.0785Z" fill="#68402C"/>
<path d="M41.7818 66.0648C41.4384 66.2843 41.2094 66.5038 40.9805 66.833C41.3239 67.0525 41.5528 67.1623 41.8962 67.3818C42.1252 67.4915 42.4686 67.711 42.6975 67.8207C42.9265 67.9305 43.0409 68.0402 43.2699 68.1499C43.2699 68.0402 43.3844 67.9305 43.3844 67.8207C43.7278 66.833 44.0712 65.9551 44.3001 64.9674C44.3001 64.7479 44.4146 64.6382 44.4146 64.4187C43.6133 64.8577 42.9265 65.2966 42.2396 65.8454C42.1252 65.8454 41.8962 65.9551 41.7818 66.0648Z" fill="#68402C"/>
<path d="M39.7213 68.15L39.6069 68.0402C39.4924 68.0402 39.4924 67.9305 39.3779 67.9305C39.2635 67.8207 39.149 67.8207 39.0345 67.711C38.92 67.711 38.92 67.6012 38.8056 67.6012C38.4622 67.3818 38.1187 67.1623 37.7753 67.0525C37.3175 66.8331 36.8596 66.5038 36.4017 66.2843C36.2872 66.1746 36.1727 66.1746 36.0583 66.1746C35.6004 65.9551 35.1425 65.7356 34.6846 65.4064C34.6846 65.4064 34.5702 65.4064 34.5702 65.2967C33.1965 64.6382 31.365 63.7603 29.9913 63.1018C29.8768 62.9921 29.7624 62.9921 29.6479 62.8823C29.5334 63.2116 29.419 63.431 29.3045 63.7603C29.19 63.9797 29.19 64.0895 29.0755 64.1992C28.9611 64.4187 28.8466 64.5285 28.7321 64.7479C28.6177 64.8577 28.5032 65.0772 28.3887 65.1869C28.2743 65.2967 28.1598 65.5161 27.9308 65.6259C27.8164 65.7356 27.7019 65.8454 27.473 66.0649C27.3585 66.1746 27.244 66.2843 27.1295 66.2843C27.0151 66.2843 27.0151 66.3941 26.9006 66.3941L26.7861 66.5038C26.9006 66.6136 27.0151 66.6136 27.1295 66.6136C27.8164 66.9428 28.5032 67.272 29.19 67.711C29.5334 67.8207 29.7624 68.0402 30.1058 68.15C30.5637 68.3694 31.0216 68.6987 31.4794 68.9182C31.9373 69.1376 32.2807 69.3571 32.6241 69.5766C32.7386 69.5766 32.7386 69.6864 32.8531 69.6864C32.9676 69.7961 33.1965 69.9058 33.311 69.9058C34.4557 70.5643 35.4859 71.2228 36.5162 71.8812C37.6609 72.6494 38.6911 73.3079 39.6069 74.0761C39.7213 73.9663 39.7213 73.8566 39.8358 73.8566C39.9503 73.7468 39.9503 73.7468 39.9503 73.6371C39.9503 73.6371 39.9503 73.5273 40.0648 73.5273C40.1792 73.3079 41.095 72.2104 41.3239 71.9909C41.3239 71.9909 41.3239 71.991 41.3239 71.8812C41.4384 71.7715 41.4384 71.6617 41.5529 71.6617L41.6673 71.552C41.7818 71.4422 41.7818 71.4422 41.7818 71.3325C41.8963 71.113 42.1252 70.7838 42.2397 70.5643C42.3542 70.2351 42.5831 70.0156 42.6976 69.6864C42.2397 69.4669 41.8963 69.1376 41.4384 68.9182C40.7516 68.8084 40.1792 68.4792 39.7213 68.15Z" fill="#C1C132"/>
<path d="M36.2873 75.0639C35.1426 74.186 33.8834 73.4178 32.6242 72.5398C31.9374 72.1008 31.1361 71.5521 30.3348 71.1132C30.2203 71.1132 30.2203 71.0034 30.1058 71.0034C29.9914 70.8937 29.8769 70.8937 29.6479 70.7839C28.3888 70.0157 27.0151 69.3573 25.6415 68.5891C25.2981 68.3696 24.9546 68.2599 24.6112 68.0404C24.3823 67.9306 24.2678 67.8209 24.0389 67.8209H23.581H23.4665H23.1231H22.8942H22.7797H22.4363H22.3218H22.0929H21.9784C21.8639 67.8209 21.7495 67.8209 21.7495 67.8209C21.635 67.8209 21.406 67.8209 21.2916 67.8209C21.0626 67.8209 20.8337 67.7112 20.6048 67.7112C20.3758 67.7112 20.1469 67.6014 19.9179 67.4917C19.9179 67.4917 19.9179 67.4917 19.8035 67.4917C19.689 67.4917 19.689 67.4917 19.5745 67.3819C19.3456 67.2722 19.2311 67.2722 19.0022 67.1624C19.0022 67.1624 18.8877 67.1624 18.8877 67.0527H18.7732L18.6587 66.943C18.5443 66.8332 18.4298 66.8332 18.3153 66.7235C18.2009 66.6137 18.0864 66.504 17.8575 66.3942C17.743 66.2845 17.514 66.1748 17.3996 65.9553C17.2851 65.8455 17.1706 65.7358 17.0562 65.626C16.8272 65.4066 16.5983 65.0773 16.4838 64.8578C16.3693 64.7481 16.2549 64.5286 16.2549 64.4189C15.9114 64.3091 15.568 64.1994 15.3391 64.0897C14.5378 63.7604 13.7365 63.4312 12.8207 63.2117C8.35637 61.4558 4.12095 60.3584 0 59.4805C0 59.7 0 60.0292 0 60.2487V60.3584V60.5779C0 60.7974 0 61.0169 0 61.1266V61.2363V61.4558C0 61.5656 0 61.7851 0 61.8948C0 62.0045 0 62.0045 0 62.1143C0 62.663 0.114471 63.102 0.114471 63.5409C0.114471 63.6507 0.114471 63.6507 0.114471 63.7604C2.7473 64.4189 5.38013 65.1871 8.01296 66.065C9.61555 66.6137 11.3326 67.2722 12.8207 67.9306C13.3931 68.1501 13.851 68.3696 14.4233 68.5891C14.4233 68.5891 14.5378 68.5891 14.5378 68.6988C14.6523 68.8086 14.7667 68.8086 14.9957 68.9183C15.4536 69.1378 15.797 69.2475 16.2549 69.467C16.3693 69.5768 16.5983 69.5768 16.7127 69.6865C17.6285 70.1255 18.6587 70.6742 19.46 71.1132C20.2613 71.5521 21.0626 71.9911 21.8639 72.4301C21.8639 72.4301 21.9784 72.4301 21.9784 72.5398C23.2376 73.308 24.4968 74.0762 25.6415 74.8444C27.1296 75.8321 28.3888 76.8198 29.5335 77.9172C29.8769 78.2464 30.2203 78.4659 30.5637 78.7951C30.9071 79.1244 31.365 79.5633 31.7084 79.8926C31.7084 79.8926 31.7084 79.8926 31.8229 79.8926C31.9374 79.7828 32.1663 79.7828 32.2808 79.6731C32.3953 79.6731 32.5097 79.5633 32.6242 79.5633C32.8531 79.4536 33.1965 79.2341 33.4255 79.1244C33.4255 79.1244 33.54 79.1244 33.54 79.0146C33.6544 78.9049 33.7689 78.9049 33.9978 78.7951C34.1123 78.7951 34.1123 78.6854 34.2268 78.6854C34.3413 78.5757 34.4557 78.5757 34.5702 78.4659C34.6847 78.4659 34.6847 78.3562 34.7991 78.3562C34.7991 78.3562 34.9136 78.3562 34.9136 78.2464C35.0281 78.1367 35.1426 78.1367 35.257 78.0269C35.257 78.0269 35.257 78.0269 35.3715 78.0269C35.486 78.0269 35.486 77.9172 35.6004 77.9172C35.7149 77.9172 35.7149 77.8075 35.8294 77.8075C35.8294 77.8075 35.9438 77.8075 35.9438 77.6977C36.1728 77.4782 36.4017 77.3685 36.6307 77.149C36.6307 77.149 36.6307 77.149 36.7451 77.0393C36.8596 76.9295 36.9741 76.8198 37.0886 76.71C37.203 76.6003 37.3175 76.4905 37.432 76.3808C37.3175 76.2711 37.203 76.1613 37.0886 76.0516C36.9741 75.5029 36.6307 75.2834 36.2873 75.0639Z" fill="#C1C132"/>
<path d="M29.3045 80.6607C28.3887 79.5633 27.1296 78.3561 25.7559 77.2587C25.4125 76.9295 24.9546 76.6002 24.6112 76.271C24.1533 75.9418 23.6954 75.6125 23.352 75.2833C23.0086 74.9541 22.4363 74.6249 21.9784 74.2956C21.0626 73.7469 20.1468 73.0885 19.1166 72.5398C18.4298 72.1008 17.743 71.7716 17.0561 71.4423C16.7127 71.2228 16.2548 71.1131 15.9114 70.8936C15.6825 70.7839 15.4535 70.6741 15.3391 70.5644C14.8812 70.3449 14.4233 70.1254 13.9654 69.9059H13.8509C13.2786 69.6864 12.5918 69.3572 12.0194 69.1377C10.7602 68.589 9.50105 68.1501 8.24187 67.7111C8.1274 67.6013 8.01293 67.6013 7.78399 67.6013C5.3801 66.8331 3.09069 66.0649 0.80127 65.626C0.80127 65.7357 0.80127 65.8455 0.91574 65.9552C1.03021 66.2844 1.03021 66.5039 1.14468 66.8331C1.14468 66.9429 1.25915 67.1624 1.25915 67.2721C1.25915 67.3819 1.37362 67.4916 1.37362 67.6013C1.37362 67.7111 1.37362 67.7111 1.48809 67.8208C1.60257 68.0403 1.71704 68.3695 1.83151 68.589C1.83151 68.6988 1.94598 68.8085 1.94598 68.9183C3.54857 69.2475 5.15116 69.7962 6.75375 70.3449C8.01293 70.7839 9.15764 71.2228 10.3024 71.6618C10.9892 71.991 11.676 72.2105 12.3628 72.5398C12.5918 72.6495 12.8207 72.7592 13.1641 72.869C13.9654 73.1982 14.7667 73.6372 15.4535 74.0761C15.568 74.1859 15.6825 74.1859 15.797 74.2956C16.2548 74.6249 16.8272 74.8443 17.2851 75.1736C17.3995 75.2833 17.514 75.2833 17.6285 75.3931C18.0864 75.7223 18.5443 76.0515 19.0021 76.271C21.0626 77.6976 22.6652 79.1243 23.8099 80.551L23.9244 80.6607C24.1533 80.9899 24.3823 81.3191 24.6112 81.6484C24.7257 81.6484 24.8401 81.7581 24.9546 81.7581H25.0691C25.1836 81.7581 25.298 81.7581 25.4125 81.7581H25.527C26.2138 81.6484 26.7862 81.6484 27.3585 81.4289C27.7019 81.3191 27.9309 81.3191 28.1598 81.2094C28.2743 81.2094 28.3887 81.0997 28.6177 81.0997C28.8466 80.9899 29.0756 80.9899 29.419 80.8802C29.0756 80.8802 29.19 80.8802 29.3045 80.6607C29.419 80.7704 29.3045 80.7704 29.3045 80.6607Z" fill="#75C8CB"/>
<path d="M20.0324 80.6606C19.4601 79.8924 18.7733 79.0145 17.8575 78.2463C17.5141 78.0268 17.2851 77.6976 16.9417 77.4781C16.3694 77.0391 15.797 76.6002 15.2247 76.2709C14.5378 75.832 13.7365 75.2832 12.9353 74.8443C12.4774 74.6248 12.0195 74.4053 11.5616 74.1858C10.8748 73.8566 10.0735 73.5274 9.38665 73.1981C8.35642 72.7592 7.21171 72.3202 6.067 71.8812C5.03676 71.552 3.89205 71.2228 2.86182 70.8936C2.86182 70.8936 2.86182 71.0033 2.97629 71.0033C3.09076 71.113 3.09076 71.2228 3.20523 71.3325C3.54864 71.991 4.00652 72.6494 4.46441 73.1981C4.57888 73.4176 4.80782 73.5274 4.92229 73.7469C5.03676 73.8566 5.15123 73.9663 5.15123 74.0761C5.15123 74.1858 5.2657 74.1858 5.2657 74.2956C5.2657 74.2956 5.2657 74.4053 5.38017 74.4053C5.49465 74.5151 5.60912 74.7345 5.72359 74.8443C5.72359 74.8443 5.72359 74.8443 5.72359 74.954L5.83806 75.0638C5.95253 75.1735 6.067 75.2833 6.18147 75.5027C6.75382 76.0514 7.44065 76.6002 8.013 77.1489C8.013 77.1489 8.013 77.1489 8.12747 77.2586C8.35642 77.4781 8.69983 77.6976 8.92877 77.9171C9.27218 78.1365 9.6156 78.356 9.95901 78.5755C9.95901 78.5755 10.0735 78.5755 10.0735 78.6853C10.188 78.6853 10.188 78.795 10.3024 78.795C10.4169 78.9047 10.5314 78.9047 10.5314 79.0145C10.8748 79.234 11.1037 79.3437 11.4471 79.5632C11.4471 79.5632 11.5616 79.5632 11.5616 79.6729C11.7905 79.7827 11.905 79.8924 12.134 79.8924C12.5918 80.1119 13.1642 80.3314 13.6221 80.5509C13.9655 80.6606 14.1944 80.7704 14.5378 80.8801C14.6523 80.9898 14.8813 80.9898 14.9957 81.0996C15.1102 81.0996 15.2247 81.2093 15.2247 81.2093C15.3391 81.2093 15.3391 81.2093 15.4536 81.3191C15.6826 81.4288 15.797 81.4288 16.026 81.5386C16.1404 81.5386 16.2549 81.6483 16.3694 81.6483H16.4838C16.5983 81.6483 16.7128 81.758 16.8273 81.758C17.0562 81.758 17.1707 81.8678 17.3996 81.8678C17.5141 81.8678 17.6286 81.8678 17.743 81.9775C17.8575 81.9775 17.972 81.9775 18.0864 81.9775C18.2009 81.9775 18.3154 81.9775 18.4299 82.0873C18.6588 82.0873 18.8877 82.197 19.0022 82.197C19.1167 82.197 19.2311 82.197 19.2311 82.197C19.5746 82.197 20.0324 82.3068 20.3759 82.3068C20.4903 82.3068 20.4903 82.3068 20.4903 82.3068V82.197C20.4903 81.4288 20.2614 80.9898 20.0324 80.6606Z" fill="#C1C132"/>
<path d="M13.3931 61.1264C13.9654 61.3459 14.5378 61.5654 15.2246 61.7849V61.1264C15.2246 61.1264 15.2246 61.1264 15.2246 61.0167V60.9069C15.2246 60.9069 15.2246 60.907 15.2246 60.7972V60.6875C15.2246 60.5777 15.2246 60.5777 15.2246 60.468C15.2246 60.3582 15.2246 60.3582 15.2246 60.2485V59.9193V59.2608V59.0413V57.9439V57.7244V57.3952C10.4168 55.9685 5.60907 54.6516 1.14471 53.7737C0.801296 53.6639 0.457883 53.6639 0 53.5542V55.0906V55.9685V56.627V57.2854C0.114471 57.2854 0.114471 57.2854 0.228942 57.3952C4.46436 58.3829 8.92873 59.59 13.3931 61.1264Z" fill="#C1C132"/>
<path d="M15.1102 55.6394V54.8712V53.7738V51.0302V50.3718V46.7503V45.9821V43.897V42.2509V42.0314V41.0437V40.1657V14.486C15.1102 12.2912 13.5076 8.9989 10.8747 5.92611C7.09719 1.53641 2.63283 -0.76818 0.686825 0.658471C0.228942 1.09744 0 1.86564 0 2.74358V37.093V37.9709V39.1781V39.7268V45.3236V45.5431V45.8724V46.0918V48.2867V48.7257V49.2744V50.1523V50.4815V51.2497V51.579V51.7984C0.572354 51.9082 1.14471 52.0179 1.71706 52.1277C6.06696 53.0056 10.6458 54.2128 15.1102 55.6394Z" fill="#396E35"/>
</g>
<defs>
<clipPath id="clip0_25_3202">
<rect width="159" height="98" fill="white"/>
</clipPath>
</defs>
</svg>
