<svg width="26" height="28" viewBox="0 0 26 28" fill="none" xmlns="http://www.w3.org/2000/svg">
<path d="M8.89894 16.5844C8.70728 16.5844 8.57811 16.6046 8.51144 16.6249V17.9501C8.59061 17.9704 8.68957 17.976 8.82603 17.976C9.32499 17.976 9.63228 17.7037 9.63228 17.2436C9.63228 16.8319 9.36769 16.5844 8.89894 16.5844ZM12.5312 16.5979C12.3229 16.5979 12.1875 16.6181 12.1073 16.6384V19.5746C12.1875 19.5949 12.3166 19.5949 12.4333 19.5949C13.2843 19.6016 13.8385 19.0954 13.8385 18.0244C13.8448 17.0906 13.3395 16.5979 12.5312 16.5979Z" fill="#EE5C48"/>
<path d="M14.8708 2.31914H6.53747C5.98493 2.31914 5.45503 2.55619 5.06433 2.97815C4.67362 3.4001 4.45413 3.9724 4.45413 4.56914V22.5691C4.45413 23.1658 4.67362 23.7381 5.06433 24.1601C5.45503 24.5821 5.98493 24.8191 6.53747 24.8191H19.0375C19.59 24.8191 20.1199 24.5821 20.5106 24.1601C20.9013 23.7381 21.1208 23.1658 21.1208 22.5691V9.06914L14.8708 2.31914ZM10.1812 18.2829C9.85934 18.6091 9.38434 18.7554 8.83122 18.7554C8.72397 18.7566 8.61677 18.7499 8.51038 18.7351V20.3394H7.57913V15.9114C7.99939 15.8437 8.42405 15.8128 8.84892 15.8191C9.42913 15.8191 9.84163 15.9384 10.1198 16.178C10.3843 16.4053 10.5635 16.7776 10.5635 17.2164C10.5625 17.6574 10.427 18.0298 10.1812 18.2829ZM14.1468 19.8073C13.7093 20.1999 13.0437 20.3866 12.2302 20.3866C11.7427 20.3866 11.3979 20.3529 11.1635 20.3191V15.9125C11.5839 15.8463 12.0084 15.815 12.4333 15.8191C13.2218 15.8191 13.7343 15.9721 14.1343 16.2984C14.5666 16.6449 14.8375 17.1973 14.8375 17.9904C14.8375 18.8488 14.5468 19.4416 14.1468 19.8073ZM17.9958 16.6854H16.4V17.7103H17.8916V18.536H16.4V20.3405H15.4562V15.8529H17.9958V16.6854ZM14.8708 10.1941H13.8291V4.56914L19.0375 10.1941H14.8708Z" fill="#EE5C48"/>
</svg>
