<svg width="584" height="507" viewBox="0 0 584 507" fill="none" xmlns="http://www.w3.org/2000/svg">
<path d="M89.5689 506.446C67.7979 506.446 47.9659 498.313 31.9779 482.692C11.7037 462.92 -0.712562 432.633 0.307951 405.476C1.94077 363.38 24.4261 325.946 75.5538 280.344C111.51 248.253 123.756 207.246 134.88 138.026C143.588 83.8832 175.904 36.1377 219.242 13.4391C247.987 -1.60264 277.922 -3.13403 303.571 9.15116C347.521 30.2163 362.114 66.0169 374.973 97.6317C389.158 132.479 400.383 160.011 445.422 157.424C491.005 154.804 532.234 171.003 558.427 201.835C579.79 226.949 588.26 258.462 581.695 288.273C568.496 347.896 500.632 385.67 400.179 389.379C319.593 392.34 275.438 422.185 232.713 451.044C193.695 477.418 156.821 502.294 95.3858 506.31C93.4468 506.446 91.5079 506.514 89.6029 506.514L89.5689 506.446ZM267.104 4.76116C252.001 4.76116 236.353 8.81085 221.011 16.8422C178.728 38.9963 147.16 85.6528 138.656 138.639C127.362 208.743 114.912 250.363 78.1051 283.203C27.8278 328.056 5.71668 364.673 4.15189 405.646C3.16539 431.374 15.4116 461.219 34.6653 479.97C51.2996 496.169 72.1861 503.928 95.1477 502.464C155.562 498.551 192.028 473.912 230.604 447.845C273.772 418.68 318.402 388.529 400.077 385.534C498.693 381.927 565.23 345.241 578.021 287.423C584.348 258.802 576.184 228.515 555.57 204.285C530.125 174.372 490.087 158.683 445.66 161.202C397.9 163.958 385.654 133.841 371.469 99.027C358.848 68.0588 344.561 32.9728 301.972 12.5543C291.052 7.31348 279.282 4.72713 267.172 4.72713L267.104 4.76116Z" fill="#FFD000"/>
</svg>
